<svg width="178" height="62" viewBox="0 0 178 62" fill="none" xmlns="http://www.w3.org/2000/svg">
<path d="M68.9065 32.0279C71.9285 32.0279 74.6514 32.811 76.6669 33.9683V41.1342C74.9139 39.9039 71.9284 39.0455 69.5044 39.0455C67.3018 39.0455 66.1834 39.7165 66.1832 40.6866C66.1832 41.6567 67.4159 42.1041 69.6162 42.8871C73.3458 44.1928 78.4199 45.9465 78.4199 51.8796C78.4198 57.1779 74.4278 61.0949 67.4135 61.0949C63.7956 61.0949 60.4742 60.052 58.4221 58.6709V51.1332C60.4352 52.7745 63.4964 54.08 66.4432 54.0801C68.9426 54.0801 70.1003 53.1487 70.1003 52.1031C70.1002 50.7584 68.1961 50.1629 65.9204 49.341C62.9372 48.2589 58.1987 46.3182 58.1987 40.9079C58.1987 36.0205 62.0405 32.0279 68.9065 32.0279Z" fill="#F6F2E8"/>
<path d="M26.905 32.626V60.4968H18.7722V32.626H26.905Z" fill="#F6F2E8"/>
<path d="M38.021 32.626L48.0579 47.3274H48.0944V32.626H55.8161V60.4996H48.0551L38.0189 45.5381H37.9824V60.4996H30.26V32.626H38.021Z" fill="#F6F2E8"/>
<path d="M88.4518 32.626V60.4968H80.3191V32.626H88.4518Z" fill="#F6F2E8"/>
<path d="M138.114 32.626V39.8621H126.996V43.2202H136.993V49.788H126.996V53.2578H138.114V60.4968H118.863V32.626H138.114Z" fill="#F6F2E8"/>
<path d="M164.234 60.4968L164.231 60.4996L164.229 60.4968H164.234Z" fill="#F6F2E8"/>
<path fill-rule="evenodd" clip-rule="evenodd" d="M150.951 32.626C157.929 32.626 162.778 35.7241 162.778 42.3283C162.778 44.9398 161.62 48.7451 156.993 50.6855L164.229 60.4968H154.645L149.347 51.8768H149.16V60.4968H141.027V32.626H150.951ZM149.162 45.7953H150.915C152.967 45.7953 154.572 44.8253 154.572 42.885C154.572 40.9445 152.967 39.9746 150.878 39.9746H149.162V45.7953Z" fill="#F6F2E8"/>
<path fill-rule="evenodd" clip-rule="evenodd" d="M101.211 32.626C110.314 32.626 116.658 38.1848 116.658 46.5811L116.653 46.9697C116.458 55.1459 110.172 60.4968 101.211 60.4968H91.8096V32.626H101.211ZM99.9424 53.1461H101.511C105.726 53.146 108.45 50.7581 108.45 46.5782C108.449 42.3986 105.726 39.9747 101.511 39.9746H99.9424V53.1461Z" fill="#F6F2E8"/>
<path d="M33.3894 17.8465C33.3894 20.9442 34.9188 22.5854 37.5299 22.5856C40.1412 22.5856 41.7828 20.9442 41.7828 17.8099V1.39217H49.9542V17.9217C49.9542 24.9368 45.2542 29.9749 37.5299 29.9749C29.8057 29.9748 25.2545 24.9367 25.2545 17.9217H25.2567V1.39217H33.3894V17.8465Z" fill="#F6F2E8"/>
<path d="M62.9013 0.79126C65.9233 0.791292 68.6461 1.57437 70.6616 2.73173V9.89763C68.9086 8.6673 65.9232 7.80887 63.4992 7.80887C61.299 7.80887 60.1781 8.51875 60.1779 9.44994C60.1779 10.3812 61.4083 10.8675 63.6109 11.6505C67.343 12.9562 72.4147 14.7099 72.4147 20.643C72.4146 25.9413 68.4225 29.8583 61.4082 29.8583C57.7904 29.8583 54.4689 28.813 52.4169 27.4343V19.8966C54.4324 21.5379 57.4912 22.8434 60.4379 22.8435C62.9373 22.8435 64.095 21.9096 64.095 20.8665C64.095 19.5242 62.1909 18.9263 59.9152 18.1044C56.9295 17.0223 52.1934 15.0815 52.1934 9.67133C52.1935 4.78388 56.0377 0.79126 62.9013 0.79126Z" fill="#F6F2E8"/>
<path d="M146.809 0.79126C149.831 0.791268 152.554 1.5743 154.57 2.73173V9.89763C152.817 8.66725 149.831 7.80887 147.407 7.80887C145.207 7.8089 144.086 8.51877 144.085 9.44994C144.085 10.3812 145.316 10.8676 147.518 11.6505C151.251 12.9562 156.323 14.7099 156.323 20.643C156.323 25.9413 152.33 29.8583 145.316 29.8583C141.698 29.8582 138.377 28.8129 136.325 27.4343V19.8966C138.341 21.5378 141.4 22.8435 144.346 22.8435C146.845 22.8434 148.003 21.9096 148.003 20.8665C148.003 19.5243 146.099 18.9262 143.823 18.1044C140.838 17.0223 136.101 15.0816 136.101 9.67133C136.101 4.78388 139.945 0.79126 146.809 0.79126Z" fill="#F6F2E8"/>
<path d="M168.335 0.79126C171.358 0.79126 174.081 1.57429 176.097 2.73173V9.89763C174.344 8.66729 171.358 7.80893 168.934 7.80887C166.734 7.80887 165.613 8.51875 165.613 9.44994C165.613 10.3812 166.843 10.8675 169.046 11.6505C172.778 12.9562 177.85 14.7099 177.85 20.643C177.849 25.9413 173.857 29.8582 166.843 29.8583C163.225 29.8583 159.904 28.813 157.852 27.4343V19.8966C159.867 21.5379 162.926 22.8435 165.873 22.8435C168.372 22.8435 169.529 21.9096 169.529 20.8665C169.529 19.5242 167.626 18.9263 165.35 18.1044C162.364 17.0223 157.628 15.0816 157.628 9.67133C157.628 4.78395 161.472 0.791374 168.335 0.79126Z" fill="#F6F2E8"/>
<path fill-rule="evenodd" clip-rule="evenodd" d="M12.7965 1.39217C19.4363 1.39226 22.9078 4.8253 22.9078 9.0416C22.9078 11.9522 21.2671 13.9292 18.9914 14.9748V15.05C21.9016 16.0955 23.5429 18.408 23.543 21.3549C23.543 25.5713 20.297 29.265 13.2827 29.2651H0.858398V1.39217H12.7965ZM8.91808 22.5125H12.5358V22.5104C14.6242 22.5104 15.6335 21.5037 15.6337 20.1981C15.6337 18.8924 14.5882 17.8852 12.5752 17.8851H8.91808V22.5125ZM8.91808 12.4362H12.4241C14.4006 12.4362 15.2977 11.4296 15.2978 10.3088C15.2978 9.18782 14.4032 8.14411 12.4241 8.14411H8.91808V12.4362Z" fill="#F6F2E8"/>
<path d="M82.6363 29.2651H74.5035V1.39217H82.6363V29.2651Z" fill="#F6F2E8"/>
<path d="M103.793 16.0929H103.83V1.39217H111.552V29.2651H103.791L93.7544 14.3036H93.7179V29.2651H85.9962V1.39217H93.7573L103.793 16.0929Z" fill="#F6F2E8"/>
<path d="M134.161 8.63046H123.042V11.9885H133.04V18.5563H123.042V22.0261H134.161V29.2651H114.909V1.39217H134.161V8.63046Z" fill="#F6F2E8"/>
</svg>
