<svg width="133" height="100" viewBox="0 0 133 100" fill="none" xmlns="http://www.w3.org/2000/svg">
<path fill-rule="evenodd" clip-rule="evenodd" d="M37.0583 72.7853C45.7092 72.7852 50.9973 78.81 50.9973 86.242C50.9973 93.674 45.7091 99.8861 37.1943 99.8861C28.6112 99.8861 23.1194 93.674 23.1194 86.242C23.1194 78.81 28.0672 72.7853 37.0583 72.7853ZM37.1547 78.9174C32.6574 78.9174 30.1828 82.2156 30.1828 86.2842C30.1828 90.3529 32.9295 93.7539 37.2227 93.7539C41.4817 93.7539 44.1268 90.3529 44.1268 86.2842C44.1268 82.2156 41.4817 78.9175 37.1547 78.9174Z" fill="#F6F2E8"/>
<path d="M21.3763 79.2843H14.1942V99.3601H7.18214V79.2843H0V73.1419H21.3763V79.2843Z" fill="#F6F2E8"/>
<path fill-rule="evenodd" clip-rule="evenodd" d="M66.7214 73.203C85.9785 73.4873 83.7887 99.5542 66.7214 99.2924H55.1411V73.203H66.7214ZM62.1191 93.3152H67.1569C74.6974 93.3151 75.7345 79.2487 67.1569 79.2486H62.1191V93.3152Z" fill="#F6F2E8"/>
<path fill-rule="evenodd" clip-rule="evenodd" d="M108.894 99.2635H101.16L99.9345 95.6576H89.735L88.5092 99.2635H80.7752L90.6085 73.1405H99.061L108.894 99.2635ZM91.773 89.6625H97.8965L94.8348 80.6558L91.773 89.6625Z" fill="#F6F2E8"/>
<path d="M119.427 82.6627L125.063 73.1409H132.743L122.783 88.8467V99.2635H116.052V88.8467L106.043 73.1409H113.791L119.427 82.6627Z" fill="#F6F2E8"/>
<path d="M66.3758 0C83.8646 0.00763738 100.644 7.06647 113.066 19.6422C125.488 32.218 132.55 49.2944 132.715 67.1594H115.451C115.286 53.9727 110.043 41.3829 100.859 32.1158C91.6736 22.8488 79.2853 17.6501 66.3758 17.6453C53.468 17.6527 41.0823 22.8526 31.8994 32.1194C22.7165 41.3861 17.4752 53.9744 17.31 67.1594H0.0276117C0.193282 49.2928 7.25584 32.2152 19.68 19.6391C32.1041 7.06308 48.8855 0.00527484 66.3758 0Z" fill="#F6F2E8"/>
<path d="M66.3758 22.6277C77.9903 22.6349 89.1356 27.3097 97.4039 35.6422C105.672 43.9747 110.4 55.2957 110.565 67.1594H93.6179C93.485 59.8671 90.5568 52.9192 85.4627 47.8088C80.3687 42.6984 73.5154 39.8336 66.3758 39.8299C59.2376 39.8357 52.3862 42.7014 47.2938 47.8115C42.2015 52.9217 39.2745 59.8685 39.1415 67.1594H22.1781C22.3432 55.2942 27.0717 43.9718 35.3419 35.6391C43.6121 27.3063 54.7598 22.6325 66.3758 22.6277Z" fill="#F6F2E8"/>
<path d="M66.3758 44.9889C72.1764 44.9922 77.7455 47.3133 81.8927 51.4563C86.0398 55.5993 88.4358 61.2353 88.5685 67.1594H44.1911C44.3237 61.2367 46.7186 55.6019 50.864 51.4592C55.0095 47.3164 60.5767 44.9943 66.3758 44.9889Z" fill="#F6F2E8"/>
</svg>
