<svg width="178" height="70" viewBox="0 0 178 70" fill="none" xmlns="http://www.w3.org/2000/svg">
<path d="M72.8397 0.170654V14.6045C75.2454 11.6472 79.4044 10.7425 82.987 11.8758C86.9044 13.1155 88.7848 16.8855 89.0637 20.7827L89.0609 38.914H79.7081L79.6046 38.8104V23.3407C79.6046 21.9691 78.4946 20.4933 77.134 20.2191C74.2679 19.6411 72.8742 21.9657 72.8376 24.512L72.8404 38.914H63.4876L63.3834 0.170654H72.8397Z" fill="#F6F2E8"/>
<path d="M0.433594 12.0492L10.7072 12.0609L16.8273 27.7268L23.0738 12.0492H33.0817L17.7931 48.8588H7.81903L11.8807 39.0342L0.433594 12.1182V12.0492Z" fill="#F6F2E8"/>
<path d="M175.962 0.170654L165.953 24.4802H154.702L164.711 0.170654H175.962Z" fill="#F6F2E8"/>
<path d="M177.411 56.2484C177.426 56.5198 177.432 56.8775 177.411 57.1462C177.411 57.1558 177.349 57.2263 177.34 57.3133C177.32 57.4811 177.356 57.6662 177.342 57.8368H166.851C166.942 59.9984 169.612 60.7671 171.291 59.7581L172.187 58.95L176.784 60.8299C174.964 63.9335 171.119 64.8976 167.734 64.3085C158.954 62.7802 159.623 49.6917 168.275 48.5218C173.423 47.8257 177.138 51.1876 177.412 56.2484H177.411ZM172.027 54.729C171.83 51.8664 167.127 51.8823 166.851 54.729H172.027Z" fill="#F6F2E8"/>
<path d="M51.0969 14.5354V12.0492H60.2081V38.914H51.0969V36.4278C49.5707 38.2828 47.3603 39.2849 44.9878 39.5349C40.6548 39.9914 36.4151 37.9589 33.8831 34.4865C28.9772 27.7572 30.5655 17.0444 38.0497 12.9111C42.1914 10.6238 47.8622 10.8185 51.0969 14.5354ZM45.0776 20.0113C38.194 20.7122 38.8345 31.3566 46.0233 31.0397C53.4335 30.713 52.8295 19.2212 45.0776 20.0113Z" fill="#F6F2E8"/>
<path d="M104.37 11.4476C114.598 10.8316 122.042 19.6756 119.189 29.6591C115.481 42.6377 96.0032 42.9389 91.8021 30.128C88.8345 21.0796 94.8808 12.0195 104.37 11.4476H104.37ZM105.198 20.081C98.4095 20.398 98.4986 30.416 104.902 30.9022C112.633 31.4885 112.616 19.735 105.198 20.081Z" fill="#F6F2E8"/>
<path d="M134.671 11.4477C144.891 10.8316 152.359 19.6818 149.491 29.6591C145.758 42.6468 126.303 42.9327 122.104 30.128C119.138 21.0831 125.185 12.0188 134.672 11.4477H134.671ZM135.499 20.081C128.311 20.4167 128.872 31.5155 136.306 30.9015C142.965 30.3518 142.51 19.7537 135.499 20.081Z" fill="#F6F2E8"/>
<path d="M140.518 48.8588L143.936 57.7677L147.455 48.8588H153.115L144.487 69.7153H138.827L141.144 64.0495L134.754 48.8588H140.518Z" fill="#F6F2E8"/>
<path d="M107.006 57.8368H96.5147C96.6631 60.4929 100.402 60.948 101.793 58.9653L106.447 60.8334C105.29 62.7325 103.336 63.9411 101.153 64.3085C95.3564 65.2837 90.7073 61.9045 91.1311 55.8002C91.7399 47.0391 104.525 45.6606 106.71 54.0923C107.035 55.3471 107.037 56.5474 107.006 57.8368H107.006ZM101.692 54.729C101.493 51.8665 96.7563 51.8865 96.5154 54.729H101.692Z" fill="#F6F2E8"/>
<path d="M90.7169 41.9527V46.5107C88.6944 45.6019 86.4951 46.3526 86.7132 48.8588H90.4408V53.2787H86.7132V64.0523H81.2606V53.2787H79.1897V48.8588H81.2606C81.1357 46.5094 81.8149 44.0653 83.7926 42.6557C85.693 41.3021 88.5701 41.1184 90.7169 41.9527Z" fill="#F6F2E8"/>
<path d="M115.889 59.8872C116.508 59.218 115.513 58.9024 115.028 58.7539C113.417 58.2601 111.896 58.16 110.394 57.2442C107.476 55.4652 107.889 51.2815 110.644 49.5625C113.633 47.6979 118.214 48.4838 121.196 50.0315L119.527 53.9638C118.074 53.2884 116.27 52.5619 114.634 52.7269C114.173 52.7732 113.45 53.1882 113.911 53.6565C114.204 53.9548 116.243 54.3989 116.791 54.5722C118.781 55.2021 121.244 56.2111 121.434 58.6282C121.992 65.6793 111.847 65.4259 107.771 62.6255L109.67 58.7394C110.819 59.3167 111.996 59.8078 113.274 60.0246C113.864 60.1248 115.463 60.3478 115.888 59.8872H115.889Z" fill="#F6F2E8"/>
<path d="M130.199 44.2317V48.8588H133.788V53.2787H130.199V57.8022C130.199 57.9673 130.381 58.5364 130.473 58.7021C131.116 59.8637 132.718 59.4936 133.788 59.2871V63.9142C130.324 64.9321 125.978 64.7236 124.944 60.5737C124.891 60.3596 124.746 59.7767 124.746 59.5978V53.2787H122.675V48.8588H124.746V44.2317H130.199Z" fill="#F6F2E8"/>
<path d="M157.242 26.849C165.723 26.3055 165.935 39.3498 157.429 39.3836C149.449 39.4154 149.183 27.3656 157.242 26.849Z" fill="#F6F2E8"/>
<path d="M159.741 42.0908L159.81 64.0523H154.288V42.0908H159.741Z" fill="#F6F2E8"/>
<path d="M68.905 42.0908H63.4524V64.0523H68.905V42.0908Z" fill="#F6F2E8"/>
<path d="M77.1879 48.8588H71.6662V64.0523H77.1879V48.8588Z" fill="#F6F2E8"/>
<path d="M73.998 41.3505C77.0788 40.9769 78.8342 44.7628 76.3609 46.7531C74.6172 48.1565 71.941 47.2338 71.4219 45.0639C71.0153 43.3657 72.2585 41.5611 73.998 41.3505Z" fill="#F6F2E8"/>
</svg>
