<svg width="178" height="38" viewBox="0 0 178 38" fill="none" xmlns="http://www.w3.org/2000/svg">
<path fill-rule="evenodd" clip-rule="evenodd" d="M109.341 4.43931L112.188 6.61582L104.654 6.6888L106.976 7.46136C115.452 11.7652 110.882 21.6889 102.203 21.1828C101.038 21.1158 98.6283 20.2523 97.7087 20.6677C96.7342 21.1084 98.1086 21.8795 98.544 22.0746V22.0731C102.929 24.0456 111.995 23.9995 112.333 30.4977C112.754 38.5754 99.1305 39.5326 94.4907 35.5712C92.2115 33.624 92.2307 30.0303 95.083 28.6666C95.7035 28.3704 96.2174 28.3078 96.8675 28.1754C96.9519 28.1575 97.0363 28.1411 97.0496 28.0384C95.4887 27.3983 94.0048 25.9957 93.8523 24.2168C93.6243 21.5595 95.9361 20.1289 98.3278 20.1482C94.4107 18.1995 92.6201 13.5785 95.4887 9.86859C96.9459 7.98389 99.3674 6.86738 101.706 6.61727C102.267 6.55624 102.922 6.59794 103.472 6.53542C105.447 6.30914 107.394 5.3519 109.115 4.41401L109.341 4.43931ZM98.0198 28.5459C96.447 30.6271 97.0867 33.825 98.8505 35.5831C100.906 37.6316 106.343 37.9486 108.081 35.5176C109.584 33.4126 107.652 31.9134 105.887 31.1199C103.415 30.0079 100.583 29.4391 98.0198 28.5459ZM104.577 9.30291C104.315 8.25934 103.769 6.85856 102.431 7.13541C101.768 7.27237 101.341 8.17892 101.139 8.76398V8.76558C100.348 11.0434 100.324 17.3153 101.3 19.5215C101.901 20.8807 103.194 21.3242 104.052 19.904C105.294 17.8451 105.165 11.6387 104.577 9.30291Z" fill="#F6F2E8"/>
<path fill-rule="evenodd" clip-rule="evenodd" d="M37.6535 8.173C41.812 5.4055 49.3499 5.96376 50.0623 11.9468C50.1245 12.4679 50.203 13.2599 49.8935 13.6872H38.4162C38.2681 17.0085 38.8887 20.7615 41.5426 23.0064C44.1742 25.2321 48.3 24.5026 50.5688 22.1132C50.0134 25.5893 48.0779 29.0983 44.3312 29.734C32.42 31.7571 28.8908 14.0058 37.6535 8.173ZM42.5658 7.05502C39.7417 6.72905 38.6444 10.3332 38.4874 12.5454H41.9349C42.4769 12.5454 43.3952 12.2223 43.8188 11.868C45.273 10.6532 44.5769 7.28726 42.5658 7.05502Z" fill="#F6F2E8"/>
<path fill-rule="evenodd" clip-rule="evenodd" d="M145.435 6.56813C150.574 6.45946 154.698 10.5862 155.651 15.4691C157.197 23.4069 152.179 31.4088 143.458 29.6462C131.56 27.2419 133.216 6.82568 145.434 6.56813H145.435ZM148.742 11.8442C148.392 10.2513 147.396 6.68888 145.217 7.13396C143.713 7.44063 142.794 10.6174 142.513 11.9141C141.669 15.7952 141.485 24.8421 143.785 28.1754C145.013 29.9573 146.636 29.6074 147.664 27.8731H147.665C149.782 24.3002 149.619 15.8458 148.742 11.8442Z" fill="#F6F2E8"/>
<path fill-rule="evenodd" clip-rule="evenodd" d="M123.048 6.56668C127.828 6.45056 131.784 9.99961 133.047 14.4717C135.193 22.07 130.854 30.7134 122.174 29.8233C109.21 28.4938 110.432 6.87332 123.046 6.56813L123.048 6.56668ZM126.368 11.7578C126.007 10.1634 124.588 5.61094 122.208 7.50905C120.447 8.91288 119.807 13.3536 119.65 15.5078C119.421 18.6564 119.501 26.4216 121.878 28.7277C122.997 29.8143 124.298 29.3855 125.111 28.205C127.459 24.7959 127.261 15.7118 126.368 11.7578Z" fill="#F6F2E8"/>
<path fill-rule="evenodd" clip-rule="evenodd" d="M176.933 26.9336C176.933 26.9798 177.136 27.392 177.186 27.4636H177.185C177.343 27.6883 177.623 27.7108 177.568 27.9653L170.678 29.8247V27.1822L169.933 28.1826C167.913 30.3591 164.544 30.3517 162.227 28.6397C156.628 24.4996 155.914 12.0555 161.773 7.91684C164.412 6.053 168.412 5.98158 170.679 8.47511V3.29894C170.679 2.96548 170.14 2.46822 169.897 2.26425L176.933 0.477803V26.9336ZM168.107 7.85142C165.989 7.97647 165.056 10.6561 164.672 12.4009C163.862 16.0869 163.819 23.5066 166.417 26.5019C167.614 27.8819 169.567 28.0724 170.678 26.5019H170.676L170.679 9.2939C170.359 8.35606 169.044 7.79637 168.107 7.85142Z" fill="#F6F2E8"/>
<path d="M29.4299 9.12278C30.4947 7.45543 32.6688 5.98909 34.6962 6.81979C34.9554 6.92551 35.518 7.18446 35.1138 7.40626L35.1109 7.40786C32.5163 8.8266 31.0368 11.5003 29.8713 14.1398C27.7121 19.0257 26.6443 24.3553 25.3559 29.5226L25.2315 29.6149L23.9771 29.5687C23.0308 26.0122 21.8445 22.5123 20.485 19.0957C19.5787 16.818 18.5569 14.4315 17.3885 12.2818C17.2034 11.9409 16.9915 11.5493 16.7368 11.259C17.0389 13.8568 16.5294 16.3534 15.863 18.8426C14.8945 22.4601 13.4876 25.9392 12.3177 29.4897C12.2555 29.6669 11.7179 29.6446 11.6157 29.5761C10.5835 25.8529 9.37511 22.1757 7.88529 18.6148C6.76719 15.9425 3.75639 9.16162 1.18548 7.92295C1.00333 7.83511 0.815151 7.7457 0.603377 7.7591C0.431825 7.59681 1.46688 7.2217 1.56165 7.18746C5.87858 5.60796 9.2225 7.25897 11.4187 11.0686C13.2669 14.2738 13.9971 18.1771 14.3925 21.8274L15.2959 18.844C16.1963 15.2637 17.5217 9.49341 13.113 7.76056C12.9813 7.58339 14.4885 7.0669 14.622 7.02812C20.1044 5.41287 23.2485 8.68065 25.0004 13.4892C25.926 16.0274 26.3555 18.7175 26.6517 21.3987C27.1079 17.4447 27.2322 12.5662 29.4299 9.12278Z" fill="#F6F2E8"/>
<path d="M69.9707 28.5743C69.9708 28.6222 70.1735 29.0326 70.2239 29.1056L70.6815 29.6104H63.0058C63.2827 29.265 63.6604 28.9881 63.7196 28.5058V3.79469C63.6782 3.22749 63.539 2.9103 63.1495 2.50835C63.0474 2.40268 62.8844 2.44886 62.9348 2.2628L69.9707 0.0490723V28.5743Z" fill="#F6F2E8"/>
<path d="M59.4531 28.4298L59.4557 28.4524C59.4806 28.587 59.6812 29.029 59.7493 29.1309L60.1639 29.6074H52.4882C52.774 29.2352 53.2243 28.9747 53.2021 28.4328V3.72171C53.1576 3.11879 53.0437 2.91777 52.632 2.5069C52.5268 2.40269 52.3683 2.44888 52.4172 2.2628L59.4531 0.0490723V28.4298Z" fill="#F6F2E8"/>
<path d="M83.2621 12.6852H90.227V17.2913C90.2269 17.3317 89.9427 17.802 89.8746 17.866C89.7946 17.9435 89.3413 18.1846 89.2673 18.1846H83.2621V22.7906C83.2621 22.8456 83.0874 23.1346 83.0371 23.2075C82.5884 23.8462 81.6613 23.9443 81.0941 23.3965C80.9949 23.3012 80.703 22.8264 80.703 22.7192V18.1846H74.6978C74.3646 18.1845 73.7383 17.4953 73.7383 17.1499V12.6868H80.703V7.18891H83.2621V12.6852Z" fill="#F6F2E8"/>
</svg>
