<svg width="133" height="68" viewBox="0 0 133 68" fill="none" xmlns="http://www.w3.org/2000/svg">
<path fill-rule="evenodd" clip-rule="evenodd" d="M90.1105 58.0803C91.2388 58.0803 92.0131 58.5892 92.3892 58.8989L92.4112 58.3899C92.4334 58.2572 92.4556 58.1909 92.6104 58.1909H93.0972C93.252 58.1909 93.2962 58.2572 93.2962 58.3899V65.8236C93.2962 66.8634 92.6325 67.5493 90.7962 67.5493H88.982C88.8494 67.5492 88.7831 67.505 88.7831 67.3723V66.9741C88.7831 66.8414 88.8494 66.797 88.982 66.797H90.7962C91.9909 66.797 92.3671 66.3767 92.3672 65.7573V64.1421C91.9689 64.4076 91.2388 64.8944 90.1105 64.8944C88.8273 64.8944 88.252 64.2085 88.252 63.1908V59.7839C88.252 58.7662 88.8273 58.0803 90.1105 58.0803ZM90.3538 58.8989C89.5131 58.921 89.1812 59.3634 89.1812 59.9165V63.0359C89.1812 63.589 89.491 64.0315 90.3538 64.0315C91.3493 64.0315 92.0574 63.5006 92.3672 63.2794V59.651C92.0574 59.4076 91.3272 58.8989 90.3538 58.8989Z" fill="#F6F2E8"/>
<path fill-rule="evenodd" clip-rule="evenodd" d="M19.0928 58.0803C20.9512 58.0803 21.5485 58.7661 21.5485 59.8059V61.4432C21.5484 61.5537 21.5042 61.6201 21.3715 61.6201H17.5662V63.1024C17.5662 63.7219 17.8981 64.1421 19.1148 64.1421C20.3537 64.1421 20.6635 63.7219 20.6635 63.1024V62.8812C20.6635 62.7485 20.7078 62.7041 20.8404 62.704H21.3272C21.46 62.704 21.5264 62.7485 21.5264 62.8812V63.1688C21.5264 64.2086 20.9289 64.8944 19.0705 64.8944C17.2343 64.8944 16.6369 64.2086 16.6369 63.1688V59.8059C16.6369 58.7661 17.2565 58.0803 19.0928 58.0803ZM19.1148 58.8103C17.9202 58.8103 17.5662 59.2529 17.5662 59.8502V60.9121H20.6635V59.8502C20.6635 59.2528 20.2874 58.8103 19.1148 58.8103Z" fill="#F6F2E8"/>
<path fill-rule="evenodd" clip-rule="evenodd" d="M35.4422 58.0803C37.2785 58.0803 37.9644 58.7661 37.9644 59.8059V63.1688C37.9644 64.2086 37.2785 64.8944 35.4422 64.8944C33.5839 64.8944 32.9202 64.1864 32.9202 63.1688V59.8059C32.9202 58.7661 33.606 58.0803 35.4422 58.0803ZM35.4202 58.8324C34.2476 58.8324 33.8272 59.2307 33.8272 59.8722V63.1024C33.8273 63.7219 34.2477 64.1421 35.4202 64.1421C36.6148 64.12 37.0351 63.7219 37.0352 63.1024V59.8722C37.0352 59.2528 36.6148 58.8324 35.4202 58.8324Z" fill="#F6F2E8"/>
<path fill-rule="evenodd" clip-rule="evenodd" d="M67.5662 55.4474C67.721 55.4474 67.7654 55.5139 67.7654 55.6466V64.5846C67.7654 64.7173 67.721 64.7838 67.5662 64.7838H67.0794C66.9467 64.7837 66.9024 64.7173 66.9024 64.5846L66.8804 64.098C66.4822 64.4077 65.7299 64.8944 64.6017 64.8944C63.3185 64.8944 62.7432 64.2085 62.7432 63.1908V59.7839C62.7432 58.7662 63.3185 58.0803 64.6017 58.0803C65.7078 58.0803 66.4599 58.5669 66.8581 58.8767V55.6466C66.8581 55.5139 66.9026 55.4474 67.0353 55.4474H67.5662ZM64.8229 58.8989C63.9822 58.921 63.6502 59.3634 63.6502 59.9165V63.0359C63.6502 63.589 63.9822 64.0315 64.8229 64.0315C65.8184 64.0314 66.5264 63.5006 66.8361 63.2794V59.651C66.5264 59.4076 65.7963 58.8989 64.8229 58.8989Z" fill="#F6F2E8"/>
<path fill-rule="evenodd" clip-rule="evenodd" d="M72.8539 58.0803C74.7122 58.0803 75.2875 58.7661 75.2875 59.8059V61.4432C75.2875 61.5537 75.2432 61.6201 75.1105 61.6201H71.3272V63.1024C71.3272 63.7219 71.6592 64.1421 72.8759 64.1421C74.1148 64.1421 74.4245 63.7219 74.4246 63.1024V62.8812C74.4246 62.7485 74.4688 62.7041 74.6015 62.704H75.0883C75.221 62.704 75.2875 62.7485 75.2875 62.8812V63.1688C75.2875 64.2086 74.69 64.8944 72.8316 64.8944C70.9954 64.8944 70.398 64.2086 70.398 63.1688V59.8059C70.398 58.7661 71.0176 58.0803 72.8539 58.0803ZM72.8759 58.8103C71.6591 58.8103 71.3272 59.2529 71.3272 59.8502V60.9121H74.4246V59.8502C74.4246 59.2528 74.0485 58.8103 72.8759 58.8103Z" fill="#F6F2E8"/>
<path d="M47.8981 58.058C49.6016 58.058 50.2211 58.7882 50.2212 59.5847V59.9828C50.2212 60.0935 50.1767 60.1598 50.044 60.1598H49.5574C49.4468 60.1598 49.3803 60.0935 49.3803 59.9828V59.5847C49.3803 59.0537 48.8937 58.766 47.8981 58.766C46.9026 58.766 46.4378 59.0758 46.4378 59.5847V59.9386C46.4378 60.3589 46.8362 60.6024 47.1238 60.6688L49.1813 61.3325C49.8449 61.5538 50.3317 61.974 50.3318 62.5934V63.3457C50.3318 64.1422 49.6016 64.8501 47.8981 64.8501C46.1725 64.8501 45.4866 64.1422 45.4866 63.3457V62.9918C45.4866 62.8812 45.5308 62.8147 45.6635 62.8147H46.1503C46.283 62.8147 46.3272 62.8812 46.3272 62.9918V63.3237C46.3273 63.8546 46.8584 64.1643 47.8981 64.1643C48.9157 64.1643 49.4688 63.8546 49.4689 63.3237V62.8369C49.4689 62.4387 49.137 62.2395 48.6725 62.0846L46.6148 61.3989C46.1502 61.244 45.5751 60.7793 45.5751 60.0935V59.5847C45.5751 58.7882 46.1725 58.058 47.8981 58.058Z" fill="#F6F2E8"/>
<path d="M79.9112 58.058C81.6148 58.058 82.2343 58.7882 82.2343 59.5847V59.9828C82.2343 60.0935 82.19 60.1598 82.0573 60.1598H81.5705C81.4379 60.1598 81.3936 60.0934 81.3936 59.9828V59.5847C81.3936 59.0537 80.9068 58.766 79.9112 58.766C78.9157 58.7661 78.4512 59.0758 78.4512 59.5847V59.9386C78.4512 60.3589 78.8493 60.6024 79.1369 60.6688L81.1946 61.3325C81.8582 61.5538 82.3448 61.974 82.3449 62.5934V63.3457C82.3449 64.1422 81.6148 64.8501 79.9112 64.8501C78.1856 64.8501 77.4999 64.1422 77.4999 63.3457V62.9918C77.4999 62.8812 77.5441 62.8147 77.6768 62.8147H78.1636C78.2963 62.8147 78.3405 62.8812 78.3405 62.9918V63.3237C78.3406 63.8546 78.8715 64.1643 79.9112 64.1643C80.9289 64.1643 81.4821 63.8546 81.4822 63.3237V62.8369C81.4822 62.4387 81.1502 62.2395 80.6856 62.0846L78.6281 61.3989C78.1635 61.244 77.5882 60.7793 77.5882 60.0935V59.5847C77.5882 58.7882 78.1856 58.058 79.9112 58.058Z" fill="#F6F2E8"/>
<path d="M12.6105 56.5979C12.7432 56.598 12.7875 56.6644 12.7875 56.7971V58.2129H14.3139C14.4466 58.2129 14.5131 58.2572 14.5131 58.3899V58.766C14.5131 58.8988 14.4466 58.9652 14.3139 58.9652H12.8095V62.9696C12.8095 63.589 13.1635 64.0094 14.3582 64.0094H14.5794C14.7122 64.0094 14.7786 64.0538 14.7786 64.2086V64.6068C14.7786 64.7617 14.7122 64.8058 14.5794 64.8058H14.2255C12.3892 64.8058 11.8582 64.1643 11.8582 63.0802V58.9873H11.0619C10.9291 58.9873 10.8847 58.921 10.8847 58.7883V58.4564C10.8847 58.3237 10.9291 58.2793 11.0619 58.2572L11.7476 58.2129H11.8582V56.7971C11.8582 56.6644 11.9247 56.5979 12.0574 56.5979H12.6105Z" fill="#F6F2E8"/>
<path d="M27.168 58.0803C27.3007 58.0803 27.3892 58.1466 27.3892 58.2793V58.7217C27.3892 58.8545 27.3007 58.8988 27.168 58.9209C26.1724 58.9431 25.3095 59.5404 24.9777 59.8059V64.5846C24.9777 64.7173 24.9335 64.7838 24.8007 64.7838H24.2697C24.1149 64.7837 24.0707 64.7173 24.0707 64.5846V58.3899C24.0707 58.2572 24.1149 58.1909 24.2697 58.1909H24.7564C24.9113 58.1909 24.9335 58.2572 24.9556 58.3899L24.9999 59.0536C25.3539 58.6775 26.1725 58.0803 27.168 58.0803Z" fill="#F6F2E8"/>
<path d="M43.6946 58.0803C43.8273 58.0803 43.9158 58.1466 43.9158 58.2793V58.7217C43.9158 58.8545 43.8273 58.8988 43.6946 58.9209C42.699 58.9431 41.8361 59.5404 41.5043 59.8059V64.5846C41.5043 64.7173 41.46 64.7838 41.3273 64.7838H40.7962C40.6414 64.7838 40.5973 64.7173 40.5973 64.5846V58.3899C40.5973 58.2572 40.6414 58.1909 40.7962 58.1909H41.283C41.4379 58.1909 41.4601 58.2572 41.4822 58.3899L41.5263 59.0536C41.8803 58.6775 42.699 58.0803 43.6946 58.0803Z" fill="#F6F2E8"/>
<path d="M0.862614 58.1686C0.995356 58.1686 1.03956 58.2351 1.03956 58.3678V64.5625C1.03956 64.6953 0.995357 64.7617 0.862614 64.7617H0.33177C0.176903 64.7617 0.132568 64.6953 0.132568 64.5625V58.3678C0.132569 58.2351 0.176904 58.1686 0.33177 58.1686H0.862614Z" fill="#F6F2E8"/>
<path d="M7.01301 58.058C8.25195 58.058 8.84947 58.744 8.84947 59.6953V64.5625C8.84947 64.6953 8.80505 64.7617 8.67231 64.7617H8.14146C8.00872 64.7617 7.94226 64.6953 7.94226 64.5625V59.8945C7.94226 59.2971 7.63257 58.8767 6.76974 58.8767C5.7742 58.8767 5.0663 59.3856 4.75655 59.629V64.5625C4.75655 64.6953 4.71213 64.7617 4.57938 64.7617H4.04854C3.89367 64.7617 3.84934 64.6953 3.84934 64.5625V58.3678C3.84934 58.2351 3.89367 58.1686 4.04854 58.1686H4.51306C4.66792 58.1686 4.69013 58.2351 4.71226 58.3678L4.7343 58.8767C5.11039 58.5448 5.88474 58.058 7.01301 58.058Z" fill="#F6F2E8"/>
<path d="M30.0662 58.1686C30.221 58.1686 30.2654 58.2351 30.2654 58.3678V64.5625C30.2654 64.6952 30.2211 64.7617 30.0884 64.7617H29.5353C29.3804 64.7617 29.3361 64.6953 29.3361 64.5625V58.3678C29.3361 58.2351 29.3804 58.1686 29.5353 58.1686H30.0662Z" fill="#F6F2E8"/>
<path d="M85.4422 58.1686C85.5528 58.1686 85.6194 58.2351 85.6194 58.3678V64.5625C85.6194 64.6953 85.575 64.7617 85.4422 64.7617H84.9114C84.7565 64.7617 84.7122 64.6953 84.7122 64.5625V58.3678C84.7122 58.2351 84.7565 58.1686 84.9114 58.1686H85.4422Z" fill="#F6F2E8"/>
<path d="M99.2697 58.058C100.509 58.058 101.106 58.744 101.106 59.6953V64.5625C101.106 64.6953 101.062 64.7617 100.929 64.7617H100.398C100.265 64.7617 100.199 64.6953 100.199 64.5625V59.8945C100.199 59.2971 99.8671 58.8767 99.0264 58.8767C98.0308 58.8767 97.3229 59.3856 97.0132 59.629V64.5625C97.0132 64.6953 96.9688 64.7617 96.836 64.7617H96.3052C96.1503 64.7617 96.106 64.6953 96.106 64.5625V58.3678C96.106 58.2351 96.1503 58.1686 96.3052 58.1686H96.7697C96.9246 58.1686 96.9468 58.2351 96.9689 58.3678L96.9909 58.8767C97.367 58.5448 98.1414 58.058 99.2697 58.058Z" fill="#F6F2E8"/>
<path d="M56.7254 58.4564C56.8582 58.4564 56.9024 58.5228 56.9024 58.6777V60.8901H59.1813C59.314 60.8901 59.3803 60.9342 59.3803 61.089V61.4872C59.3803 61.6199 59.314 61.6864 59.1813 61.6864H56.9246V63.8988C56.9246 64.0315 56.8804 64.0757 56.7477 64.0758H56.3493C56.2166 64.0757 56.1503 64.0315 56.1503 63.8988V61.6864H53.9379C53.7831 61.6864 53.7387 61.62 53.7387 61.4872V61.089C53.7387 60.9342 53.7831 60.8901 53.9379 60.8901H56.1503V58.6777C56.1503 58.5228 56.1945 58.4564 56.3273 58.4564H56.7254Z" fill="#F6F2E8"/>
<path fill-rule="evenodd" clip-rule="evenodd" d="M102.633 58.744C102.743 58.744 102.81 58.7441 102.876 58.7662C102.965 58.8105 103.009 58.8769 103.009 58.9875C103.009 59.0759 102.987 59.1202 102.92 59.1644C102.898 59.1866 102.854 59.2087 102.787 59.2087C102.854 59.2087 102.898 59.2529 102.942 59.2971C102.964 59.3413 102.987 59.3857 102.987 59.43V59.6069H102.854V59.5183C102.854 59.4078 102.832 59.3415 102.765 59.3193C102.743 59.2972 102.677 59.2971 102.588 59.2971H102.478V59.629H102.323V58.744H102.633ZM102.478 59.1644H102.61C102.677 59.1644 102.721 59.1645 102.765 59.1424C102.832 59.1203 102.854 59.0759 102.854 59.0095C102.854 58.9432 102.832 58.899 102.787 58.8769C102.743 58.8548 102.677 58.8546 102.61 58.8546H102.478V59.1644Z" fill="#F6F2E8"/>
<path fill-rule="evenodd" clip-rule="evenodd" d="M102.655 58.3901C102.876 58.3901 103.053 58.4565 103.208 58.6113C103.363 58.7662 103.451 58.9432 103.451 59.1644C103.451 59.3857 103.363 59.5627 103.208 59.7175C103.053 59.8724 102.876 59.9608 102.655 59.9608C102.434 59.9608 102.257 59.8724 102.102 59.7175C101.947 59.5627 101.88 59.3857 101.88 59.1644C101.88 58.9432 101.947 58.7662 102.102 58.6113C102.257 58.4565 102.434 58.3901 102.655 58.3901ZM102.655 58.4787C102.478 58.4787 102.301 58.5449 102.168 58.6777C102.035 58.8104 101.969 58.9653 101.969 59.1644C101.969 59.3635 102.035 59.5185 102.168 59.6512C102.301 59.7839 102.456 59.8502 102.655 59.8502C102.854 59.8502 103.009 59.7839 103.142 59.6512C103.274 59.5185 103.341 59.3635 103.341 59.1644C103.341 58.9653 103.274 58.8104 103.142 58.6777C103.009 58.567 102.832 58.4787 102.655 58.4787Z" fill="#F6F2E8"/>
<path d="M0.862614 55.4474C0.995357 55.4253 1.03956 55.4918 1.03956 55.6466V56.8855C1.03956 57.0182 0.995357 57.0847 0.862614 57.0847H0.33177C0.176903 57.0847 0.132568 57.0182 0.132568 56.8855V55.6466C0.132568 55.5139 0.176903 55.4474 0.33177 55.4474H0.862614Z" fill="#F6F2E8"/>
<path d="M30.0662 55.4474C30.221 55.4253 30.2654 55.4918 30.2654 55.6466V56.8855C30.2654 57.0182 30.2211 57.0847 30.0884 57.0847H29.5353C29.3804 57.0847 29.3361 57.0182 29.3361 56.8855V55.6466C29.3361 55.5139 29.3804 55.4474 29.5353 55.4474H30.0662Z" fill="#F6F2E8"/>
<path d="M85.4422 55.4474C85.5528 55.4253 85.6194 55.4918 85.6194 55.6466V56.8855C85.6194 57.0182 85.575 57.0847 85.4422 57.0847H84.9114C84.7565 57.0847 84.7122 57.0182 84.7122 56.8855V55.6466C84.7122 55.5139 84.7565 55.4474 84.9114 55.4474H85.4422Z" fill="#F6F2E8"/>
<path d="M129.646 46.1113C131.46 46.1113 132.876 47.4386 132.876 49.1421C132.876 50.7793 131.46 52.1732 129.646 52.1732C127.965 52.1732 126.482 50.7793 126.482 49.1421C126.482 47.4386 127.965 46.1113 129.646 46.1113Z" fill="#F6F2E8"/>
<path d="M53.1415 19.452C53.3185 19.4521 53.3185 19.6069 53.3185 19.6733V50.5139C53.3185 50.6687 53.4955 50.7351 53.8936 50.7351H59.0927C59.2697 50.7572 59.2698 51.3544 59.115 51.3545H47.4114C47.2344 51.3545 47.1681 51.2881 47.1681 51.1333V46.1997C45.6637 50.4696 41.4822 52.0405 37.6548 52.0405C29.2256 52.0405 23.96 48.0802 23.96 40.0713V20.3811C23.96 20.2262 23.783 20.0715 23.4512 20.0715H18.8495C18.6725 20.0715 18.6725 19.4741 18.8495 19.4741H29.8451C30.0221 19.4741 30.0884 19.629 30.0884 19.6953V43.8104C30.0884 49.12 34.8007 51.4431 37.6326 51.4431C42.9865 51.4431 45.8184 48.8325 47.1458 44.8502V20.359C47.1458 20.2042 46.9689 20.0492 46.5707 20.0492H42.0573C41.8141 20.0491 41.8141 19.4522 42.0573 19.452H53.1415Z" fill="#F6F2E8"/>
<path fill-rule="evenodd" clip-rule="evenodd" d="M113.119 18.7883C122.433 18.7883 126.261 27.9255 126.261 33.3901C126.261 33.5449 126.195 33.6113 126.04 33.6113H104.425C104.358 34.2087 104.358 34.8061 104.358 35.4919C104.358 44.2529 105.177 47.7042 107.566 49.7838C109.137 51.067 111.15 51.5094 113.097 51.5094C118.407 51.5094 122.522 48.6555 125.155 44.629C125.221 44.5626 125.597 44.7837 125.531 44.9386C122.677 49.2085 118.341 52.0405 113.119 52.0405C104.447 52.0405 98.0088 44.629 98.0088 35.4919C98.0088 26.2883 104.447 18.7884 113.119 18.7883ZM113.075 19.3855C111.128 19.3855 109.115 19.7618 107.544 21.1113C105.376 22.9919 104.558 26.6424 104.403 33.0139H120.111C119.956 26.6423 119.358 22.9919 117.5 21.1113C116.305 19.7618 114.734 19.3855 113.075 19.3855Z" fill="#F6F2E8"/>
<path d="M11.7699 0.336914C11.9468 0.336925 11.9468 0.403299 11.9468 0.558153V50.4475C11.9468 50.6688 12.1238 50.7573 12.5219 50.7574H16.8141C16.9678 50.7574 16.7946 51.3457 16.792 51.3545H0.376061C0.132698 51.3545 0.132698 50.7574 0.376061 50.7574H4.97779C5.30965 50.7574 5.55292 50.6909 5.55292 50.4475V1.24391C5.55286 1.02273 5.3096 0.934302 4.97779 0.934302H0.376061C0.132698 0.934302 0.132698 0.336914 0.376061 0.336914H11.7699Z" fill="#F6F2E8"/>
<path d="M81.9469 32.1067L89.3804 23.1909C91.8139 20.2707 91.6371 20.0492 91.1283 20.0492H85.5308C85.3539 20.049 85.3539 19.4522 85.5308 19.452H97.8981C98.0751 19.452 98.0751 20.0492 97.8981 20.0492H93.3848C92.8096 20.0492 92.3892 20.3592 90.1327 23.1909L82.3671 32.5492L95.5751 50.5139C95.6636 50.6687 95.907 50.7351 96.2389 50.7351H100.885C101.04 50.7572 101.04 51.3543 100.863 51.3545H89.0706L78.8716 37.4165L70.4425 47.682C68.009 50.6022 68.0972 50.7573 68.606 50.7574H73.8051C73.9821 50.7574 73.9821 51.3545 73.8051 51.3545H61.7919C61.615 51.3544 61.6593 50.7574 61.8142 50.7574H66.2389C66.8141 50.7573 67.3231 50.5359 69.6681 47.682L78.4291 36.974L66.261 20.359C66.084 20.1378 65.8405 20.0492 65.5087 20.0492H60.9512C60.7742 20.0492 60.7742 19.452 60.9512 19.452H72.5883L81.9469 32.1067Z" fill="#F6F2E8"/>
</svg>
