<svg width="156" height="63" viewBox="0 0 156 63" fill="none" xmlns="http://www.w3.org/2000/svg">
<path fill-rule="evenodd" clip-rule="evenodd" d="M23.8931 0.89502C28.2486 0.89502 31.3449 2.22168 33.4311 3.86457C37.2856 6.90042 38.0555 12.1181 38.3679 15.982C44.2566 10.8594 58.2079 9.71646 60.5413 25.0464C63.0643 13.3689 71.671 12.4867 73.6889 12.4768C77.3046 12.4631 83.4838 14.6518 85.4938 20.5591V13.2731H98.1507V17.9588C99.0834 14.4205 102.206 12.5002 105.375 12.481C108.426 12.4624 114.681 15.8556 116.285 28.7646V11.5734C116.276 9.09274 114.759 7.81258 112.278 7.82683L112.268 0.970476H127.004V28.7759C128.349 16.4571 135.218 12.5164 141.005 12.5164C146.883 12.5164 151.046 15.7918 153.181 19.9812C155.914 25.3466 155.718 31.0128 155.555 34.6866L137.627 34.6919C137.565 35.3967 137.632 36.578 137.687 37.6695C137.833 40.7158 138.837 43.4778 141.223 43.4647C143.169 43.474 144.194 41.6268 144.589 39.3012H155.236C153.896 55.5096 131.483 55.6381 129.52 42.7882V51.1575H114.067V42.6962C112.719 50.9643 107.987 52.1086 105.911 52.1036C104.175 52.0942 99.9053 50.665 98.3342 46.3021L98.4814 51.051C98.5137 53.9975 100.393 55.863 102.394 56.1344V62.987L84.3614 62.9913V56.1349C85.8756 56.0882 88.3017 54.6063 88.3285 51.2977V38.8779C87.775 42.0031 85.4616 52.0998 74.3675 52.0999C63.3774 52.0999 60.8907 41.4391 60.4199 39.8711C58.3681 51.4917 50.6435 52.1321 47.2498 52.0833C41.1608 52.0077 37.5127 47.8232 37.418 47.725C33.7519 43.9981 33.0455 38.3616 33.1946 32.2832C33.1946 31.0573 33.5088 28.6817 33.619 27.514C29.6739 31.7489 26.0215 31.2231 21.6808 31.3847L18.0402 31.3783V38.3224C18.0353 41.1165 19.0638 42.7882 22.1817 42.8113V51.1618H0.769775V42.9825C3.88763 42.9589 4.95525 41.1395 4.95091 38.3427V13.5797C4.9509 12.9915 4.80691 9.15902 0.783689 9.12778V0.89502H23.8931ZM74.3632 21.1655C71.6529 21.1309 70.4647 26.1753 70.4646 32.3544C70.4646 38.5352 71.5761 43.5066 74.3632 43.546C77.2275 43.5842 78.2629 38.5351 78.2629 32.3544C78.2628 26.176 77.1518 21.2035 74.3632 21.1655ZM43.9891 34.6919C43.9283 35.3967 43.9943 36.578 44.048 37.6695C44.1981 40.7158 45.2004 43.4778 47.5885 43.4647C49.5328 43.474 50.5589 41.6493 50.9589 39.3242L60.2925 39.3183C59.8202 36.9891 59.7666 36.5013 59.7145 34.6866L43.9891 34.6919ZM102.048 20.8508C99.8344 20.7522 98.7024 22.636 98.8169 26.5213V37.9821C98.817 41.0864 99.5836 43.4481 101.762 43.4481C104.198 43.4479 105.65 40.1469 105.65 32.3903C105.65 23.8744 104.336 20.9494 102.048 20.8508ZM141.156 21.1708C138.769 21.1588 137.767 23.8549 137.613 26.9028C137.564 27.9372 137.544 27.9872 137.613 28.7577H144.7C144.768 27.9872 144.75 27.9378 144.7 26.9028C144.547 23.8549 143.544 21.1588 141.156 21.1708ZM47.5254 20.945C45.1368 20.9336 44.0573 23.855 43.9094 26.9012C43.8579 27.9361 43.837 27.9856 43.9094 28.7566H50.9921C51.0644 27.9856 51.0436 27.9361 50.9921 26.9012C50.8414 23.8533 49.9163 20.9313 47.5254 20.945ZM18.0782 10.4036V22.0249H21.082C23.8049 21.9493 24.7509 20.3097 24.751 16.1522C24.751 12.3683 23.4214 10.4036 21.082 10.4036H18.0782Z" fill="#F6F2E8"/>
</svg>
