<svg width="222" height="58" viewBox="0 0 222 58" fill="none" xmlns="http://www.w3.org/2000/svg">
<path fill-rule="evenodd" clip-rule="evenodd" d="M211.362 39.5255C218.645 38.8737 222.825 43.9829 221.041 51.0498C218.997 59.1474 205.975 58.9087 204.214 50.9045C203.011 45.4364 205.328 40.0667 211.362 39.5255ZM214.71 43.4833C213.462 42.4749 210.74 42.7628 209.93 44.2436C208.981 45.9803 208.959 51.3205 210.464 52.7717C211.453 53.7236 213.925 53.6474 214.909 52.7299H214.911C216.495 51.254 216.463 44.9026 214.71 43.4833Z" fill="#F6F2E8"/>
<path fill-rule="evenodd" clip-rule="evenodd" d="M160.038 39.4912C164.613 39.1813 169.452 40.2121 169.821 45.572C169.995 48.1228 169.661 50.8556 169.84 53.4237C170.013 53.9968 171.533 53.8688 172.03 53.8786V56.4614C170.529 57.0173 168.106 57.0741 166.748 56.1467C166.443 55.9377 165.706 54.9712 165.573 54.9733C165.036 55.1602 164.596 55.6374 164.072 55.9474C160.392 58.1095 154.627 56.8673 155.059 51.7313C155.455 47.0184 161.12 47.119 164.65 47.2396C164.579 46.6172 164.749 45.803 164.65 45.2102V45.2078C164.618 45.0159 164.257 44.3076 164.099 44.16C162.781 42.9227 157.901 43.7 156.164 44.0394L156.051 40.4309C156.191 40.0152 159.463 39.5305 160.038 39.4912ZM161.883 49.697C161.767 49.697 160.904 49.9627 160.751 50.0414C159.807 50.5285 159.787 52.5947 160.289 53.3819C160.896 54.3338 163.701 54.0188 164.65 53.6326V49.697H161.883Z" fill="#F6F2E8"/>
<path fill-rule="evenodd" clip-rule="evenodd" d="M189.371 53.5711C189.371 53.5834 189.543 53.7556 189.556 53.7556H191.401C191.413 53.7559 191.585 53.9278 191.585 53.9401V56.5844H184.882C184.506 56.5844 184.562 54.6781 184.575 54.3706C184.398 54.1713 183.559 55.4259 183.426 55.5563C181.148 57.7676 177.008 57.2142 174.986 54.9192C172.111 51.6575 172.367 43.3729 175.975 40.6646C177.704 39.3659 180.545 39.105 182.484 40.0446C183.168 40.3767 183.637 41.0557 184.331 41.2106V36.4755C184.331 36.446 183.93 36.0451 183.901 36.0451H182.117V33.3393H189.371V53.5711ZM184.27 43.914C183.5 43.2843 182.208 43.1194 181.232 43.2128L181.229 43.2155C180.08 43.3262 179.244 43.7247 178.772 44.8143C178.088 46.396 178.071 50.5162 178.828 52.0609C179.835 54.1148 182.87 53.768 184.307 52.4397L184.27 43.914Z" fill="#F6F2E8"/>
<path fill-rule="evenodd" clip-rule="evenodd" d="M132.432 34.8152C136.336 34.9794 140.416 34.5964 144.3 34.8103C149.048 35.0711 152.519 37.0882 151.968 42.3644C151.81 43.8624 150.836 45.4243 149.636 46.3049C149.311 46.5435 148.111 47.0553 148.064 47.1291C148.017 47.2028 148.034 47.3232 148.049 47.4118C148.118 47.7807 150.268 51.03 150.654 51.5812C151.443 52.7078 152.373 54.25 153.952 54.1246V56.9534H148.725C148.133 56.9533 146.723 55.2807 146.349 54.7789C144.859 52.7693 143.914 50.3758 142.453 48.3441H140.362C140.349 48.3446 140.178 48.5156 140.178 48.5286V53.8171C140.178 53.8392 140.462 54.1241 140.485 54.1246H142.391V56.9534H132.675V54.1246H134.459C134.601 54.1246 134.847 53.6401 134.773 53.4556C134.427 48.6221 135.209 43.2007 134.773 38.4386C134.756 38.259 134.658 37.6442 134.461 37.6439H132.432V34.8152ZM140.175 45.3923H143.926C144.482 45.3923 145.446 44.8956 145.835 44.4725C146.991 43.2229 146.922 39.506 145.383 38.5246C145.188 38.4015 144.214 38.0129 144.049 38.0129H140.175V45.3923Z" fill="#F6F2E8"/>
<path d="M200.686 53.8171C200.686 53.8393 200.972 54.1246 200.994 54.1246H202.9V56.9534H193.43V54.1246C193.974 54.0262 195.255 54.4321 195.395 53.6917L195.336 43.1785C195.302 43.1244 195.002 42.9325 194.967 42.9325H193.061V40.1037H200.686V53.8171Z" fill="#F6F2E8"/>
<path d="M97.7436 53.4482C97.7436 53.4605 97.9158 53.6326 97.9281 53.6326H99.9574V56.5844H90.6101V53.8171C90.6101 53.3744 92.5558 54.004 92.5756 53.1998L92.5165 36.1704C92.4894 36.1114 92.2926 35.9221 92.2729 35.9221H90.3666V32.9703H97.7436V53.4482Z" fill="#F6F2E8"/>
<path fill-rule="evenodd" clip-rule="evenodd" d="M28.9921 34.3232C32.9277 34.5028 37.0749 34.0847 40.9884 34.3184C45.9129 34.6111 49.2879 37.1717 48.4123 42.4898C47.4874 48.1129 41.3772 48.1251 36.8635 47.9751V53.3252C36.8635 53.3473 37.1488 53.6326 37.1709 53.6326H39.3233V56.4614H29.4226C29.4103 56.4614 29.2381 56.2892 29.2381 56.2769V53.6326H31.0214C31.0436 53.6326 31.238 53.4433 31.265 53.3843V37.4006C31.238 37.3416 31.0411 37.152 31.0214 37.152H28.9921V34.3232ZM36.8611 44.9003H39.5077C39.8127 44.9003 40.7301 44.7136 41.0696 44.6176C42.2479 44.2831 42.8606 43.4344 42.9983 42.2414C43.1557 40.8836 43.0794 38.8615 41.8225 38.0326C41.5765 37.8703 40.7427 37.521 40.4893 37.5209H36.8611V44.9003Z" fill="#F6F2E8"/>
<path d="M109.059 53.3252C109.059 53.3473 109.344 53.6326 109.366 53.6326H111.272V56.4614H101.987C101.974 56.4614 101.802 56.2892 101.802 56.2769V53.6326C102.134 53.6031 103.77 53.7852 103.77 53.3252V42.625C103.77 42.6127 103.598 42.4405 103.586 42.4405H101.556V39.6118H109.059V53.3252Z" fill="#F6F2E8"/>
<path fill-rule="evenodd" clip-rule="evenodd" d="M77.9422 41.2106L79.6273 39.7593C87.715 36.2591 90.4651 44.7381 88.7309 51.2C87.5478 55.6079 83.3021 57.3912 79.0885 55.9916L76.9582 54.6166L76.4639 56.0924H72.7742V35.8606C72.7742 35.8483 72.602 35.6761 72.5897 35.6761H70.6833V32.7243H77.9422V41.2106ZM83.9737 48.782C84.1262 46.0123 83.9048 42.4751 80.3751 42.8465V42.8439C79.8659 42.898 78.1172 43.3826 77.9669 43.8794L77.935 52.2257C78.0015 52.8947 79.4108 53.0818 79.9864 53.126C83.1299 53.367 83.8212 51.5517 83.9737 48.782Z" fill="#F6F2E8"/>
<path d="M112.374 48.9023C111.841 41.5377 116.61 38.1234 123.616 39.1369C123.933 39.1836 125.443 39.4567 125.522 39.6903L125.291 43.178C122.917 42.6811 119.035 41.9642 118.032 44.9568C117.429 46.7549 117.429 50.548 119.018 51.8517C120.644 53.1848 123.736 52.6536 125.539 51.9108C125.37 52.666 125.955 54.9068 125.552 55.4283C125.293 55.7603 123.143 56.2522 122.634 56.3235C117.437 57.0663 112.775 54.4368 112.374 48.9023Z" fill="#F6F2E8"/>
<path d="M56.9109 39.4888V50.4964C56.9109 50.7325 57.1912 51.6797 57.3461 51.906C58.1898 53.1162 61.4787 52.5847 62.6693 52.0141L62.6275 42.4429C62.6004 42.3839 62.4039 42.1949 62.3839 42.1946H60.3546V39.4888H67.857V53.0792C67.857 53.0915 68.0292 53.2637 68.0415 53.2637H70.0708V56.0924H63.3678C63.3457 56.0924 63.0604 55.8071 63.0604 55.785V53.9401C63.0605 53.9031 63.2301 53.7679 63.1833 53.6326C62.9128 53.399 61.8011 54.7519 61.5206 54.9807C59.1961 56.8871 55.0095 57.0837 52.9728 54.6805C50.7565 52.0633 52.1927 46.0222 51.7525 42.7408C51.7303 42.5785 51.5952 42.1922 51.4402 42.1922H49.5338V39.4864H56.9133L56.9109 39.4888Z" fill="#F6F2E8"/>
<path d="M125.293 43.1785L125.291 43.1809V43.178C125.292 43.1782 125.293 43.1783 125.293 43.1785Z" fill="#F6F2E8"/>
<path d="M200.317 33.8312V38.0129H195.398V33.8312H200.317Z" fill="#F6F2E8"/>
<path d="M108.69 37.5209H103.893V33.2163H108.69V37.5209Z" fill="#F6F2E8"/>
<path fill-rule="evenodd" clip-rule="evenodd" d="M17.308 16.3666H11.1585C9.65558 20.8558 11.9506 24.7766 16.3832 26.0853C16.7989 26.2082 18.2718 26.4223 18.4197 26.5109C18.769 26.7175 17.9278 27.8367 17.9155 28.1737C15.0376 27.8195 12.0072 27.854 9.14648 27.4211C5.40759 26.8529 2.47777 24.6808 1.01664 21.1608C0.765743 20.5582 0.212402 18.9887 0.212402 18.3984V0.869873H17.308V16.3666ZM12.8386 10.2589C10.5018 10.3303 10.8215 13.9339 13.2592 13.3608C15.045 12.9427 14.5654 10.2048 12.8386 10.2589Z" fill="#F6F2E8"/>
<path fill-rule="evenodd" clip-rule="evenodd" d="M146.571 21.2247C146.571 21.2469 146.856 21.5317 146.878 21.5322H148.784V24.361H142.082C141.703 24.3608 141.762 22.4522 141.774 22.1472C141.317 22.039 141.297 22.526 141.034 22.8212C137.922 26.2845 132.533 24.8209 130.892 20.6689C129.547 17.267 129.854 10.9993 132.86 8.49766C134.582 7.06367 137.477 6.72186 139.523 7.60983C140.283 7.93946 140.778 8.67481 141.528 8.86423V4.12911C141.528 4.08238 141.248 3.69865 141.221 3.69865H139.191V0.869873H146.571V21.2247ZM141.467 11.5676C140.234 10.6723 137.617 10.5295 136.481 11.6241C135.022 13.0311 135.064 18.5608 136.185 20.1695C137.113 21.4978 138.977 21.4165 140.365 20.9197C140.571 20.8458 141.43 20.4006 141.501 20.2752L141.467 11.5676Z" fill="#F6F2E8"/>
<path d="M76.5893 21.2247C76.5893 21.2469 76.8746 21.5322 76.8967 21.5322H78.8031V24.361H69.4558V21.5322C69.9995 21.4338 71.281 21.8397 71.4213 21.0993L71.3622 3.94463C71.3278 3.89051 71.0277 3.69865 70.9932 3.69865H69.2099V0.869873H76.5893V21.2247Z" fill="#F6F2E8"/>
<path fill-rule="evenodd" clip-rule="evenodd" d="M158.107 6.81015C165.194 6.55927 168.79 11.9389 166.953 18.6074C164.791 26.459 151.977 26.1713 150.174 18.236C148.826 12.3029 151.707 7.03645 158.107 6.81015ZM161.376 11.7053C160.245 9.54311 156.572 9.7841 155.697 12.0274C155.025 13.7492 154.993 18.7893 156.449 20.1349L156.452 20.1373C157.468 21.0769 159.9 21.0156 160.897 20.0563C162.311 18.6961 162.237 13.3485 161.376 11.7053Z" fill="#F6F2E8"/>
<path fill-rule="evenodd" clip-rule="evenodd" d="M87.6339 6.81039C93.6481 6.5964 97.2565 10.2811 96.8826 16.3051C96.4989 22.494 91.5917 25.1531 85.8087 24.061C76.7567 22.3514 76.9633 7.1892 87.6339 6.81039ZM91.4711 17.0407C91.6851 14.1848 91.6975 9.87537 87.7569 10.2517H87.7545C84.478 10.5641 84.6281 14.5317 84.8323 17.0407C85.0241 19.3971 85.9587 21.0354 88.5808 20.7919C90.7233 20.5926 91.3259 18.9569 91.4711 17.0407Z" fill="#F6F2E8"/>
<path d="M29.13 15.3063C27.8952 6.65281 32.6327 1.0322 41.4732 1.73321C42.1423 1.78732 43.9552 2.38259 44.2996 2.34816C44.5996 2.31865 44.8455 1.85406 44.9169 1.85379H47.6866V8.0033H43.9969C43.7927 7.50891 43.7609 5.80203 43.4338 5.55335C42.6737 4.98021 39.5644 5.1328 38.6125 5.38616C34.4063 6.50541 34.3768 13.1346 35.2992 16.5168C36.4504 20.7303 40.0836 21.3747 43.9258 20.44L44.3659 18.0885H47.9326V23.0081C40.6196 25.7335 30.4435 24.5182 29.13 15.3063Z" fill="#F6F2E8"/>
<path fill-rule="evenodd" clip-rule="evenodd" d="M113.359 7.71793C116.514 6.53231 121.343 6.29855 124.349 8.03021C126.555 9.3019 127.015 11.1837 127.146 13.5967C127.274 15.9704 127.023 18.4525 127.161 20.8385C127.337 21.3614 128.754 21.1098 129.229 21.1652V23.869C127.574 24.3634 125.436 24.4371 123.975 23.404C123.454 23.0375 123.257 22.5578 122.775 22.2651C121.606 23.2195 120.263 24.0855 118.713 24.238C114.992 24.5995 111.915 22.8825 112.394 18.7796C112.908 14.3864 118.647 14.4307 121.975 14.5242V12.6178C121.975 12.3645 121.471 11.5775 121.23 11.3954C119.752 10.2836 115.263 10.9624 113.489 11.4494L113.359 7.71793ZM121.973 16.9816C120.957 17.0234 118.138 16.8266 117.56 17.7957C117.159 18.4672 117.198 20.1078 117.629 20.7597C118.261 21.714 121.972 21.2395 121.973 20.8558V16.9816Z" fill="#F6F2E8"/>
<path fill-rule="evenodd" clip-rule="evenodd" d="M58.731 6.81015C65.2322 6.52974 68.8803 10.8959 67.948 17.2545C67.1781 22.4988 63.2349 24.6117 58.2047 24.2354C47.844 23.463 47.8046 7.28252 58.731 6.81015ZM62.0985 11.7322C61.4934 10.4974 60.2634 10.1506 58.9769 10.2539C57.9168 10.34 57.0019 10.7508 56.5198 11.7322C55.6859 13.4319 55.7105 18.3566 56.9109 19.8718C57.9932 21.2394 60.8711 21.0918 61.8845 19.6799C62.9963 18.1302 62.9275 13.4245 62.0985 11.7322Z" fill="#F6F2E8"/>
<path d="M106.601 8.93053C107.848 7.43254 109.418 6.88907 111.277 7.71552L111.15 11.693C109.366 11.6315 107.31 11.4938 105.758 12.5121L105.736 20.8582C105.704 21.0205 105.937 21.5322 106.045 21.5322H108.198V24.238H98.7275V21.5322C99.2293 21.4707 100.572 21.7708 100.695 21.1018L100.631 10.7115C100.604 10.6525 100.408 10.4631 100.388 10.4631H98.4815V7.63433H105.184C105.812 7.83361 105.271 10.2417 105.369 10.3401C105.418 10.3893 105.642 10.3499 105.743 10.2589C105.905 10.1113 106.338 9.24539 106.601 8.93053Z" fill="#F6F2E8"/>
<path d="M129.232 21.1656C129.231 21.1655 129.23 21.1653 129.229 21.1652V21.1632L129.232 21.1656Z" fill="#F6F2E8"/>
</svg>
