<svg width="222" height="46" viewBox="0 0 222 46" fill="none" xmlns="http://www.w3.org/2000/svg">
<path d="M22.3483 45.0494L26.3274 5.54741C26.4752 3.48342 26.9165 3.18887 27.6535 3.18887H28.0958V0.980237H21.6114V3.18887H22.0538C22.9385 3.18887 23.3798 3.77798 23.233 5.54741L20.8734 29.1308L18.2203 5.54741C17.9258 3.63123 18.3681 3.18887 19.3996 3.18887H19.5474V0.980237H10.5566V3.18887H10.999C11.8837 3.18887 11.8837 3.48342 12.0305 5.54741L12.7695 11.5905L10.5566 30.7524L8.19808 5.54741C7.90352 3.48342 8.34588 3.18887 9.22954 3.18887H9.37735V0.980237H0.23877V3.18887H0.681129C1.7126 3.18887 1.7126 3.48342 1.8604 5.54741L5.98733 45.0494H11.8826L14.2412 24.7093L16.4519 45.0494H22.3483ZM60.3754 19.1075C60.3754 16.3066 60.3754 15.4229 62.1438 15.4229C63.3231 15.4229 63.3231 15.8653 63.3231 18.2238V41.8061C63.3231 42.6908 63.0285 42.8376 62.584 42.8376H62.2895V45.0483H71.2803V42.8376H70.8379C70.2488 42.8376 70.0989 42.543 70.0989 41.6583V16.8967C70.0989 12.7698 69.2141 11.296 65.235 11.296C64.1543 11.1785 63.0662 11.4367 62.1535 12.0272C61.2408 12.6176 60.5592 13.5043 60.2234 14.5382C59.781 12.3274 58.6017 11.296 55.5063 11.296C53.001 11.296 51.6739 12.035 50.6424 14.5382V11.296L42.8299 11.8851V14.0958H43.1244C43.5668 14.0958 44.0091 14.5382 44.0091 15.7175V41.5116C44.0091 42.543 43.7146 42.8376 43.1244 42.8376H42.8299V45.0483H51.5261V42.8376H51.2315C50.7892 42.8376 50.6424 42.6898 50.6424 41.9529V19.1075C50.6424 16.3066 50.6424 15.4229 52.2641 15.4229C53.4433 15.4229 53.4433 15.8653 53.4433 18.2238V41.8061C53.4433 42.6908 53.1488 42.8376 52.7043 42.8376H52.262V45.0483H61.106V42.8376H60.9582C60.3691 42.8376 60.0735 42.543 60.0735 41.6583V19.1075H60.3754ZM122.576 45.0483H133.483V42.8376H132.744C131.859 42.8376 131.565 42.3952 131.565 40.479V23.3822H137.313V40.3323C137.313 42.2485 137.019 42.6908 136.134 42.6908H135.249V44.8995H146.009V42.6908H145.125C144.24 42.6908 143.945 42.2485 143.945 40.3323V5.54741C143.945 3.48342 144.093 3.18887 145.125 3.18887H146.009V0.980237H135.251V3.18887H136.136C137.021 3.18887 137.315 3.48342 137.315 5.54741V20.8759H131.42V5.54741C131.42 3.48342 131.715 3.18887 132.746 3.18887H133.485V0.980237H122.576V3.18887H123.461C124.345 3.18887 124.64 3.48342 124.64 5.54741V41.5116C124.64 42.3963 124.345 42.6908 123.461 42.6908H122.576V45.0483ZM202.61 45.0483H211.162V42.8376H210.861C210.272 42.8376 210.272 42.6898 210.272 41.9529V19.1075C210.272 16.3066 210.272 15.4229 212.04 15.4229C213.366 15.4229 213.366 15.8653 213.366 18.2238V41.8061C213.366 42.6908 213.072 42.8376 212.777 42.8376H212.339V45.0483H221.478V42.8376H221.035C220.446 42.8376 220.296 42.543 220.296 41.6583V16.8967C220.296 12.7698 219.265 11.296 215.285 11.296C212.632 11.296 211.158 12.035 210.126 14.5382V0.241211L201.872 0.980237V3.18887H202.757C203.346 3.18887 203.642 3.48342 203.642 4.8105V41.5116C203.642 42.543 203.494 42.8376 202.757 42.8376H202.463V45.0483H202.61ZM34.1389 45.4907C41.3613 45.4907 42.3928 39.4476 42.3928 28.3928C42.3928 17.338 41.3613 11.2949 34.1389 11.2949C26.9165 11.2949 25.8851 17.1902 25.8851 28.3928C25.8851 39.4476 26.9165 45.4907 34.1389 45.4907ZM87.7901 45.0483H96.4863V42.8376H96.0439C95.6016 42.8376 95.6016 42.6898 95.6016 41.9529V19.1075C95.6016 16.3066 95.6016 15.4229 97.37 15.4229C98.5492 15.4229 98.6971 15.8653 98.6971 18.2238V41.8061C98.6971 42.6908 98.4025 42.8376 97.958 42.8376H97.5157V45.0483H106.658V42.8376H106.364C105.775 42.8376 105.625 42.543 105.625 41.6583V16.8967C105.625 12.7698 104.74 11.296 100.613 11.296C98.1079 11.296 96.4863 12.035 95.6016 14.5382V11.296L87.1999 11.8851V14.0958H88.0846C88.527 14.0958 88.9694 14.5382 88.9694 15.7175V41.5116C88.9694 42.543 88.6748 42.8376 88.0846 42.8376H87.7901L87.7911 45.0494L87.7901 45.0483ZM166.499 45.6385C169.447 45.6385 170.626 44.1604 171.217 42.3963C171.806 45.0494 172.396 45.6385 175.786 45.6385C179.765 45.6385 180.207 43.2799 180.207 38.7107H178.291C178.291 42.1007 178.291 42.3952 177.552 42.3952C176.963 42.3952 176.963 42.1007 176.963 40.1845V18.2249C176.963 13.8034 175.485 11.4448 170.331 11.4448C166.204 11.4448 162.224 12.6241 162.372 17.1934C162.519 19.2574 163.256 21.3203 165.467 21.1725C167.383 21.0247 168.268 19.9933 168.268 18.3716C168.186 17.5937 167.949 16.8402 167.569 16.1564C167.189 15.4726 166.675 14.8726 166.057 14.3925C166.889 14.0205 167.803 13.8682 168.71 13.9501C170.188 13.9501 170.479 15.1294 170.479 17.1923V23.3833C162.962 25.8886 161.488 26.9211 161.488 36.3542C161.488 42.9865 163.256 45.6448 166.499 45.6448V45.6385ZM153.676 45.6385C159.277 45.6385 160.604 44.0169 160.309 34.7315H157.95C157.95 42.1017 157.655 42.5441 155.149 42.5441C152.054 42.5441 152.054 41.2181 152.054 28.6895V27.658H161.044C161.044 14.9827 159.566 11.4448 153.674 11.4448C148.22 11.4448 145.42 14.8349 145.42 28.6895C145.421 41.9539 147.632 45.6385 153.675 45.6385H153.676ZM79.9796 45.4907C85.4336 45.4907 86.9075 43.8691 86.7597 34.5837H84.4011C84.4011 41.9539 84.1066 42.3963 81.4535 42.3963C78.0635 42.3963 78.358 41.0703 78.358 28.5417V27.5102H87.0542C87.0542 14.8349 85.875 11.297 79.9807 11.297C74.5267 11.297 71.7268 14.687 71.7268 28.5417C71.7268 41.9497 73.9376 45.4917 79.9807 45.4917L79.9796 45.4907ZM180.65 45.0483H189.64V42.8376H188.901C188.312 42.8376 188.162 42.543 188.162 41.6583V0.241211L179.761 0.980237V3.18887H180.645C181.235 3.18887 181.385 3.48342 181.385 4.36814V41.8061C181.385 42.6908 181.385 42.8376 180.942 42.8376H180.5V45.0483H180.65ZM116.092 45.4907C120.219 45.4907 122.283 42.8376 122.283 38.7107C122.283 29.1297 113.731 23.6768 113.731 16.8967C113.731 14.8327 114.47 14.2436 115.942 14.2436C118.152 14.2436 118.447 15.1284 118.743 18.3706L119.037 21.466H121.545V11.5905H119.628C119.481 12.7698 119.186 13.2122 119.186 13.0686C118.601 12.4569 117.888 11.9814 117.098 11.6758C116.309 11.3702 115.461 11.242 114.617 11.3002C111.079 11.3002 107.837 12.9218 107.837 18.228C107.837 26.6297 116.388 32.9674 116.388 39.305C116.388 42.106 115.799 42.5473 113.735 42.5473C111.819 42.5473 111.23 41.6625 110.934 37.5356L110.786 34.7347H108.133V45.0526H110.344C110.492 43.8733 110.933 43.1364 111.229 43.5745C111.968 44.3135 112.849 45.4907 116.092 45.4907ZM191.119 38.1216C191.119 43.4278 191.858 45.4917 197.162 45.4917C200.846 45.4917 201.731 44.0137 201.731 39.891V34.2892H199.52V40.1845C199.52 42.1007 199.372 42.3952 198.635 42.3952C197.899 42.3952 197.751 42.1007 197.751 40.479V14.0958H201.878V11.5905H197.751V3.18887H195.392C193.771 10.7058 192.297 11.5905 190.086 11.5905H189.497V14.0958H190.975V38.1216H191.119ZM34.1389 42.543C32.5173 42.543 32.5173 41.6583 32.5173 28.396C32.5173 14.9879 32.5173 14.099 34.1389 14.099C35.617 14.099 35.617 14.9837 35.617 28.2461C35.617 41.6541 35.617 42.543 34.1389 42.543ZM107.099 13.0644C112.699 8.93743 113.879 5.69416 111.963 2.89431C111.079 1.27268 108.72 0.241211 107.1 1.71926C105.036 3.3409 105.622 6.28855 109.311 8.05377C108.571 8.79279 107.1 10.4123 105.773 11.5916L107.099 13.0644ZM169.299 41.3638C167.972 41.3638 167.972 39.8857 167.972 35.4685C167.972 27.3613 167.972 26.3299 170.625 24.856V38.7107C170.625 40.9214 170.331 41.3638 169.299 41.3638ZM78.3569 24.9996C78.5048 14.535 78.6515 13.9449 80.1253 13.9449C81.5992 13.9449 81.4514 14.534 81.4514 24.9996H78.3569ZM152.054 24.9996C152.201 14.535 152.348 13.9449 153.822 13.9449C155.296 13.9449 155.001 14.534 155.001 24.9996H152.054Z" fill="#F6F2E8"/>
</svg>
