<svg width="178" height="44" viewBox="0 0 178 44" fill="none" xmlns="http://www.w3.org/2000/svg">
<path d="M119.564 15.5138H112.495V9.60422H119.564V15.5138ZM168.066 34.1632H175.492C174.363 40.9042 168.601 43.3691 162.423 43.3691C157.819 43.3691 154.374 42.1218 152.027 39.0334V42.8345H140.295V38.974C138.543 41.6467 136.315 43.1315 132.81 43.1315C128.92 43.1315 125.92 41.6467 124.227 39.0928V42.8048H107.891V39.7164C106.376 41.9733 103.525 43.1612 100.02 43.1612C96.2183 43.1612 93.6639 42.3 91.0799 39.5382V42.8048H86.0604V39.8055C84.8129 41.5873 83.0605 43.1612 79.8528 43.1612C74.2689 43.1612 71.8334 40.1321 71.8334 34.0444V23.8585H66.5465V37.0437H69.8731V42.8048H59.0914V38.2613C57.6063 40.9043 54.5174 43.1315 50.8938 43.1315C46.3792 43.1315 42.9338 41.2012 42.9338 36.2419V23.7991H40.9735C40.0825 35.1728 32.3304 43.6066 20.6874 43.6066C8.48009 43.6066 0.371582 34.2523 0.371582 22.1658C0.371582 9.723 7.79695 0.279541 20.6874 0.279541C31.8849 0.279541 38.8053 8.20849 40.6171 17.8598H50.5077V32.619C50.5077 35.1728 51.2799 37.1031 54.1313 37.1031C57.4875 37.1031 59.0617 34.7274 59.0617 31.639V23.9773H54.9926V17.9489H66.5465C72.3977 17.9489 73.556 15.8405 73.556 11.4157H79.4963V17.9489H87.0108V20.8592C88.3177 19.1071 90.9908 17.8301 95.2084 17.8301C98.7132 17.8301 100.703 19.1665 102.099 21.1264V18.038H119.564V37.0437H123.544C122.801 34.8759 122.445 32.5893 122.474 30.2729C122.474 23.2052 126.395 18.0083 133.731 18.0083C136.375 17.9786 138.87 19.3149 140.325 21.5422V15.4841H135.899V9.57452H147.839V36.9546H151.225C150.364 35.1728 150.008 32.8862 150.008 30.4214C150.008 22.4925 155.77 17.5629 162.898 17.5629C170.531 17.5629 175.343 22.6113 175.343 30.659V31.6984H158.116C158.265 36.4498 160.166 38.0831 162.898 38.0831C165.957 38.1425 167.413 36.8655 168.066 34.1632ZM158.265 27.7784H167.383C167.175 24.6009 166.046 22.7597 162.958 22.7597C160.67 22.7597 158.799 24.1555 158.265 27.7784ZM29.3899 24.393C29.3899 18.5725 26.9247 6.57518 19.4993 6.57518C13.9155 6.57518 12.0146 14.029 12.0146 18.9586C12.0146 27.5112 15.7273 37.2219 21.8161 37.1625C27.5781 37.1625 29.3899 29.8869 29.3899 24.393ZM101.772 36.4498C101.772 31.7874 86.2386 36.3607 86.2386 25.0464C86.2386 24.6306 86.2386 24.2446 86.2683 23.8288H79.4666V35.0541C79.4666 36.5389 79.6448 38.3801 81.4863 38.3801C83.3278 38.3801 83.3575 36.8655 83.2387 34.1335H91.7036C93.3669 36.8061 94.9708 38.4395 98.5053 38.4395C99.9013 38.4098 101.772 38.0534 101.772 36.4498ZM112.703 23.8288H108.277V25.6106H101.832C100.703 23.2943 99.2775 22.5222 96.8123 22.5222C95.0599 22.5222 93.1293 22.7894 93.1293 24.2743C93.1293 28.699 108.841 24.3336 108.841 35.1134C108.841 35.7371 108.812 36.3607 108.693 36.9843H112.673L112.703 23.8288ZM140.325 29.0851C140.325 26.1748 138.751 23.2646 135.721 23.2646C131.86 23.2646 130.613 26.7984 130.613 30.0057C130.613 33.302 131.504 37.4001 135.573 37.4001C138.84 37.4001 140.325 34.4007 140.325 31.5499V29.0851ZM176.026 40.7261H175.432V42.3594H175.699V41.7061H175.996L176.383 42.3594H176.68L176.234 41.6764C176.442 41.617 176.59 41.4388 176.59 41.2309C176.59 40.9636 176.442 40.7261 176.026 40.7261ZM176.056 40.9636C176.234 40.9636 176.353 41.0527 176.353 41.2309C176.353 41.4388 176.204 41.4982 176.056 41.4982H175.729V40.9636H176.056ZM177.363 41.5576C177.363 40.8152 176.739 40.1915 175.996 40.1915C175.254 40.1915 174.63 40.8152 174.63 41.5576C174.63 42.3 175.254 42.9236 175.996 42.9236C176.739 42.9236 177.333 42.3 177.363 41.5576ZM177.214 41.5576C177.214 42.2406 176.68 42.7751 175.996 42.7751C175.313 42.7751 174.779 42.2406 174.779 41.5576C174.779 40.8746 175.313 40.34 175.996 40.34C176.65 40.34 177.214 40.8746 177.214 41.5576Z" fill="#F6F2E8"/>
</svg>
