<svg width="156" height="64" viewBox="0 0 156 64" fill="none" xmlns="http://www.w3.org/2000/svg">
<path d="M61.0213 1.7316H56.7233V62.0839C61.3031 62.0839 64.1215 61.8016 66.7989 59.1898C69.899 56.084 69.9695 46.5547 69.9695 46.5547H70.7445V63.0722H44.6046V62.1545H49.3252V1.66102H44.6046V0.813965H61.0213V1.7316Z" fill="#F6F2E8"/>
<path d="M103.014 1.7316H98.7165V62.0839C103.296 62.0839 106.115 61.8016 108.792 59.1898C111.892 56.084 111.963 46.5547 111.963 46.5547H112.738V63.0722H86.5977V62.1545H91.3184V1.66102H86.5977V0.813965H103.014V1.7316Z" fill="#F6F2E8"/>
<path d="M26.4263 17.2609H25.6513C25.6513 17.2609 25.5808 7.73155 22.4807 4.62569C19.8032 2.01396 17.619 1.7316 13.0392 1.7316V30.6019C13.0452 30.6023 16.2113 30.8122 17.7599 29.2608C20.226 26.8608 20.4374 23.7549 20.4374 19.4491H21.2829V42.7429H20.4374C20.4374 38.4371 20.1555 35.3313 17.7599 32.9313C16.2111 31.3796 13.0441 31.5898 13.0392 31.5902V62.0133C17.619 62.0133 20.4374 61.8016 23.1148 59.1193C26.2854 56.0134 26.2854 46.4841 26.2854 46.4841H27.0604V63.0016H0.92041V62.0839H5.64112V1.7316H0.92041V0.813965H26.4263V17.2609Z" fill="#F6F2E8"/>
<path d="M155.154 0.813965V17.2609H154.379C154.379 17.2609 154.308 7.73155 151.208 4.62569C148.53 2.01396 146.346 1.7316 141.766 1.7316V30.6019C141.773 30.6024 144.939 30.812 146.487 29.2608C148.953 26.8608 149.165 23.7549 149.165 19.4491H150.01V42.7429H149.165C149.165 38.4371 148.883 35.3313 146.487 32.9313C144.939 31.3798 141.772 31.5898 141.766 31.5902V62.0133C146.346 62.0133 149.165 61.8016 151.842 59.1193C155.013 56.0134 155.013 46.4841 155.013 46.4841H155.788V63.0016H129.648V62.0839H134.368V1.7316H129.648V0.813965H155.154Z" fill="#F6F2E8"/>
</svg>
