<svg width="178" height="46" viewBox="0 0 178 46" fill="none" xmlns="http://www.w3.org/2000/svg">
<path d="M101.28 15.2129C101.28 10.0298 101.37 5.20408 101.638 0.73584L87.9682 3.32742V4.57853L89.3083 4.75726C90.2911 4.84662 90.9165 5.20408 91.2739 5.74027C91.6313 6.36583 91.8993 7.25948 92.078 8.59995C92.2567 11.1915 92.4354 17.0896 92.346 26.3836C92.346 35.5881 92.2567 41.3969 92.078 43.631C96.9919 44.7034 100.834 45.1502 103.693 45.1502C109.053 45.1502 113.253 43.631 116.29 40.5032C119.328 37.4648 120.936 33.1753 120.936 27.9028C120.936 23.7026 119.775 20.2174 117.452 17.4471C115.129 14.6768 112.18 13.3363 108.696 13.3363C106.373 13.3363 103.961 13.9618 101.28 15.2129ZM101.549 42.7373C101.37 39.8777 101.191 31.2986 101.191 17.2683C101.995 17.0002 103.067 16.8215 104.408 16.8215C106.552 16.8215 108.249 17.8939 109.5 20.128C110.751 22.3621 111.376 25.0431 111.376 28.4389C111.376 32.6391 110.662 36.035 109.232 38.8946C107.803 41.665 106.016 43.0948 103.782 43.0948C103.067 42.9161 102.353 42.8267 101.549 42.7373ZM36.6845 1.62949H0.946777V3.41679L2.82301 3.59552C4.25252 3.86361 5.23531 4.3998 5.86072 5.20408C6.48613 6.09773 6.8435 7.52757 6.93285 9.4936C7.6476 19.145 7.6476 28.1709 6.93285 36.4818C6.75416 38.4478 6.39678 39.8777 5.86072 40.7713C5.23531 41.6649 4.25252 42.2011 2.82301 42.3799L0.946777 42.648V44.4353H23.9976V42.648L21.5853 42.4692C20.9967 42.42 20.4241 42.2521 19.902 41.9756C19.38 41.6992 18.9193 41.3199 18.5476 40.8607C17.9222 39.967 17.5648 38.5372 17.4755 36.5712C17.2074 32.9966 17.0288 28.8858 17.0288 24.3282L21.8534 24.4175C24.4443 24.5069 26.2312 26.4729 27.1247 30.405H28.9116V15.8385H27.1247C26.2312 19.6812 24.5337 21.6472 21.8534 21.7366L17.0288 21.8259C17.0288 13.7831 17.2074 8.06376 17.4755 4.57853H24.5337C29.537 4.57853 32.9321 7.79566 34.8976 14.2299L37.0419 13.6044L36.6845 1.62949ZM32.4853 29.1539C32.4853 33.8008 33.8255 37.6435 36.4165 40.6819C39.0075 43.7203 42.8493 45.1502 47.6739 45.1502C52.4985 45.1502 56.4296 43.631 59.2886 40.5032C62.1477 37.4648 63.4878 33.6221 63.4878 28.9751C63.4878 24.3282 62.1476 20.4855 59.5567 17.4471C56.9657 14.4087 53.1239 12.9788 48.2993 12.9788C43.4747 12.9788 39.5435 14.498 36.6845 17.6258C33.8255 20.6642 32.4853 24.5069 32.4853 29.1539ZM52.4091 18.9663C53.4812 21.5579 53.928 24.9537 53.928 29.0645C53.928 38.5372 51.9624 43.1842 48.1206 43.1842C46.155 43.1842 44.6362 41.8437 43.564 39.1627C42.4919 36.4818 42.0452 33.0859 42.0452 29.0645C42.0452 19.6812 44.0107 15.0342 47.8526 15.0342C49.8181 14.9449 51.337 16.2853 52.4091 18.9663ZM127.905 40.6819C130.853 43.631 134.606 45.1502 139.073 45.1502C141.843 45.1502 144.255 44.614 146.399 43.4522C148.544 42.3799 150.241 41.0394 151.403 39.4308L150.509 38.3584C148.544 39.8777 146.31 40.5926 143.719 40.5926C140.145 40.5926 137.376 39.4308 135.499 37.018C133.534 34.6051 132.64 31.5667 132.819 27.6347H151.939C151.939 23.3452 150.867 19.8599 148.633 17.0896C146.399 14.4087 143.272 13.0682 139.252 13.0682C134.249 13.0682 130.407 14.6768 127.637 17.8045C124.867 20.9323 123.527 24.775 123.527 29.3326C123.527 33.9796 124.957 37.7329 127.905 40.6819ZM134.517 18.2514C135.499 16.1066 136.75 15.0342 138.448 15.0342C141.128 15.0342 142.468 18.4301 142.468 25.3112L132.998 25.4899C133.087 22.809 133.534 20.3961 134.517 18.2514ZM175.972 14.6768C173.56 13.6044 170.522 12.9788 166.859 12.9788C163.107 12.9788 160.158 13.9618 157.925 15.8385C155.691 17.7152 154.53 20.0387 154.53 22.809C154.53 25.2218 155.244 27.0985 156.585 28.4389C157.925 29.7794 160.069 30.9412 162.839 31.9242C165.34 32.8178 167.127 33.7115 168.021 34.5158C168.914 35.4094 169.45 36.3924 169.45 37.7329C169.45 38.984 169.003 40.1457 168.021 41.0394C167.127 42.0224 165.876 42.4692 164.268 42.4692C160.337 42.4692 157.389 39.6096 155.334 33.8902L153.815 34.337L154.172 43.2735C157.389 44.5246 160.962 45.1502 164.894 45.1502C169.003 45.1502 172.131 44.2565 174.453 42.3799C176.776 40.5926 177.938 38.001 177.938 34.7839C177.938 32.6391 177.402 30.8518 176.24 29.5113C175.079 28.1709 173.203 27.0091 170.522 25.9367C167.574 24.8644 165.519 23.8813 164.447 22.9877C163.375 22.094 162.839 21.0217 162.839 19.6812C162.839 18.3407 163.196 17.2683 164 16.3747C164.804 15.481 165.787 15.1236 167.038 15.1236C170.612 15.1236 173.203 17.7152 174.811 22.809L176.33 22.3621L175.972 14.6768ZM90.0231 13.8725C88.7723 13.2469 87.4321 12.9788 85.9132 12.9788C84.3944 12.9788 82.8755 13.6044 81.178 14.8555C79.4805 16.1066 78.2296 17.8045 77.2468 20.128L77.3362 12.9788L63.7559 15.6598V16.9109L65.096 17.0002C66.7936 17.179 67.7763 18.5194 67.955 20.9323C68.4911 26.4729 68.4911 32.371 67.955 38.6265C67.7763 41.0394 66.7936 42.2905 65.096 42.5586L63.7559 42.7373V44.4353H82.6968V42.7373L80.2846 42.5586C78.587 42.3799 77.6042 41.0394 77.4255 38.6265C76.8895 33.4434 76.8001 27.9028 77.2468 22.1834C77.7829 21.2898 78.9444 20.7536 80.7313 20.5748C82.5182 20.3961 84.5731 20.9323 86.7173 22.1834L90.0231 13.8725Z" fill="#F6F2E8"/>
</svg>
