<svg width="134" height="86" viewBox="0 0 134 86" fill="none" xmlns="http://www.w3.org/2000/svg">
<path fill-rule="evenodd" clip-rule="evenodd" d="M69.3372 85.8602H45.8089V85.2342H54.6058C54.0232 83.614 44.8432 58.3917 44.8016 58.2774H17.8317C17.7947 58.3791 8.50569 83.8723 7.97651 85.2342H14.5442V85.8634H0.345215V85.2342H7.2901L38.3328 0.0227051L69.3372 85.8602ZM17.9901 57.6481V57.6513H44.5891L31.2901 21.1688L17.9901 57.6481Z" fill="#F6F2E8"/>
<path fill-rule="evenodd" clip-rule="evenodd" d="M89.7564 1.75764C114.676 1.75764 133.089 16.148 133.089 43.8885C133.088 71.9935 113.832 85.8634 90.022 85.8634H69.3871V2.38052H60.604V1.75764H89.7564ZM82.9836 2.4304V85.2904H89.4907C94.3601 85.2904 99.8628 84.6635 103.831 82.211C112.403 76.6859 117.639 64.4862 117.639 43.8885C117.639 22.1967 114.041 9.52247 103.565 4.62374C99.7047 2.79767 94.5188 2.43041 88.2741 2.4304H82.9836Z" fill="#F6F2E8"/>
</svg>
