<svg width="178" height="31" viewBox="0 0 178 31" fill="none" xmlns="http://www.w3.org/2000/svg">
<path fill-rule="evenodd" clip-rule="evenodd" d="M121.829 0.993929C130.691 0.99398 137.887 7.71089 137.887 15.9935C137.887 24.2762 130.691 30.9933 121.829 30.9934C112.967 30.9934 105.771 24.2762 105.771 15.9935C105.771 7.71086 112.967 0.993929 121.829 0.993929ZM121.829 10.0341C118.749 10.0341 116.249 12.7108 116.249 15.9935C116.249 19.3015 118.749 21.9532 121.829 21.9532C124.909 21.9531 127.409 19.2763 127.409 15.9935C127.409 12.6856 124.909 10.0342 121.829 10.0341Z" fill="#F6F2E8"/>
<path d="M10.1806 1.14534L19.1438 16.4986V1.14534H29.0915V30.7914H19.1438L10.1806 15.539V30.7914H0.283203V1.14534H10.1806Z" fill="#F6F2E8"/>
<path d="M50.4769 1.01908L53.8098 8.77152C54.1617 9.57594 54.3134 8.77861 54.3147 8.77152L57.0415 1.01908H69.0345L59.0868 17.9128V30.6651H48.8612V17.9128L38.6356 1.01908H50.4769Z" fill="#F6F2E8"/>
<path d="M89.107 1.01908V21.3722H98.1964V30.6651H79.0582V1.01908H89.107Z" fill="#F6F2E8"/>
<path d="M158.363 0.892822L167.326 16.2714V0.917976H177.274V30.564H167.326L158.363 15.3117V30.5389H148.466V0.892822H158.363Z" fill="#F6F2E8"/>
</svg>
