<svg width="178" height="64" viewBox="0 0 178 64" fill="none" xmlns="http://www.w3.org/2000/svg">
<path d="M31.8597 0.154297C49.4161 0.154297 63.6483 14.3866 63.6483 31.9429C63.6483 49.4993 49.4161 63.7316 31.8597 63.7316C14.3033 63.7316 0.0710449 49.4993 0.0710449 31.9429C0.0710561 14.3866 14.3033 0.154308 31.8597 0.154297Z" fill="#F6F2E8"/>
<path fill-rule="evenodd" clip-rule="evenodd" d="M98.2376 35.3197C101.039 34.2522 104.136 34.2522 106.938 35.3197C108.228 35.8408 109.402 36.6133 110.391 37.5925C111.378 38.5754 112.151 39.7506 112.664 41.0452C113.258 42.4205 113.581 43.8977 113.616 45.3954C113.656 47.3651 113.17 49.3101 112.207 51.029C111.286 52.6378 109.944 53.9649 108.324 54.8678C106.58 55.8331 104.608 56.3141 102.615 56.2601V56.2766C100.657 56.3138 98.7236 55.8352 97.0088 54.8895C95.4029 53.9744 94.0756 52.6401 93.1695 51.029C92.1992 49.3123 91.7054 47.3671 91.7395 45.3954C91.7182 43.9095 91.9802 42.433 92.5116 41.0452C93.025 39.7509 93.799 38.5758 94.7849 37.5925C95.7733 36.6129 96.9471 35.8403 98.2376 35.3197ZM102.602 39.1112C101.661 39.1112 100.741 39.3866 99.956 39.9035C99.1678 40.4841 98.5546 41.2704 98.1835 42.1763C97.7317 43.1827 97.5071 44.2765 97.5255 45.3794C97.5033 46.4827 97.7281 47.5769 98.1835 48.582C98.5648 49.4552 99.1777 50.2075 99.956 50.7571C100.743 51.2773 101.672 51.5396 102.615 51.5074V51.5292C103.551 51.5493 104.47 51.2796 105.247 50.7571C106.025 50.2075 106.638 49.4552 107.02 48.582C107.475 47.5769 107.7 46.4826 107.678 45.3794C107.696 44.2765 107.471 43.1827 107.02 42.1763C106.649 41.2704 106.035 40.4841 105.247 39.9035C104.462 39.3867 103.542 39.1113 102.602 39.1112Z" fill="#F6F2E8"/>
<path fill-rule="evenodd" clip-rule="evenodd" d="M125.095 34.8466C127.019 34.8056 128.921 35.2666 130.614 36.1842C132.177 37.053 133.473 38.3336 134.36 39.8871C135.247 41.5624 135.71 43.4293 135.71 45.3247C135.71 47.2203 135.247 49.087 134.36 50.7624C133.473 52.3159 132.177 53.597 130.614 54.4658C128.921 55.3834 127.019 55.8445 125.095 55.8034L116.808 55.8794V34.8466H125.095ZM125.095 39.4468H122.462V51.3391H125.095C125.775 51.3655 126.453 51.2316 127.072 50.9483C127.692 50.6649 128.236 50.24 128.662 49.7078C129.52 48.4326 129.978 46.93 129.978 45.3927C129.978 43.8555 129.52 42.3533 128.662 41.0781C128.236 40.5459 127.692 40.121 127.072 39.8377C126.453 39.5544 125.775 39.4205 125.095 39.4468Z" fill="#F6F2E8"/>
<path d="M90.5378 39.4792H84.3551V55.8687H78.6131V39.4792H72.3704V34.939H90.5378V39.4792Z" fill="#F6F2E8"/>
<path fill-rule="evenodd" clip-rule="evenodd" d="M158.542 55.8687H152.658L151.342 51.9424H143.463L142.147 55.8687H136.47L144.17 34.8625H150.847L158.542 55.8687ZM144.915 47.7122H149.934L147.46 40.3549L144.915 47.7122Z" fill="#F6F2E8"/>
<path d="M166.709 43.2968L170.57 34.9608H177.062L169.618 48.3266V55.8687H163.783V48.2937L156.334 34.8519H162.827L166.709 43.2968Z" fill="#F6F2E8"/>
<path d="M102.621 7.60349C104.177 7.60714 105.718 7.90793 107.161 8.48977C108.58 9.03975 109.893 9.83121 111.043 10.8284L108.183 14.4388C107.39 13.7807 106.512 13.232 105.573 12.8075C104.648 12.3515 103.631 12.1117 102.599 12.106C101.937 12.0631 101.276 12.2042 100.69 12.5139C100.457 12.6362 100.264 12.8238 100.134 13.0534C100.005 13.283 99.9449 13.545 99.9613 13.808C99.9685 14.0606 100.036 14.3078 100.158 14.5291C100.28 14.7503 100.453 14.9394 100.663 15.0803C101.411 15.5636 102.243 15.9029 103.115 16.0807L104.682 16.5103C106.489 16.8832 108.151 17.7668 109.472 19.0555C110.395 20.083 110.898 21.4205 110.88 22.8019C110.902 24.0473 110.538 25.2688 109.836 26.2982C109.088 27.3122 108.074 28.0994 106.906 28.5715C105.529 29.1298 104.051 29.3961 102.566 29.3542H102.571C100.911 29.353 99.2643 29.0528 97.7103 28.4679C96.1907 27.9121 94.7993 27.054 93.6209 25.945L96.3891 22.4488C97.2029 23.1887 98.1396 23.7812 99.1568 24.1996C100.238 24.6342 101.395 24.8504 102.561 24.8357C103.238 24.8731 103.913 24.7245 104.513 24.4061C104.736 24.2743 104.919 24.084 105.043 23.856C105.166 23.6281 105.226 23.371 105.214 23.112C105.21 22.8333 105.129 22.5609 104.98 22.3251C104.831 22.0892 104.621 21.8988 104.371 21.7744C103.443 21.2534 102.451 20.8567 101.419 20.5944L100.124 20.2519C98.5068 19.9014 97.0157 19.1151 95.8124 17.9786C95.3198 17.4629 94.9355 16.8537 94.6824 16.187C94.4293 15.5201 94.3124 14.8091 94.3388 14.0963C94.3484 12.8778 94.7277 11.6908 95.4264 10.6925C96.167 9.68232 97.1716 8.89549 98.33 8.41914C99.6875 7.85066 101.149 7.57282 102.621 7.60349Z" fill="#F6F2E8"/>
<path d="M78.0858 20.5886C78.0181 21.6428 78.3589 22.6831 79.0374 23.4928C79.3912 23.8672 79.8243 24.1576 80.305 24.3429C80.7857 24.5283 81.302 24.6039 81.8157 24.5638C82.3095 24.5941 82.8042 24.5186 83.2665 24.3424C83.7288 24.1661 84.1486 23.8931 84.4969 23.5416C85.1543 22.7054 85.4639 21.6474 85.3614 20.5886V7.94069H91.1033V20.5886C91.1724 21.7797 90.9871 22.9721 90.5596 24.0859C90.132 25.1998 89.4723 26.2101 88.624 27.049C86.6566 28.5286 84.2615 29.3287 81.7998 29.3287C79.338 29.3287 76.9425 28.5287 74.9751 27.049C74.0979 26.2224 73.4092 25.2163 72.9551 24.0997C72.501 22.9832 72.2921 21.7822 72.3433 20.578V7.94069H78.0858V20.5886Z" fill="#F6F2E8"/>
<path fill-rule="evenodd" clip-rule="evenodd" d="M134.045 28.9522L128.275 28.9464L126.938 25.14H119.075L117.759 29.0664H112.082L119.782 8.06017H126.459L134.045 28.9522ZM120.418 20.7899H125.388L123.028 13.4331L120.418 20.7899Z" fill="#F6F2E8"/>
</svg>
