<svg width="134" height="78" viewBox="0 0 134 78" fill="none" xmlns="http://www.w3.org/2000/svg">
<path d="M21.406 3.76826C16.2004 4.28841 16.0702 4.8085 18.1524 15.8615L25.1793 52.1423L33.1186 14.3008C31.0364 4.41836 30.3853 4.02833 25.7003 3.76826V2.07803H46.6525V3.76826C40.9268 4.28836 40.797 4.2887 42.8791 15.8615L49.7763 52.4026L57.9749 13.1312C59.6668 5.06889 59.0163 4.2879 53.6806 3.89779L51.989 3.76826V2.07803H66.9551V3.76826C62.4003 4.15837 62.3997 5.32863 60.5778 13.9109L47.1735 77.3687H45.8721L34.42 20.5436L22.3172 77.3687H21.0158L7.35103 10.7908C6.17976 4.9391 5.91897 4.02834 0.973633 3.76826V2.07803H21.406V3.76826Z" fill="#F6F2E8"/>
<path d="M81.4002 0.517334C87.5163 0.517334 90.9002 5.45764 92.8524 5.45849C93.8935 5.45849 94.6748 4.67827 95.9762 1.55738H97.148V23.4034H95.5861C92.7229 12.8705 86.8658 2.20756 81.1397 2.20756C77.6262 2.20787 75.0241 5.45897 75.0241 10.2701C75.0241 27.305 99.7508 38.0983 99.7508 60.5947C99.8809 69.9573 94.1537 76.9789 87.6467 76.9789C80.2294 76.9786 75.8049 70.0879 74.1129 70.0872C72.291 70.0872 70.2088 73.9879 69.558 75.6785H67.996V51.2318H69.558C74.1129 64.6256 81.401 75.1591 87.3875 75.1591C90.9009 75.1588 93.1128 71.9076 93.1129 67.0966C93.1129 49.4115 68.3862 37.9675 68.3862 16.2513C68.3864 7.40915 74.6332 0.517506 81.4002 0.517334Z" fill="#F6F2E8"/>
<path d="M133.717 3.76826H131.895C129.683 3.7684 128.772 4.67879 128.772 8.70942V56.4333C128.772 69.8271 119.141 76.9789 113.285 76.9789C105.737 76.9788 102.744 72.2979 102.744 67.7468C102.744 63.1955 105.476 58.5134 109.641 58.5134C114.066 58.5134 115.888 62.9356 113.806 66.0565C112.114 68.787 107.56 69.0469 107.559 71.1272C107.559 74.3781 110.292 75.1591 112.504 75.1591C119.011 75.159 118.621 71.1273 118.621 57.3438V8.57989C118.621 4.67877 117.71 3.76826 113.545 3.76826H111.983V2.07803H133.717V3.76826Z" fill="#F6F2E8"/>
</svg>
