<svg width="200" height="129" viewBox="0 0 200 129" fill="none" xmlns="http://www.w3.org/2000/svg">
<path d="M168.485 49.5292C167.56 49.776 166.915 50.452 166.69 51.4177C166.625 51.686 166.324 53.1775 166.034 54.7441C165.303 58.5532 164.679 61.7615 164.421 63.0062C164.314 63.5642 164.099 64.6479 163.948 65.4205C163.303 68.7575 162.561 72.5881 162.368 73.5646C162.26 74.144 162.164 74.6376 162.164 74.659C162.164 74.6805 161.852 74.702 161.465 74.702C161.078 74.702 160.766 74.6805 160.766 74.659C160.766 74.6376 160.626 73.9079 160.454 73.0281C160.11 71.3327 159.035 65.7746 158.498 63.0062C158.326 62.0941 158.111 60.9997 158.025 60.5919C157.939 60.1735 157.649 58.682 157.38 57.2656C156.154 50.9242 156.229 51.2139 155.649 50.6237C154.95 49.937 154.843 49.9155 151.521 49.9155C149.037 49.9155 148.435 49.9477 148.102 50.0872C147.651 50.2696 147.059 50.8061 146.844 51.2139C146.758 51.3641 146.5 52.5015 146.253 53.7354C146.017 54.9694 145.748 56.3106 145.662 56.7291C145.576 57.1369 145.286 58.6391 145.017 60.0554C144.748 61.4718 144.458 62.9633 144.372 63.3818C144.286 63.7895 143.974 65.4097 143.673 66.9763C142.835 71.3435 142.276 74.1977 142.222 74.4552C142.168 74.6805 142.104 74.702 141.523 74.702C141.179 74.702 140.857 74.659 140.824 74.5947C140.76 74.4981 140.254 71.9229 138.835 64.6157C138.481 62.7594 138.115 60.8924 138.029 60.4846C137.943 60.0662 137.653 58.5747 137.384 57.1583C136.148 50.7525 136.159 50.7739 135.084 50.216L134.514 49.9155H109.1L108.52 50.2589C108.068 50.5379 107.864 50.7417 107.638 51.1924L107.337 51.7611V60.9031C107.337 67.0514 107.38 70.1739 107.455 70.4529C107.746 71.4829 109.165 72.2877 110.272 72.0302C111.046 71.8585 111.669 71.3756 112.003 70.7104L112.282 70.1524V54.8514H131.848L131.901 55.0874C131.923 55.2269 132.17 56.4931 132.439 57.9094C132.708 59.3258 132.998 60.8173 133.084 61.2357C133.17 61.6435 133.525 63.4783 133.88 65.3132C134.234 67.1373 134.826 70.1631 135.18 72.0194C136.513 78.8652 136.374 78.3395 137.029 78.9618C137.707 79.6163 137.846 79.6378 141.491 79.6378C145.135 79.6378 145.286 79.6056 145.974 78.9296C146.468 78.436 146.64 77.921 147.113 75.4531C147.36 74.1869 147.694 72.4487 147.866 71.5902C148.038 70.7318 148.392 68.8755 148.672 67.4592C148.941 66.0428 149.306 64.1543 149.478 63.2745C149.65 62.3839 149.941 60.9138 150.123 60.0018C150.295 59.0897 150.596 57.5553 150.79 56.5896L151.134 54.8514H151.478C151.8 54.8514 151.843 54.8835 151.908 55.2484C151.94 55.4737 152.112 56.3536 152.273 57.212C152.445 58.0704 152.875 60.2915 153.241 62.1478C153.596 64.0041 153.961 65.8926 154.047 66.3325C154.144 66.7724 154.23 67.2553 154.262 67.4055C154.402 68.1459 154.918 70.7748 155.23 72.395C155.434 73.3929 155.746 75.0131 155.928 75.9896C156.401 78.4575 156.659 78.9618 157.702 79.4339C158.089 79.6163 158.455 79.6378 161.465 79.6378C164.464 79.6378 164.84 79.6163 165.227 79.4339C165.754 79.1979 166.399 78.5111 166.55 78.0175C166.657 77.6956 167.141 75.2492 168.399 68.7468C168.571 67.8562 168.85 66.3862 169.033 65.4741C169.205 64.5621 169.678 62.1693 170.065 60.1627C170.452 58.1562 170.968 55.5059 171.205 54.2612C171.753 51.4499 171.721 50.9885 170.861 50.1516C170.216 49.5185 169.345 49.2932 168.485 49.5292Z" fill="black"/>
<path d="M35.9119 50.1301C35.6754 50.2482 35.3959 50.4306 35.2776 50.5271C35.0089 50.7739 34.6111 51.5787 34.5036 52.0615C34.4391 52.4049 34.0306 54.1003 32.6761 59.6799C32.4181 60.7743 32.031 62.3839 31.816 63.2745C31.601 64.1543 31.2893 65.4741 31.1065 66.193C30.9345 66.9227 30.6443 68.1244 30.4615 68.8755C29.7735 71.7405 29.6015 72.4594 29.021 74.8415C28.6984 76.1934 28.4297 77.4489 28.4297 77.6527C28.4297 78.5326 29.0425 79.4768 29.881 79.8631C30.5045 80.1528 31.4935 80.1314 32.0955 79.8202C32.8481 79.4232 33.1921 78.876 33.5146 77.5347C33.9231 75.8608 34.7079 72.5881 35.0304 71.2683C35.1701 70.646 35.4496 69.5086 35.6324 68.7468C35.8152 67.9742 36.0947 66.8476 36.2344 66.2252C36.5032 65.12 36.9869 63.1242 38.32 57.609L38.9865 54.8406L40.4485 54.8728L41.9213 54.905L42.2008 56.0317C42.3514 56.654 42.6524 57.8772 42.8674 58.7678C43.4049 60.9889 43.9747 63.3496 44.3402 64.884C44.5122 65.5921 44.8239 66.8905 45.0389 67.7811C45.2539 68.6609 45.8452 71.1074 46.3505 73.1998C46.8557 75.2921 47.3288 77.245 47.3933 77.5454C47.6405 78.5326 47.9845 78.994 48.823 79.4125C49.2638 79.6271 49.4036 79.6378 54.1445 79.6378H59.0144L59.5734 79.3159C59.8744 79.1442 60.2291 78.8545 60.3581 78.6721C60.9064 77.8995 60.8957 78.1463 60.8957 66.0965V54.8514L64.6905 54.8728L68.4746 54.905L68.5284 60.1091L68.5821 65.3132L68.8401 65.796C71.1085 70.0773 75.8386 78.597 76.0966 78.876C76.7846 79.6163 76.8599 79.6378 80.988 79.6378C83.5896 79.6378 84.8151 79.5949 85.1269 79.509C85.7074 79.3373 86.5029 78.5433 86.6749 77.9639C86.7717 77.6313 86.8039 74.8093 86.8039 66.1823V54.8514H94.4259L94.4582 60.0769L94.4904 65.3132L98.1348 71.9658C100.134 75.6247 101.897 78.7472 102.048 78.9081C102.198 79.0691 102.532 79.2944 102.779 79.4232C103.241 79.6378 103.402 79.6378 114.508 79.6378C125.645 79.6378 125.763 79.6378 126.215 79.4125C126.806 79.1335 127.397 78.4682 127.548 77.9317C127.623 77.642 127.655 74.6161 127.634 68.2747L127.601 59.0575L127.279 58.5961C126.655 57.7055 125.537 57.2656 124.57 57.5231C123.968 57.6841 123.269 58.2421 122.99 58.7678C122.764 59.1863 122.764 59.3472 122.71 66.9227L122.656 74.6483L113.992 74.6805L105.337 74.702L102.413 69.3477L99.4893 64.0041L99.4786 58.0596C99.4678 51.568 99.4571 51.4928 98.8443 50.7525C98.6723 50.5379 98.3175 50.2589 98.0595 50.1409C97.5973 49.9155 97.479 49.9155 90.6095 49.9155H83.6326L83.0951 50.2267C82.7941 50.3984 82.4071 50.7417 82.235 50.9993L81.9125 51.4499L81.8588 63.0491L81.805 74.6483H79.3647L76.4191 69.2618L73.4735 63.8646V57.9416C73.4735 54.0573 73.4305 51.8684 73.3553 51.5894C73.2908 51.3641 73.0435 50.9671 72.807 50.7096C72.033 49.8726 72.377 49.9048 64.4755 49.937L57.4771 49.9692L57.0148 50.2911C56.4773 50.6666 56.1118 51.1709 55.9505 51.7289C55.886 51.9757 55.843 56.1712 55.843 63.4139V74.702L53.8327 74.6805L51.8331 74.6483L51.4139 72.9315C51.1881 71.9873 50.7904 70.3241 50.5216 69.2296C50.2636 68.1352 49.8228 66.3218 49.5541 65.2059C49.2853 64.0792 48.8553 62.2766 48.5865 61.1821C47.7373 57.6519 47.0277 54.7226 46.6945 53.2955C46.2752 51.525 46.1247 51.128 45.7055 50.6774C44.9852 49.9263 44.9744 49.9155 40.4163 49.9263C36.5784 49.9263 36.3097 49.937 35.9119 50.1301Z" fill="black"/>
</svg>
