<svg width="200" height="129" viewBox="0 0 200 129" fill="none" xmlns="http://www.w3.org/2000/svg">
<path d="M40.2361 88.655L42.7151 89.8984V91.4107H39.1886V90.2706H37.7382V92.0046L40.3004 92.1238L42.7151 93.3565V95.9658L40.4071 97.2104H36.499L34.2105 95.9658V94.4559H37.7382V95.596H39.1886V93.7959L36.6701 93.6891L34.2105 92.4576V89.8984L36.5191 88.655H40.2361ZM52.6134 89.8984L50.24 88.655H44.3961V97.2133H47.9226V94.3085H50.24L52.6134 93.1005V89.8984ZM47.9232 90.2706H49.2338V92.6929H47.9232V90.2706ZM62.2045 89.8984L59.7874 88.655H55.999L53.671 89.8984V95.9653L55.999 97.2098H59.9378L62.2045 95.9653V89.8984ZM57.1969 90.2706H58.6762V95.5954H57.1969V90.2706ZM72.4466 89.8984L70.0785 88.655H64.0282V97.2133H67.5547V93.7688H69.0322V97.2133H72.4466V93.7688L70.6772 92.9306L72.4466 92.1049V89.8984ZM67.5547 90.2706H69.0322V92.1521H67.5547V90.2706ZM80.9265 90.2706H78.9364V97.2133H75.4087V90.2706H73.4175V88.655H80.9265V90.2706ZM82.0318 88.6521H85.5583V97.2133H82.0318V88.6521ZM96.0417 97.2133H93.1038L90.8212 93.0451H90.7799V97.2133H87.4563V88.6521H90.4143L92.6756 92.772H92.7175V88.6521H96.0417V97.2133ZM106.145 91.8678H102.617V90.2706H100.968V95.596H102.617V94.3657H101.727V92.7496H106.145V95.9658L103.817 97.2104H99.9003L97.4413 95.9658V89.8984L99.7935 88.655H103.751L106.145 89.8984V91.8678ZM121.982 91.8678H118.454V90.2706H116.805V95.596H118.454V94.3657H117.564V92.7496H121.982V95.9658L119.651 97.2104H115.737L113.277 95.9658V89.8984L115.63 88.655H119.588L121.982 89.8984V91.8678ZM131.969 89.8984L129.552 88.655H125.764L123.433 89.8984V95.9653L125.764 97.2098H129.7L131.969 95.9653V89.8984ZM126.962 90.2706H128.441V95.5954H126.962V90.2706ZM142.24 89.8984L139.824 88.655H136.035L133.705 89.8984V95.9653L136.035 97.2098H139.974L142.24 95.9653V89.8984ZM137.235 90.2706H138.714V95.5954H137.235V90.2706ZM152.569 89.8984L150.153 88.655H144.036V97.2104H150.281L152.569 95.9658V89.8984ZM147.561 90.2706H149.043V95.5954H147.561V90.2706ZM160.079 88.655L162.557 89.8984V91.4107H159.03V90.2706H157.578V92.0046L160.141 92.1238L162.557 93.3565V95.9658L160.249 97.2104H156.34L154.05 95.9658V94.4559H157.578V95.596H159.03V93.7959L156.51 93.6891L154.05 92.4576V89.8984L156.359 88.655H160.079ZM164.366 95.9818V95.5671H164.642C164.784 95.5671 164.935 95.596 164.935 95.7629C164.935 95.97 164.781 95.9818 164.606 95.9818H164.366ZM164.366 96.1558H164.599L164.955 96.7373H165.183L164.799 96.1457C164.996 96.1216 165.147 96.0142 165.147 95.7759C165.147 95.5105 164.991 95.3931 164.673 95.3931H164.161V96.7373H164.367V96.1558H164.366ZM164.612 97.2304C165.247 97.2304 165.789 96.7373 165.789 96.0614C165.789 95.3931 165.247 94.9 164.612 94.9C163.971 94.9 163.426 95.3931 163.426 96.0614C163.426 96.7373 163.971 97.2304 164.612 97.2304ZM163.661 96.0614C163.661 95.5105 164.077 95.0941 164.612 95.0941C165.138 95.0941 165.553 95.5105 165.553 96.0614C165.553 96.6241 165.138 97.0364 164.612 97.0364C164.077 97.0364 163.661 96.6241 163.661 96.0614Z" fill="black"/>
<path fill-rule="evenodd" clip-rule="evenodd" d="M51.3514 82.0662H34.2105V39.2141H50.9975L57.6261 45.4315V75.8584M42.8957 47.7367V74.4523H47.0183V47.7367H42.8957ZM70.4818 82.0662H60.8018V39.2141H70.4818V82.0662ZM97.0061 55.6471H87.5557V47.2871H83.3852V73.9932H87.5557V63.7776H97.0061V75.8584L90.607 82.0662H80.6305L73.6957 75.8584V45.4315L80.047 39.2141H90.607L97.0061 45.4315V55.6471ZM109.747 57.5028H109.862L116.203 39.2141H126.123L117.724 59.2341L127.414 82.0662H116.902L109.862 63.7776H109.747V82.0662H100.057V39.2141H109.747V57.5028ZM158.979 39.2141L165.789 45.4315V53.0167H156.109V47.2871H152.111V56.0106L159.161 56.6037L165.789 62.821V75.8584L159.448 82.0662H148.706L142.431 75.8584V68.321H152.111V73.9932H156.109V65.0306L149.184 64.4949L142.431 58.2776V45.4315L148.763 39.2141H158.979Z" fill="black"/>
<path d="M134.312 55.952C134.311 55.7269 134.664 55.6583 134.812 55.7804C134.864 55.8232 134.915 55.9138 134.883 55.9802C134.824 56.0259 134.77 55.969 134.716 55.9518C134.575 55.9074 134.451 55.8957 134.312 55.952Z" fill="black"/>
<path d="M134.979 55.8768C135.077 55.7052 135.253 55.613 135.446 55.6952C135.523 55.7282 135.577 55.7866 135.526 55.8698C135.465 55.9699 135.358 55.8625 135.283 55.8471C135.19 55.8278 135.067 55.8426 134.979 55.8768Z" fill="black"/>
<path d="M133.463 55.539C133.619 55.4212 133.803 55.4749 133.918 55.6196C133.949 55.6581 134.019 55.7773 133.976 55.8207C133.923 55.8734 133.799 55.773 133.746 55.7494C133.706 55.7316 133.657 55.7105 133.615 55.6968C133.555 55.6769 133.461 55.6677 133.417 55.6482C133.355 55.6209 133.429 55.5653 133.463 55.539Z" fill="black"/>
<path d="M135.84 55.7909C135.892 55.6469 136.056 55.5503 136.208 55.5783C136.297 55.5946 136.349 55.6899 136.248 55.7318C136.192 55.7551 136.145 55.7289 136.092 55.7266C135.996 55.7225 135.917 55.7298 135.84 55.791V55.7909Z" fill="black"/>
<path d="M136.72 55.2913C136.782 55.2877 136.838 55.3538 136.795 55.3805C136.786 55.3861 136.752 55.3807 136.732 55.3868C136.617 55.4221 136.518 55.5306 136.421 55.5972C136.415 55.482 136.614 55.2975 136.72 55.2913Z" fill="black"/>
<path d="M137.27 55.3711C137.265 55.2718 137.509 55.0446 137.581 55.1522C137.606 55.1892 137.568 55.2319 137.532 55.2399C137.49 55.2491 137.451 55.234 137.407 55.2554C137.355 55.2807 137.337 55.3715 137.27 55.3711Z" fill="black"/>
<path d="M137.147 54.9098C137.192 54.9105 137.278 55.0139 137.233 55.0496C137.211 55.0676 137.171 55.0445 137.137 55.0489C137.06 55.0588 136.948 55.1872 136.894 55.2423C136.902 55.1409 137.037 54.9083 137.147 54.9098Z" fill="black"/>
<path d="M132.537 54.9518C132.722 54.6399 133.05 54.943 133.016 55.2107C132.989 55.2344 132.951 55.2165 132.928 55.1956C132.898 55.1677 132.865 55.103 132.833 55.07C132.757 54.9922 132.647 54.9447 132.537 54.9518Z" fill="black"/>
<path d="M137.545 54.5581C137.566 54.5591 137.601 54.5917 137.604 54.6136C137.617 54.7038 137.472 54.714 137.416 54.7583C137.359 54.8026 137.367 54.8589 137.313 54.898L137.313 54.8981C137.312 54.8074 137.448 54.554 137.545 54.5581Z" fill="black"/>
<path d="M137.894 54.3497C137.922 54.4894 137.834 54.5612 137.756 54.6582L137.701 54.7799C137.693 54.6424 137.747 54.3958 137.894 54.3497Z" fill="black"/>
<path d="M131.921 54.0828C132.122 54.0363 132.236 54.4396 132.15 54.4842C132.089 54.5155 132.061 54.4091 132.036 54.3718C131.977 54.2817 131.932 54.2222 131.827 54.182C131.819 54.1551 131.895 54.0888 131.921 54.0828Z" fill="black"/>
<path d="M131.368 53.5698C131.364 53.5353 131.415 53.4781 131.458 53.4968C131.58 53.5491 131.587 53.8239 131.536 53.9298V53.9297L131.474 53.7181C131.477 53.6766 131.369 53.5807 131.368 53.5698Z" fill="black"/>
<path d="M131.704 53.4892C131.745 53.4 131.848 53.4798 131.885 53.5328C131.959 53.6378 131.952 53.7809 131.913 53.8977C131.841 53.8317 131.881 53.7239 131.825 53.6361C131.785 53.5721 131.672 53.5586 131.704 53.4892Z" fill="black"/>
<path d="M131.644 52.9445C131.637 52.8752 131.729 52.8517 131.767 52.9084C131.84 53.0174 131.791 53.1928 131.752 53.3059C131.733 53.3087 131.74 53.2802 131.741 53.2685C131.747 53.2001 131.761 53.1725 131.738 53.0992C131.72 53.0426 131.648 52.9818 131.644 52.9445Z" fill="black"/>
<path d="M131.413 52.9725C131.499 53.0109 131.502 53.1212 131.492 53.2027C131.487 53.2482 131.475 53.3081 131.418 53.2953L131.418 53.2952C131.425 53.2264 131.446 53.1668 131.44 53.0958C131.436 53.049 131.412 53.0161 131.413 52.9725Z" fill="black"/>
<path fill-rule="evenodd" clip-rule="evenodd" d="M134.2 31.9062C134.211 31.9241 134.241 31.917 134.259 31.9172C135.01 31.9251 135.793 32.0954 136.497 32.3471C136.592 32.3813 136.847 32.5065 136.919 32.5177C136.945 32.5218 136.965 32.5049 136.988 32.5105C138.853 33.3722 140.328 34.9757 140.945 36.9458C141.399 38.3967 141.358 39.9812 140.884 41.4213C141.209 41.9332 141.438 42.4945 141.6 43.0786C141.67 43.331 141.734 43.5802 141.762 43.8417L141.794 44.1911V44.7613L141.762 45.2291C141.657 46.2698 141.275 47.2611 140.678 48.1135C140.772 48.47 140.823 48.8362 140.848 49.2039L140.718 49.2094L140.83 49.2163L140.846 49.2324C140.846 49.3286 140.851 49.4257 140.848 49.5218C140.828 50.2051 140.675 50.8793 140.398 51.5025C140.094 52.1849 139.602 52.8255 139.024 53.3022C138.791 53.4946 138.538 53.6587 138.282 53.8188C138.296 55.7915 136.609 57.4399 134.643 57.4142C133.929 58.445 132.964 59.3362 131.883 59.974C131.495 60.203 131.088 60.3927 130.671 60.5637H130.66L130.424 59.94C131.785 59.4098 132.99 58.4998 133.877 57.3421L133.459 57.2193C133.455 57.2305 133.45 57.2419 133.442 57.2509C133.162 57.5423 132.871 57.8211 132.559 58.0787C132.175 58.3957 131.767 58.6843 131.353 58.9598L130.996 58.4367L131.01 58.4014C131.588 58.0099 132.16 57.5937 132.661 57.1056C132.698 57.07 132.789 56.9909 132.812 56.9554C132.819 56.9451 132.826 56.9369 132.823 56.9234L132.575 56.7607L132.554 56.7605C132.297 57.0239 132.026 57.2742 131.741 57.507L131.318 57.0069L132.059 56.3203C131.248 55.485 130.906 54.2751 131.126 53.1285C131.199 52.7506 131.339 52.3869 131.52 52.0497C130.826 50.9126 130.616 49.509 130.938 48.2115L130.793 47.9628C130.786 47.9429 130.762 47.9097 130.752 47.8817C130.723 47.797 130.55 47.5569 130.494 47.451C130.083 46.6818 129.842 45.8395 129.784 44.9659C127.636 43.4093 126.497 40.7208 126.897 38.0774C127.421 34.6222 130.331 32.0025 133.84 31.9175L133.866 31.9062H134.2ZM134.775 57.1322C134.649 57.1247 134.457 57.1496 134.372 57.2504C134.586 57.1947 134.811 57.1839 135.028 57.2289C134.975 57.1607 134.858 57.1372 134.775 57.1322ZM135.684 57.1C135.512 57.0744 135.271 57.0765 135.168 57.2397C135.239 57.2304 135.302 57.1968 135.372 57.1804C135.467 57.1582 135.584 57.1611 135.669 57.1225C135.682 57.1168 135.688 57.1276 135.684 57.1ZM136.098 56.8632C136.09 56.8632 136.025 56.8877 136.01 56.8936C135.939 56.9233 135.849 56.9898 135.83 57.0677C135.941 56.9994 136.054 56.9427 136.183 56.9158L136.265 56.8632H136.098ZM133.882 56.8526C133.854 57.0704 134.186 57.0751 134.21 56.8741C134.186 56.8753 134.173 56.8946 134.149 56.9039C134.05 56.9431 133.955 56.9354 133.882 56.8526ZM134.765 56.917C134.679 56.9772 134.583 56.9409 134.49 56.9278C134.598 57.0771 134.84 57.0275 134.834 56.831L134.765 56.917ZM135.544 56.6911C135.469 56.7341 135.369 56.7595 135.283 56.7424C135.265 56.7388 135.253 56.7335 135.253 56.7133L135.238 56.7128C135.2 56.748 135.124 56.8098 135.205 56.8425C135.299 56.8808 135.518 56.8021 135.544 56.6911ZM134.619 56.6696C134.503 56.7373 134.391 56.7685 134.258 56.7238C134.217 56.71 134.186 56.6827 134.146 56.6697C134.24 56.8565 134.561 56.9039 134.619 56.6696ZM136.727 56.5781C136.69 56.5388 136.608 56.5924 136.574 56.6176C136.554 56.6322 136.432 56.7481 136.448 56.7664L136.727 56.5781ZM133.544 56.5083C133.463 56.747 133.896 56.8754 133.941 56.6266C133.835 56.7151 133.711 56.6736 133.614 56.5941L133.544 56.5083ZM133.059 56.449C133.041 56.5906 133.168 56.6922 133.294 56.72C133.411 56.7459 133.481 56.7154 133.446 56.5835C133.428 56.5823 133.437 56.6072 133.426 56.6218C133.37 56.6948 133.196 56.5831 133.145 56.5352C133.118 56.51 133.09 56.4807 133.081 56.4438L133.059 56.449ZM136.2 56.4437C136.154 56.4732 136.117 56.5164 136.068 56.5424C136.052 56.5507 135.945 56.5942 135.937 56.5943H135.77C135.886 56.7618 136.188 56.6286 136.2 56.4437ZM134.87 56.4352C134.837 56.4196 134.791 56.3528 134.758 56.4167C134.751 56.5263 134.988 56.5748 135.072 56.5572C135.127 56.5456 135.199 56.4915 135.219 56.4337L135.222 56.4222C135.136 56.4599 134.952 56.4746 134.87 56.4352ZM135.792 56.3203C135.669 56.3379 135.508 56.3653 135.405 56.2823C135.445 56.565 135.85 56.4934 135.921 56.2663L135.792 56.3203ZM136.921 56.1963C136.858 56.2477 136.756 56.3702 136.668 56.369C136.632 56.3684 136.564 56.3114 136.545 56.3734C136.634 56.5815 136.903 56.342 136.921 56.1963ZM133.791 56.1641C133.817 56.4503 134.269 56.5711 134.361 56.2715C134.237 56.3561 134.063 56.376 133.932 56.2976L133.791 56.1641ZM137.174 56.1855C137.203 56.149 137.165 56.1505 137.134 56.1556C137.028 56.1732 136.91 56.3276 136.9 56.4329L137.015 56.3436C137.049 56.2767 137.123 56.2496 137.174 56.1855ZM132.36 56.1317C132.375 56.213 132.402 56.3002 132.433 56.377C132.439 56.3932 132.427 56.4061 132.457 56.4005C132.462 56.3078 132.429 56.1947 132.36 56.1317ZM133.146 56.0458C133.164 56.2873 133.529 56.5038 133.662 56.2287C133.526 56.2947 133.373 56.2544 133.259 56.1638L133.146 56.0458ZM132.715 56.0779C132.676 56.0961 132.696 56.1751 132.71 56.207C132.78 56.3748 133.112 56.437 133.092 56.1855C132.973 56.3057 132.757 56.2317 132.715 56.0779ZM136.663 56.0779C136.537 56.1503 136.39 56.1905 136.244 56.1855C136.233 56.24 136.297 56.2989 136.347 56.3036C136.435 56.3118 136.649 56.178 136.663 56.0779ZM131.618 52.1837C131.61 52.1787 131.598 52.2017 131.594 52.2084C131.573 52.242 131.487 52.4113 131.483 52.4413C131.477 52.4833 131.502 52.553 131.5 52.609C131.497 52.6817 131.471 52.7613 131.445 52.8285L131.413 52.8242L131.381 52.6893L131.274 53.0919C131.331 53.2388 131.255 53.4264 131.325 53.5682C131.335 53.5878 131.364 53.6071 131.366 53.6192C131.37 53.6409 131.35 53.6896 131.349 53.7167C131.346 53.8063 131.353 53.9525 131.425 54.0169C131.497 54.0813 131.499 53.9772 131.58 53.9796C131.719 53.9839 131.801 54.2041 131.811 54.3191C131.816 54.3731 131.804 54.4396 131.812 54.4905C131.824 54.5629 131.936 54.6264 131.984 54.6847C132.008 54.7148 132.014 54.7584 132.048 54.7819C132.176 54.7443 132.261 54.7429 132.366 54.8297C132.565 54.9939 132.507 55.2182 132.656 55.357C132.779 55.4714 132.851 55.3778 132.978 55.3674C133.12 55.3559 133.237 55.4063 133.316 55.5256C133.345 55.5707 133.375 55.6836 133.392 55.7055C133.4 55.7161 133.417 55.7067 133.425 55.7193C133.442 55.7448 133.453 55.8065 133.474 55.8405C133.555 55.973 133.743 56.013 133.884 55.9614C133.921 55.9482 133.962 55.9079 133.985 55.9001C134.027 55.8863 134.153 55.9468 134.202 55.9625C134.237 55.9739 134.329 55.9852 134.35 55.9975C134.363 56.0052 134.379 56.0452 134.394 56.0614C134.525 56.2053 134.703 56.2819 134.873 56.1428C134.887 56.1314 134.898 56.101 134.906 56.099C134.929 56.0939 135.051 56.0872 135.072 56.0934C135.098 56.1013 135.141 56.1388 135.175 56.1516C135.301 56.1995 135.431 56.1684 135.533 56.0821C135.559 56.06 135.606 55.9866 135.612 55.9835C135.619 55.9796 135.756 55.9492 135.766 55.9488C135.801 55.9476 135.864 56.0368 135.923 56.0592C136.263 56.1886 136.338 55.7826 136.637 55.8193C136.682 55.8248 136.699 55.8517 136.738 55.8625C136.795 55.727 137.003 55.4989 137.163 55.5294C137.21 55.5382 137.241 55.6239 137.209 55.6556C137.203 55.6624 137.059 55.6882 137.023 55.701C136.897 55.7464 136.697 55.8586 136.706 56.0132C136.727 56.0184 136.74 55.9949 136.756 55.9935C136.766 55.9928 136.818 56.024 136.848 56.0275C136.919 56.0356 136.995 55.9841 137.045 55.9382C137.089 55.8977 137.213 55.7176 137.234 55.7072C137.266 55.6916 137.337 55.6825 137.384 55.6633C137.422 55.6473 137.482 55.6018 137.508 55.5939C137.539 55.5843 137.512 55.6377 137.534 55.6536C137.548 55.662 137.563 55.6604 137.578 55.6532C137.614 55.6352 137.752 55.3516 137.782 55.298L137.674 55.3944L137.562 55.529C137.525 55.53 137.573 55.4212 137.579 55.407C137.615 55.3209 137.731 55.1445 137.817 55.1072C137.838 55.0981 137.869 55.1022 137.877 55.0972C137.886 55.0914 137.947 54.919 137.952 54.8973C137.954 54.8865 137.961 54.87 137.944 54.873L137.863 54.9913L137.857 54.9376C137.848 54.9279 137.772 54.995 137.771 54.9269C137.798 54.9228 137.825 54.9048 137.846 54.8881C137.927 54.8235 138.092 54.5413 138.07 54.4404C138.028 54.2456 138.1 54.2378 138.126 54.0817C138.135 54.0275 138.131 53.951 138.137 53.8941C137.988 53.9258 137.946 54.0574 137.943 54.1952C137.933 54.1991 137.923 54.1728 137.922 54.1683L137.922 54.1685C137.915 54.1177 137.927 54.0543 137.922 54.0018C137.87 54.0149 137.785 54.0316 137.802 54.0972C137.658 54.1251 137.629 54.2916 137.588 54.4104L137.578 54.3084L137.62 54.12C137.522 54.1625 137.419 54.1984 137.317 54.2304C136.225 54.5712 135.022 54.5143 133.96 54.0958C133.117 53.7634 132.365 53.1951 131.817 52.4741C131.806 52.551 131.795 52.6302 131.766 52.7028C131.761 52.7144 131.715 52.8211 131.693 52.7968C131.706 52.7347 131.736 52.6611 131.737 52.5974C131.737 52.5181 131.669 52.4145 131.736 52.3612C131.682 52.3203 131.654 52.2435 131.618 52.1837ZM132.328 56.0349C132.316 56.0459 132.377 56.1022 132.387 56.1104C132.437 56.1537 132.493 56.1857 132.563 56.173V56.1732C132.602 56.0894 132.531 56.118 132.478 56.1054C132.418 56.0913 132.382 56.0585 132.328 56.0349ZM137.459 55.7982C137.405 55.8501 137.252 55.9624 137.18 55.9103C137.168 55.902 137.174 55.8811 137.158 55.8843C137.047 56.0888 137.172 56.1612 137.326 56.0095L137.326 56.0096C137.349 55.9876 137.474 55.8162 137.459 55.7982ZM131.79 55.7446C131.766 55.7693 131.884 55.8538 131.894 55.8661C131.926 55.9032 131.943 55.9773 131.994 56.0026H131.994C131.959 55.9022 131.895 55.7826 131.79 55.7446ZM132.403 55.6262C132.383 55.7507 132.585 55.9533 132.699 55.96C132.736 55.9622 132.786 55.9511 132.79 55.9059H132.79C132.622 55.8726 132.495 55.7668 132.403 55.6262ZM131.908 55.5617C131.991 55.6485 132.065 55.7577 132.048 55.8843C132.157 55.7968 132.022 55.5884 131.908 55.5617ZM132.909 55.6369C132.903 55.8345 133.109 55.9551 133.275 55.8358C133.286 55.786 132.961 55.6521 132.909 55.6369ZM131.564 55.2446C131.556 55.2357 131.522 55.1947 131.511 55.2066L131.725 55.6583C131.74 55.5213 131.656 55.3441 131.564 55.2446ZM131.973 55.4002C131.968 55.5415 132.179 55.7497 132.274 55.5725C132.142 55.5891 132.052 55.4903 131.973 55.4002ZM131.736 55.0882C131.757 55.1668 131.76 55.2519 131.779 55.3303C131.783 55.3453 131.779 55.3639 131.801 55.368C131.827 55.2734 131.816 55.154 131.736 55.0882ZM132.102 54.9592C132.098 55.083 132.15 55.2459 132.265 55.3075C132.326 55.3403 132.42 55.3582 132.474 55.3037C132.486 55.2903 132.477 55.2859 132.468 55.2767C132.453 55.2623 132.395 55.2415 132.37 55.224C132.258 55.1486 132.183 55.0654 132.102 54.959L132.102 54.9592ZM131.747 54.7656C131.71 54.8683 131.722 54.9709 131.8 55.0511C131.865 55.1172 131.992 55.153 132.016 55.0345C131.919 55.0781 131.853 54.997 131.813 54.92L131.747 54.7656ZM131.37 54.6902C131.401 54.8094 131.417 54.9288 131.435 55.0505C131.438 55.0692 131.429 55.0686 131.456 55.0667H131.457C131.47 54.943 131.467 54.7809 131.37 54.6902ZM131.327 54.2924L131.306 54.2976C131.308 54.3628 131.316 54.4315 131.335 54.4942C131.368 54.5993 131.45 54.6861 131.467 54.5181C131.341 54.5295 131.372 54.3699 131.327 54.2922V54.2924ZM131.532 54.3945C131.532 54.4201 131.568 54.5111 131.584 54.5363C131.644 54.6316 131.737 54.6309 131.778 54.5232L131.688 54.4541L131.532 54.2276L131.532 54.3945ZM137.669 50.4096C137.63 50.4242 137.562 50.359 137.545 50.3597C137.468 50.363 137.252 50.4435 137.156 50.4659C136.655 50.5825 136.141 50.642 135.625 50.6243L135.121 50.5819C134.986 50.7334 134.795 50.8317 134.636 50.9574L134.641 51.0864C134.802 51.0265 134.945 50.8195 135.124 50.953C135.235 51.0358 135.275 51.1477 135.192 51.2697L134.673 51.5975H134.673V51.7642C134.816 51.7079 135.005 51.5318 135.14 51.6898C135.241 51.8072 135.243 51.9551 135.1 52.0353L134.643 52.2715L134.63 52.3665C134.782 52.3261 134.966 52.1515 135.103 52.3077C135.213 52.4331 135.203 52.5827 135.049 52.6623C134.896 52.7419 134.7 52.7921 134.541 52.8715L134.523 52.926C134.718 52.8887 134.953 52.663 135.094 52.9081C135.159 53.02 135.157 53.1291 135.038 53.1991L134.358 53.4631L134.318 53.5605C134.333 53.5625 134.347 53.5591 134.362 53.5556C134.51 53.5211 134.722 53.4162 134.862 53.4001C135.077 53.3754 135.206 53.692 134.999 53.8056L134.469 54.0016C135.687 54.3557 137.017 54.227 138.123 53.6055C138.731 53.2636 139.274 52.7934 139.676 52.2215C139.667 52.2052 139.649 52.2241 139.64 52.2286C139.504 52.2911 139.402 52.4007 139.25 52.2912C139.13 52.2038 139.095 52.0584 139.212 51.9522L139.622 51.7265L139.49 51.6585L138.971 51.8505C138.787 51.8815 138.641 51.6349 138.761 51.4897C138.83 51.4062 138.995 51.4041 139.073 51.334L138.454 51.496C138.354 51.4828 138.238 51.3735 138.226 51.2718C138.197 51.0296 138.54 51.056 138.686 50.9734L138.583 50.8817L138.11 50.9658C137.98 50.9649 137.854 50.7934 137.886 50.6688C137.926 50.5175 138.153 50.5349 138.277 50.5054L138.164 50.3486L137.669 50.4096ZM131.199 53.7866C131.193 53.8811 131.193 53.996 131.29 54.0448C131.361 53.9708 131.253 53.8451 131.199 53.7866ZM131.15 48.4726C130.973 49.2895 131.031 50.1525 131.292 50.9445C131.698 52.1777 132.632 53.2236 133.817 53.7536L133.952 53.4641C133.863 53.4551 133.766 53.4825 133.695 53.4145C133.633 53.3546 133.594 53.2512 133.618 53.1676C133.679 52.9541 133.944 53.0636 134.102 53.054L134.124 52.9476C133.999 52.9245 133.829 52.9683 133.737 52.8667C133.614 52.7299 133.642 52.5542 133.831 52.5091L134.214 52.538L134.23 52.5206L134.242 52.4097H133.872C133.867 52.4097 133.8 52.3701 133.791 52.3614C133.669 52.2425 133.68 52.0355 133.862 51.9911L134.296 51.9686V51.7696C134.296 51.7663 134.311 51.7545 134.307 51.7428C134.108 51.7373 133.947 51.8505 133.802 51.6618C133.713 51.5458 133.741 51.4405 133.858 51.3637L134.276 51.3078C134.305 51.2875 134.263 51.1765 134.275 51.1403C134.152 51.1448 134.005 51.2106 133.885 51.1915C133.814 51.1802 133.685 51.0793 133.673 51.0053C133.628 50.7196 134.027 50.7687 134.2 50.7099L134.177 50.6141C134.156 50.5997 133.807 50.7166 133.741 50.717C133.669 50.7175 133.594 50.6647 133.549 50.6134C133.458 50.5112 133.471 50.4127 133.566 50.3181L133.737 50.2585C133.352 50.1225 132.977 49.9391 132.63 49.7249C132.266 49.5008 131.921 49.2561 131.607 48.9622C131.444 48.8096 131.294 48.6424 131.15 48.4726ZM131.247 53.2272C131.235 53.314 131.215 53.4033 131.209 53.4908C131.208 53.5084 131.2 53.5638 131.22 53.5712C131.269 53.4616 131.321 53.3405 131.247 53.2272ZM140.471 48.3973C140.446 48.3904 140.453 48.404 140.447 48.411C140.349 48.5202 140.26 48.6399 140.16 48.7472C139.798 49.1317 139.364 49.4729 138.911 49.7421C139.01 49.8399 139.001 49.966 138.893 50.052C138.802 50.1254 138.673 50.1827 138.577 50.2535L138.701 50.4201C138.827 50.369 139.016 50.1346 139.153 50.1394C139.237 50.1423 139.363 50.2413 139.38 50.3222C139.426 50.5411 139.151 50.6198 139.026 50.744C139.019 50.7512 139.004 50.753 139.009 50.7685L139.087 50.8383C139.213 50.7441 139.416 50.4714 139.59 50.6179C139.603 50.6292 139.672 50.7166 139.68 50.7326C139.765 50.927 139.54 51.0129 139.439 51.1356L139.489 51.1818C139.621 51.1015 139.757 50.8421 139.927 50.8505C140.025 50.8553 140.111 50.9528 140.133 51.0434C140.17 51.2016 139.955 51.3203 139.88 51.435C139.883 51.4488 140.048 51.5458 140.068 51.5493C140.088 51.5527 140.082 51.5443 140.087 51.5355C140.134 51.4542 140.182 51.3363 140.218 51.2476C140.531 50.4902 140.647 49.6393 140.545 48.8235C140.527 48.6807 140.496 48.5389 140.471 48.3973H140.471ZM132.457 49.2953C132.934 49.6278 133.458 49.9074 134.017 50.0752C134.2 50.1318 134.188 50.1349 134.293 50.1612C134.408 50.1904 134.556 50.225 134.673 50.2472C134.719 50.2546 134.775 50.2747 134.821 50.2768C134.858 50.2784 134.887 50.283 134.93 50.2897C134.964 50.295 134.998 50.3027 135.034 50.311C135.181 50.345 135.367 50.3276 135.517 50.3552L135.91 50.3548L135.318 49.3604L133.221 48.6813L132.457 49.2953ZM140.843 46.838C140.823 46.8127 140.808 46.7782 140.783 46.7562C140.772 46.7462 140.769 46.7332 140.756 46.7508L138.933 48.8702L139.027 48.9184L138.879 49.4512L139.255 49.1975C140.088 48.5623 140.755 47.7034 141.127 46.719L140.843 46.838ZM135.292 46.2454C134.772 46.3405 134.229 46.3752 133.699 46.3537C133.614 46.3503 133.357 46.307 133.297 46.3271C133.279 46.3329 133.118 46.4362 133.114 46.4467L133.351 48.4499L135.397 49.1057L136.683 47.9973L136.683 47.9972L136.302 46.6871L135.292 46.2454ZM137.798 45.2991L136.589 46.4253L137.021 47.8997L138.7 48.7403L140.599 46.5116L139.589 45.1866L138.21 45.0322L137.798 45.2991ZM130.069 45.1593C130.14 46.0111 130.426 46.8376 130.859 47.5689L131.262 46.2718C131.233 46.0846 131.142 45.9043 131.088 45.7213C130.734 45.5623 130.391 45.3755 130.069 45.1593ZM131.51 46.1705H132.392L131.414 45.8585L131.51 46.1705ZM131.516 32.6391C129.89 33.2734 128.549 34.5116 127.778 36.075C127.776 36.0921 127.776 36.0927 127.793 36.0904C127.861 36.0809 127.942 36.0623 128.008 36.0581C129.394 35.9698 130.909 36.6442 131.844 37.645C133.914 39.8596 133.538 43.2645 131.225 45.1374C131.129 45.2148 131.028 45.2844 130.93 45.3582C132.168 45.9865 133.596 46.2267 134.978 46.0398C135.434 45.9779 135.883 45.8625 136.319 45.7184L136.319 45.7185L131.516 32.6391ZM136.69 32.7023C135.146 32.0426 133.357 31.9961 131.773 32.5516L136.555 45.6175H136.588C138.087 45.0281 139.35 43.917 140.129 42.5095C140.291 42.2157 140.439 41.9063 140.546 41.5879C139.748 41.6721 138.926 41.5782 138.174 41.2976C135.216 40.1937 133.985 36.5947 135.658 33.8973C135.958 33.4143 136.259 33.1239 136.663 32.7401C136.671 32.7324 136.698 32.7124 136.69 32.7023ZM132.833 40.0388L127.8 42.1645C128.363 43.3731 129.336 44.4367 130.503 45.0858C130.548 45.1109 130.65 45.1763 130.693 45.187C130.73 45.1964 130.811 45.1283 130.847 45.1034C132.302 44.085 133.164 42.1471 132.896 40.3794C132.879 40.2652 132.85 40.1529 132.833 40.0386L132.833 40.0388ZM140.197 42.8895C139.756 43.6199 139.181 44.2575 138.524 44.7989L139.695 44.9207L140.459 43.3653L140.455 43.3312L140.197 42.8895ZM140.762 41.7492C140.653 42.0472 140.515 42.335 140.358 42.6104L140.357 42.6312L140.635 43.1233L141.396 43.3518C141.281 42.8337 141.085 42.322 140.832 41.8566C140.813 41.8218 140.79 41.7763 140.762 41.7492ZM128.386 36.3271C128.293 36.3233 127.705 36.3238 127.664 36.3704C127.236 37.406 127.039 38.5347 127.132 39.6568C127.197 40.4353 127.391 41.1993 127.681 41.9213L132.758 39.7907C132.785 39.76 132.549 39.1744 132.513 39.0956C131.782 37.4959 130.151 36.3993 128.386 36.3271ZM135.578 38.5702C136.169 39.8279 137.294 40.8132 138.64 41.1868C139.137 41.3248 139.649 41.3716 140.165 41.3618L140.59 41.3138C140.603 41.3068 140.606 41.2939 140.612 41.2818C140.669 41.1617 140.722 40.949 140.759 40.8157C141.128 39.4693 141.063 37.9475 140.544 36.6476C140.533 36.6191 140.494 36.4984 140.468 36.501L135.578 38.5702ZM136.976 32.8251C136.055 33.5123 135.435 34.5713 135.237 35.7034C135.129 36.325 135.134 37.0236 135.27 37.6401C135.321 37.8711 135.395 38.0938 135.469 38.3177L135.469 38.3176L140.374 36.2462C139.693 34.7509 138.471 33.5089 136.976 32.8251Z" fill="black"/>
</svg>
