<svg width="200" height="128" viewBox="0 0 200 128" fill="none" xmlns="http://www.w3.org/2000/svg">
<path d="M57.0119 75.7219L56.017 72.682L55.0221 75.7219H51.844L54.4417 77.5736L53.4468 80.6136L56.017 78.7343L58.5872 80.6136L57.5923 77.5736L60.1624 75.6943L57.0119 75.7219ZM53.9996 56.5148L60.4664 50.7941L55.9341 46.7869L45.1007 56.3766V64.3635L53.9996 56.5148ZM60.4388 63.7555L55.9341 59.7482L45.1007 69.338V77.3248L53.9996 69.4762L60.4388 63.7555ZM60.9639 64.2253L56.4316 68.2325L66.878 77.463V69.4762C66.9057 69.4762 60.9639 64.2253 60.9639 64.2253ZM56.4592 55.2435L66.9057 64.4464V56.4872L60.9915 51.2363L56.4592 55.2435ZM23.2405 67.0442H32.9408V73.9809H23.2405V67.0442ZM23.2405 54.221H32.9408V61.1577H23.2405V54.221ZM34.7924 79.895L39.076 75.6114V66.9336L35.8979 64.0871L39.1037 61.2959V52.5905L34.7924 48.2792H17.1053V79.9226L34.7924 79.895ZM88.5172 61.9315H79.1761V54.1934H88.5448V61.9315H88.5172ZM94.68 63.1751V52.5905L90.3135 48.3069H73.0133V79.9226H79.1485V67.8456H84.6757L88.6001 79.895H94.7906L90.507 67.3482L94.68 63.1751ZM116.153 61.9315H106.785V54.1934H116.153V61.9315ZM122.289 63.1751V52.5905L117.922 48.3069H100.622V79.9226H106.757V67.8456H112.284L116.209 79.895H122.399L118.116 67.3482L122.289 63.1751ZM135.222 79.9226H141.385V67.3758L151.168 48.3069H144.536L138.29 60.5497L132.127 48.3069H125.522L135.25 67.4864L135.222 79.9226ZM178.583 79.9226L182.895 75.639V66.5191L179.385 62.7606L167.391 59.997V54.221H176.76V58.173H182.895V52.5905L178.583 48.3069H165.594L161.256 52.5905V61.7104L164.848 65.5518L176.76 68.2325V74.0085H167.391V70.0565H161.256V75.6667L165.594 79.9503L178.583 79.9226ZM159.957 48.2792H155.093L151.528 55.3541H155.811L159.957 48.2792Z" fill="black"/>
</svg>
