<svg width="200" height="128" viewBox="0 0 200 128" fill="none" xmlns="http://www.w3.org/2000/svg">
<path d="M58.3182 94.9637C59.6169 94.9637 60.6861 95.0351 60.6861 95.1066C60.6858 95.6057 58.8765 98.2536 57.756 99.408C55.0318 102.211 52.9185 102.805 45.3568 102.805H40.1119L41.0201 100.904L41.9363 99.0041H52.2499L53.1407 98.2677C53.6941 97.7947 54.181 97.2595 54.5913 96.6741C54.8975 96.2011 55.3303 95.5983 55.5336 95.3676C55.8398 95.0351 56.3469 94.9637 58.3182 94.9637Z" fill="#020203"/>
<path d="M109.159 86.469C117.434 86.5639 118.02 86.6588 119.98 88.2265C121.151 89.1772 121.533 89.7217 121.813 90.9112C122.296 92.9321 120.669 96.7079 118.426 98.7979C116.948 100.176 114.318 101.411 111.349 102.124C109.516 102.55 108.241 102.646 102.744 102.74C97.3451 102.835 96.3002 102.813 96.3762 102.528C96.3988 102.365 97.6476 100.103 99.0982 97.5158L101.746 92.8338H106.764L105.237 95.6848C104.397 97.2524 103.71 98.6539 103.71 98.7968C103.71 99.2956 109.92 98.9174 111.704 98.3215C114.656 97.3474 116.312 95.9715 117.331 93.7364C117.914 92.3596 117.813 91.4803 116.975 90.6725L116.232 89.9793H102.787L93.7589 96.2702L84.72 102.544L81.7512 102.567C80.1224 102.567 78.6177 102.639 78.3905 102.71C77.2703 103.114 78.4925 102.139 83.0749 98.9326L88.1159 95.4167L86.7505 91.4499C85.9851 89.2639 85.2972 87.2429 85.2207 86.9338C85.0676 86.3895 85.0679 86.3896 87.4393 86.4715L89.8349 86.543L90.9804 89.6783C91.6166 91.4123 92.2054 92.8374 92.2794 92.8374C92.3559 92.8356 94.5196 91.3857 97.0892 89.6048L101.748 86.3976L109.159 86.469Z" fill="#020203"/>
<path d="M68.8149 86.4245C80.323 86.4011 80.6794 86.4248 81.7486 86.9002C83.4564 87.6589 83.991 88.5639 83.991 90.559C83.9659 92.5962 83.3033 93.925 81.7762 94.946C80.0094 96.1426 78.6955 96.3731 73.5758 96.3731H68.968L67.2111 99.5802L65.4796 102.787H63.2133C61.8656 102.787 60.9496 102.697 60.9496 102.556C60.9497 102.416 62.0953 100.181 63.4956 97.5675L66.0417 92.842L72.3048 92.7705C78.5425 92.6991 78.5425 92.7226 79.052 92.129C79.5614 91.5353 79.6869 90.5541 79.279 90.3234C79.1502 90.2509 73.5249 90.2053 66.8036 90.2053C54.9445 90.2053 54.5387 90.2287 53.442 90.704C52.2713 91.2344 51.0488 92.3514 50.1829 93.7049L49.6886 94.4894H47.2957C45.819 94.4894 44.903 94.4016 44.9027 94.2588C44.9027 93.7542 45.6671 92.3034 46.4815 91.2578C48.3926 88.7874 51.0891 87.3377 54.959 86.7676C56.3745 86.5556 60.5493 86.4608 68.8149 86.4245Z" fill="#020203"/>
<path d="M141.416 86.4164C151.396 86.4164 156.004 86.4877 156.693 86.6774C157.363 86.9092 157.99 87.2384 158.551 87.6517C161.002 89.5286 159.933 93.6383 156.572 95.254C155.427 95.8008 152.651 96.3943 151.149 96.3943H150.08L152.116 99.3634C153.209 101.002 154.127 102.378 154.128 102.452C154.128 102.525 152.854 102.571 151.327 102.571H148.526L145.089 97.7478C143.204 95.0892 141.654 92.8562 141.652 92.807C141.652 92.7601 144.402 92.7356 147.737 92.7836C152.675 92.8293 154.026 92.7833 154.739 92.4964C155.798 92.0925 156.409 91.0949 155.976 90.5013C155.745 90.1198 154.371 90.0975 140.573 89.9793L125.425 89.8658L126.265 88.1317L127.105 86.4164H141.416Z" fill="#020203"/>
<path d="M131.992 92.5997C136.193 92.5997 139.605 92.6687 139.606 92.7401C139.31 93.3981 138.96 94.0328 138.561 94.6404L137.542 96.4003H126.949L126.289 97.5547C126.018 97.9703 125.789 98.407 125.602 98.8612C125.602 98.9326 128.68 99.0041 132.476 99.0041C136.269 99.0041 139.348 99.0509 139.352 99.1222C139.071 99.7311 138.756 100.326 138.41 100.904L137.442 102.567H129.982C119.109 102.567 119.186 102.615 122.037 96.9131C123.08 94.8705 124.022 93.0419 124.152 92.8749C124.33 92.6594 126.221 92.5903 131.992 92.5997Z" fill="#020203"/>
<path fill-rule="evenodd" clip-rule="evenodd" d="M95.1629 25.2273C95.2005 25.5785 95.306 26.0025 94.7865 26.7729C93.9081 28.0607 94.2292 29.2736 93.8252 30.0288C93.4231 30.7803 93.0199 32.0454 93.0159 32.0579C93.0159 32.0579 92.0546 34.607 92.0546 35.6456C92.0547 36.6839 92.5102 36.8725 92.4087 37.7224C92.307 38.5724 91.8528 39.0431 92.1577 40.8369C92.4626 42.6305 92.8164 43.1972 92.9105 44.2322C92.9758 44.8398 92.8905 45.4547 92.6596 46.026C92.6692 46.0286 93.3689 46.2176 93.47 46.4943C93.7109 47.1827 94.0886 47.8233 94.5818 48.3829C95.2293 49.2446 96.4041 50.3182 97.162 52.0124C98.2512 54.45 98.7305 55.6938 98.7305 55.6938C98.7305 55.6938 98.7303 54.7019 98.0213 52.8145C97.7403 52.0625 97.9161 51.8757 97.9208 51.8709C97.9208 51.8709 98.3503 52.0127 98.7305 52.8615C99.1107 53.7104 99.3366 55.0568 99.3366 55.0568C99.5725 54.7758 99.9402 54.6176 100.323 54.6317L100.254 54.6398C100.635 54.6247 100.999 54.7911 101.219 55.0826C101.219 55.0826 101.446 53.7373 101.826 52.8884C102.206 52.0396 102.634 51.8967 102.634 51.8967C102.64 51.9022 102.816 52.0906 102.534 52.8414C101.826 54.7288 101.826 55.7207 101.826 55.7207C101.826 55.7207 102.304 54.477 103.393 52.0382C104.152 50.3393 105.326 49.267 105.973 48.4087C106.467 47.8491 106.844 47.2096 107.086 46.5212C107.186 46.2398 107.886 46.0554 107.896 46.0529C107.665 45.4816 107.579 44.867 107.645 44.2594C107.746 43.2209 108.1 42.6551 108.404 40.8637C108.708 39.0724 108.252 38.5982 108.153 37.7482C108.054 36.8982 108.507 36.7097 108.507 35.6725C108.507 34.6351 107.546 32.0848 107.546 32.0848C107.542 32.0717 107.134 30.7968 106.731 30.0454C106.326 29.2903 106.645 28.0782 105.77 26.7891C105.478 26.3501 105.301 25.8524 105.252 25.3373L105.61 25.2963C105.61 25.2963 106.075 26.3641 106.783 27.7327C107.429 28.9831 107.086 28.2528 107.536 28.8182C108.602 30.1436 107.621 29.0419 108.346 31.7452C108.809 33.4406 109.419 35.0976 110.167 36.7017C110.622 37.6595 109.665 40.3826 109.712 42.648C109.758 44.9136 109.907 44.7674 109.813 45.9991C109.762 46.6595 109.002 47.0375 109.002 47.0375C109.119 47.3431 109.119 47.6759 109.002 47.9815C108.8 48.4498 107.941 49.0199 107.385 50.2058C106.829 51.3918 106.626 52.0466 106.07 52.707C104.014 55.1476 103.244 56.0938 103.237 56.1023C103.251 56.0901 105.286 54.3221 106.374 53.5077C109.432 51.2136 109.51 51.7054 109.511 51.7139C109.508 51.7039 109.344 50.9687 110.827 49.3534C111.738 48.3628 112.294 45.9579 112.496 44.9639C112.61 44.4073 113.455 43.1749 113.457 43.1715C113.46 43.1569 114.267 39.1595 114.317 38.782C114.524 37.2366 114.418 36.9415 114.418 36.9415C114.42 36.9378 114.516 36.6998 114.014 35.7135C113.758 35.1831 113.539 34.6385 113.355 34.0823L113.606 33.8726C113.606 33.8726 113.962 34.2978 114.366 35.2884C114.77 36.2788 115.119 36.1852 115.275 36.9871C115.432 37.7891 115.484 36.6267 115.225 38.0736C115.074 38.9224 114.871 39.3008 114.668 41.1414C114.417 43.4432 114.821 44.209 114.668 45.0591C114.515 45.9089 114.012 45.9558 113.915 46.5693C113.819 47.1828 113.121 48.8396 112.398 50.864C111.994 51.9961 110.729 52.3275 110.729 52.3275C110.729 52.3304 110.677 52.9417 110.374 53.2244C110.071 53.5078 109.768 53.3181 109.11 54.0732C108.374 54.9186 107.946 55.6316 106.733 56.3856C104.877 57.5412 103.846 58.1324 103.846 58.1324C103.846 58.1324 104.474 57.904 106.173 57.6125C108.095 57.2823 108.808 57.9909 108.808 57.9909C109.368 58.019 109.917 58.1467 110.425 58.3679C111.336 58.7461 111.489 59.1699 112.602 59.8315C113.755 60.5163 113.664 60.2998 113.967 60.7751C114.415 61.4717 114.304 61.1579 114.624 62.8041C115.028 64.8721 115.581 67.0329 115.585 67.0518C115.461 67.0553 115.338 67.0365 115.223 66.9956C114.737 66.6863 114.95 65.32 114.27 63.654C113.464 61.6781 112.858 61.5779 112.854 61.5772C112.852 61.5773 111.942 61.6232 110.527 60.7284C109.118 59.8373 109.011 59.5035 109.01 59.5001C109.006 59.5018 108.449 59.7336 107.442 59.5949C105.397 59.3088 104.262 59.9218 104.256 59.9252C104.267 59.9227 105.434 59.6685 107.594 60.8699C110.206 62.3199 109.577 62.9827 109.566 62.9937C109.575 62.9955 110.075 63.0994 110.831 64.3614C111.56 65.5872 111.481 66.2699 111.994 68.1853C112.496 70.0727 112.804 69.6477 113.006 70.6862C113.208 71.7247 112.504 72.5174 111.944 74.7924C111.64 76.0194 111.477 76.722 110.375 78.5216C109.871 79.3329 109.262 80.0857 108.566 80.7625C108.44 80.6337 108.322 80.6699 108.339 80.5856C108.388 80.3339 108.995 79.855 110.068 77.6657C110.877 76.0136 111.15 75.2548 111.535 73.0396C111.839 71.294 110.833 72.2199 110.877 70.9638C110.927 69.5003 110.018 66.9991 109.207 65.1094C108.397 63.22 107.845 63.8823 107.642 63.5536C107.06 62.5947 105.951 62.2926 105.619 62.1848C104.607 61.8547 104.051 62.043 104.051 62.043C104.051 62.043 104.733 62.1602 105.341 63.1999C105.948 64.2396 106.606 65.3003 106.606 67.3761C106.614 69.301 105.777 71.1453 104.29 72.48C102.684 73.9142 100.26 73.9319 100.26 73.9319C98.7881 73.8909 97.3787 73.371 96.2758 72.4613C94.8641 71.2706 93.962 69.4358 93.962 67.3588C93.962 65.2817 94.6196 64.2196 95.2269 63.1822C95.8342 62.1449 96.5195 62.0257 96.5195 62.0257C96.5195 62.0257 95.9623 61.837 94.951 62.1672C94.6197 62.276 93.5127 62.5805 92.928 63.5359C92.7259 63.8661 92.1688 63.2057 91.3594 65.0931C90.5501 66.9805 89.6403 69.4836 89.6905 70.9472C89.7344 72.2058 88.7292 71.2775 89.0328 73.0243C89.418 75.2383 89.6904 75.9971 90.4998 77.649C91.4773 79.6394 92.1161 80.2952 92.2567 80.5517L92.1175 80.7168C91.6156 80.5869 91.0043 79.8199 90.195 78.4993C89.0932 76.6997 88.93 75.9971 88.6276 74.7701C88.0642 72.494 87.3627 71.7024 87.5647 70.6639C87.7668 69.6255 88.0666 70.0504 88.5761 68.162C89.0893 66.2477 89.0103 65.5649 89.7394 64.3391C90.496 63.0629 90.9982 62.9693 90.9982 62.9693C90.9982 62.9693 90.3407 62.309 92.9708 60.8455C95.1404 59.6395 96.3099 59.9015 96.3099 59.9015C96.3044 59.8985 95.1679 59.2854 93.1224 59.5715C92.1111 59.7132 91.5539 59.4767 91.5539 59.4767C91.5516 59.4838 91.4383 59.8176 90.0369 60.7036C88.6202 61.5993 87.7103 61.5535 87.7103 61.5535C87.7039 61.5546 87.0989 61.6591 86.2938 63.6296C85.5861 65.3648 85.4968 66.9221 85.2772 67.004C85.1818 67.038 85.0788 67.0472 84.9785 67.0285C84.9811 67.0183 85.5355 64.853 85.9386 62.7808C86.2598 61.1416 86.1495 61.4472 86.5963 60.7517C86.8999 60.2834 86.8096 60.4919 87.9628 59.8081C89.0758 59.1466 89.2276 58.7213 90.1374 58.3442C90.6455 58.123 91.1951 57.9943 91.7559 57.9662C91.759 57.9632 92.4679 57.2644 94.3911 57.5891C96.0807 57.8797 96.7146 58.1075 96.7189 58.1091C96.7133 58.1059 95.6862 57.5136 93.8328 56.3622C92.6194 55.6071 92.1914 54.8941 91.4485 54.0499C90.791 53.2947 90.4873 53.4832 90.1836 53.2011C89.882 52.9208 89.8306 52.3123 89.83 52.3041C89.83 52.3041 88.5664 51.9739 88.161 50.8406C87.4382 48.8163 86.744 47.1594 86.6436 46.5459C86.5433 45.9324 86.0362 45.8842 85.8844 45.0354C85.7327 44.1866 86.1353 43.4208 85.8844 41.118C85.6824 39.2775 85.4805 38.9003 85.3287 38.0502C85.0702 36.6044 85.1266 37.7668 85.2772 36.9648C85.4278 36.1629 85.7794 36.2624 86.1884 35.2661C86.5975 34.2697 86.7454 33.9675 86.9412 33.8492L87.1834 33.9981C87.1932 34.075 86.9147 34.9479 86.536 35.6898C86.0341 36.6815 86.1319 36.917 86.1319 36.917C86.1301 36.9223 86.0268 37.2267 86.232 38.7586C86.2834 39.1352 87.0908 43.1382 87.0928 43.1481C87.0928 43.1481 87.9398 44.382 88.0541 44.9406C88.2561 45.9322 88.8071 48.336 89.7231 49.3301C91.2081 50.9474 91.0403 51.6824 91.0384 51.6905C91.0391 51.6845 91.1067 51.1844 94.1754 53.4844C95.2659 54.304 97.3125 56.08 97.3125 56.08C97.3125 56.08 96.5456 55.1341 94.4802 52.6847C93.9231 52.0244 93.7274 51.364 93.1653 50.1838C92.6031 49.0036 91.7483 48.4367 91.5463 47.9649C91.4297 47.6593 91.4296 47.3268 91.5463 47.0213C91.5369 47.0166 90.787 46.6402 90.737 45.9829C90.6429 44.7511 90.7872 44.8973 90.8386 42.6318C90.8901 40.3662 89.9266 37.6428 90.3834 36.685C91.1312 35.081 91.741 33.4243 92.204 31.729C92.928 29.0267 91.953 30.1295 93.0133 28.8019C93.4688 28.2352 93.125 28.9669 93.7725 27.7165C94.1916 26.9098 94.5556 26.0785 94.8592 25.2273H95.1629ZM100.357 63.2607C100.35 63.2604 99.4171 63.22 98.7631 63.5957C98.1056 63.9738 98.502 64.6248 99.2938 65.3308C99.7116 65.7019 99.6263 66.0157 99.6539 66.5344C99.6727 66.8856 99.2563 67.2371 99.1422 67.3542C98.3077 68.1328 97.9273 67.5133 97.7616 68.3809C97.596 69.2484 97.9298 69.4698 98.5584 69.6372C99.6213 69.9205 99.2889 69.8713 100.352 69.8713C101.414 69.8713 100.997 69.9252 102.059 69.6372C102.687 69.4686 103.03 69.2635 102.856 68.3795C102.686 67.5133 102.305 68.1315 101.476 67.3542C101.362 67.2476 100.945 66.8926 100.964 66.5344C100.991 66.0169 100.906 65.7031 101.324 65.3308C102.116 64.6283 102.513 63.9737 101.855 63.5967C101.198 63.2197 100.357 63.2607 100.357 63.2607Z" fill="#020203"/>
</svg>
