<svg width="200" height="129" viewBox="0 0 200 129" fill="none" xmlns="http://www.w3.org/2000/svg">
<path fill-rule="evenodd" clip-rule="evenodd" d="M99.3889 73.6858C102.1 73.384 104.271 75.1041 104.665 77.7788C105.145 81.0321 103.414 84.1177 99.8513 84.0291C93.982 83.8841 93.7735 74.3112 99.3889 73.6858ZM102.252 75.6706C100.531 74.0739 97.5814 74.7974 96.9034 77.0697C96.1572 79.5744 96.9646 82.9139 100.092 82.8971C103.63 82.8767 104.36 77.6266 102.252 75.6706Z" fill="black"/>
<path d="M135.732 75.7101C137.27 73.1695 141.583 72.8521 143.091 75.5892C143.189 75.7676 143.564 76.4959 143.366 76.6361L142.173 76.8348L142.172 76.8361C141.943 75.9569 141.262 75.0573 140.324 74.8812C136.67 74.1973 135.607 78.1286 136.631 80.9099C137.521 83.3259 140.982 83.6362 142.068 81.2693C142.15 81.0896 142.283 80.4679 142.404 80.4045C142.525 80.341 143.559 80.6105 143.595 80.7147C143.73 81.1076 142.905 82.4478 142.615 82.7737C141.418 84.1141 139.182 84.3225 137.583 83.6721C134.793 82.5377 134.326 78.0327 135.732 75.7101Z" fill="black"/>
<path d="M147.077 76.6912C146.703 72.6677 154.333 72.6509 154.204 76.6624L154.203 76.6636L153.061 76.7546C152.849 76.2072 152.754 75.667 152.256 75.2849C151.261 74.5207 148.404 74.65 148.334 76.2755C148.271 77.6913 150.224 77.7716 151.223 78.0555C153.097 78.5885 154.864 79.2066 154.499 81.5998C154.078 84.3536 149.489 84.6243 147.731 83.0432C147.288 82.6443 146.527 81.2885 146.724 80.7135C146.788 80.5231 147.697 80.547 147.906 80.5638C148.074 82.7079 150.843 83.3619 152.461 82.4371C153.547 81.8167 153.596 80.4811 152.46 79.8726C150.798 78.9826 147.315 79.2629 147.077 76.6912Z" fill="black"/>
<path d="M73.4092 45.3404C73.4092 45.447 73.3612 45.5416 73.3121 45.6326C72.6174 46.9215 71.404 48.5051 70.5607 49.7688C62.9653 61.1458 55.3148 72.5012 47.6858 83.8507H28.5804L28.4906 83.7021L54.2739 45.3404H73.4092Z" fill="black"/>
<path fill-rule="evenodd" clip-rule="evenodd" d="M113.087 73.8488C113.273 73.8488 114.102 74.0944 114.307 74.1866C116.427 75.1305 116.235 78.7 114.073 79.5074C113.837 79.596 113.074 79.778 112.847 79.7781H109.672L109.583 79.8679V83.7608L109.493 83.8507H108.355L108.265 83.7608V73.9386L108.355 73.8488H113.087ZM109.584 78.5802C110.29 78.6665 110.997 78.6006 111.709 78.5802C112.269 78.5647 112.792 78.6365 113.368 78.4413C114.742 77.9741 114.824 75.8216 113.578 75.2143C113.53 75.1902 113.171 75.0466 113.147 75.0466H109.584V78.5802Z" fill="black"/>
<path d="M126.413 73.9386V74.9867C126.355 74.9676 126.284 75.0466 126.264 75.0466H123.179L123.089 83.8507H121.891L121.802 83.7608V75.0466H118.717C118.697 75.0466 118.626 74.9676 118.567 74.9867V73.9985C118.567 73.9877 118.706 73.8488 118.717 73.8488H126.323L126.413 73.9386Z" fill="black"/>
<path d="M131.145 73.9386V83.7608L131.055 83.8507H129.917L129.827 83.7608V73.9386L129.917 73.8488H131.055L131.145 73.9386Z" fill="black"/>
<path d="M60.9793 72.7683L73.7099 72.8318C73.784 72.9038 73.2691 73.645 73.1852 73.7732C71.1321 76.866 68.9868 80.0367 66.8475 83.0672C66.7516 83.2037 66.3707 83.7907 66.2534 83.7907H53.2857C53.2306 83.7379 53.6784 83.0769 53.7516 82.969C55.8142 79.8571 58.0051 76.6732 60.16 73.626C60.2654 73.4774 60.6474 72.893 60.7385 72.827C60.8152 72.7707 60.8871 72.7623 60.9793 72.7683Z" fill="black"/>
<path fill-rule="evenodd" clip-rule="evenodd" d="M148.869 66.4484C148.838 66.5155 148.79 66.5299 148.723 66.5431C148.375 66.6054 147.791 66.5264 147.403 66.5407C147.262 66.5455 147.13 66.6018 146.988 66.6054C146.695 66.6126 145.149 66.6437 145.018 66.549L143.136 61.7087C143.057 61.5314 142.906 61.5254 142.736 61.5098C141.907 61.4344 141.042 61.5661 140.221 61.5757C137.8 61.6021 135.367 61.517 132.953 61.6128L130.724 66.5778L127.011 66.3646L127.07 66.0328L135.967 45.6421L136.055 45.5499L139.999 45.5296H140L148.869 66.4484ZM134.199 58.3368H141.416C141.445 58.3368 141.517 58.2362 141.511 58.1859C140.399 55.4141 139.321 52.61 138.153 49.8609L137.759 49.8285L134.199 58.3368Z" fill="black"/>
<path d="M94.0419 45.2769C94.3389 45.2685 94.7522 45.2122 94.9726 45.429V48.2439L94.9702 48.245L82.278 63.2252L82.363 63.3605C82.3858 63.3605 82.4073 63.3078 82.4229 63.3078H94.5509C94.5318 63.3664 94.6107 63.4371 94.6108 63.4575V66.4521L94.4048 66.5455C88.8289 66.5108 83.2674 66.6462 77.6891 66.6054L77.483 66.512V63.5773L90.1201 48.7841L90.2399 48.5146L78.1239 48.5015C77.9934 48.4571 77.9754 48.3685 77.9598 48.2463C77.8999 47.7983 77.8999 46.2327 77.9598 45.7847C78.0161 45.3631 78.5994 45.5404 78.9504 45.5176C81.1328 45.3751 83.3488 45.4889 85.5421 45.4614C88.3641 45.4254 91.2198 45.3608 94.0419 45.2769Z" fill="black"/>
<path d="M119.286 45.6099V48.5446L119.196 48.6345H108.296L108.206 48.7243V54.2343C108.206 54.2547 108.285 54.3254 108.266 54.384H117.879L117.969 54.4739V57.3487L117.879 57.4385H108.086V63.218L108.713 63.3701C112.084 63.2851 115.471 63.4743 118.839 63.3701C118.947 63.3665 119.406 63.2264 119.406 63.3977V66.6019H104.373V45.5201H119.196L119.286 45.6099Z" fill="black"/>
<path d="M160.671 45.6099V63.0384C160.671 63.2419 161.192 63.1246 161.298 63.1246C164.721 63.1366 168.155 63.0971 171.57 63.1582C171.599 63.1714 171.691 63.2672 171.691 63.2768V66.5109L171.601 66.6007H156.988L156.898 66.5109V45.6099L156.988 45.5201H160.581L160.671 45.6099Z" fill="black"/>
<path d="M48.6752 45.4291L41.2175 56.1808H28.3097C28.2965 55.9939 28.4199 55.8429 28.5121 55.6944C28.8235 55.1889 29.2404 54.7014 29.5662 54.2199L35.5541 45.3835C35.5877 45.3511 35.7375 45.2805 35.7662 45.2805H48.5842L48.6752 45.4291Z" fill="black"/>
</svg>
