<svg width="200" height="129" viewBox="0 0 200 129" fill="none" xmlns="http://www.w3.org/2000/svg">
<path d="M62.7927 46.4211C63.5016 41.1772 67.5355 37.9731 72.8522 39.1046C77.5498 40.1042 78.7946 45.2681 78.7798 49.4349L78.7808 49.4354H73.2425C73.1338 47.8634 73.2728 44.8583 71.3387 44.3126C68.9388 43.6355 68.0842 46.1907 68.3458 48.1264C68.7674 51.2443 74.433 54.7828 76.5769 57.2299C82.2378 63.6914 80.1918 75.564 70.2297 74.7593C64.5166 74.2977 62.9174 69.0655 62.9861 64.1043H68.4731L68.6269 64.2581V66.3098C68.627 66.6529 68.9916 67.7864 69.1691 68.1264C70.4416 70.5617 73.5723 69.4831 74.0524 66.915C74.812 62.8477 69.8209 60.1324 67.2918 57.7966C63.8883 54.6531 62.1491 51.1854 62.7927 46.4211Z" fill="black"/>
<path fill-rule="evenodd" clip-rule="evenodd" d="M55.2941 74.0545H49.243L48.4228 66.4631L43.3052 66.4749C43.278 66.6288 43.2292 66.7811 43.2041 66.9365C42.8379 69.1907 42.8646 71.5531 42.4738 73.7981C42.4538 73.9134 42.4209 73.9894 42.3199 74.0545H37.1406L41.9618 39.5887L51.0294 39.5815L55.2941 74.0545ZM43.9099 61.4372H47.8068L45.8594 44.9219L43.9099 61.4372Z" fill="black"/>
<path fill-rule="evenodd" clip-rule="evenodd" d="M88.8321 39.5877C94.0698 39.8006 101.787 38.324 104.746 43.9299C106.62 47.4782 106.409 54.6064 103.756 57.7453C101.533 60.3763 98.295 60.3939 95.0885 60.3088V74.0545H88.8321V39.5877ZM96.883 44.9219C96.3553 44.8593 95.7306 44.9675 95.1911 44.9219V55.2824C96.779 55.2598 98.3607 55.0998 99.108 53.5068C99.9276 51.7599 99.9815 47.1007 98.5392 45.6763C98.1828 45.3245 97.3755 44.9798 96.8836 44.9219H96.883Z" fill="black"/>
<path d="M128.524 44.9219H120.524V53.7437H126.37V59.3856H120.524V68.7204H128.678L128.832 68.8742V74.0545H114.268V39.5877H128.524V44.9219Z" fill="black"/>
<path d="M149.652 57.7444V39.5877H154.677V74.0545H149.754L142.985 53.2308V74.0545H137.652V39.5877H143.754L149.652 57.7444Z" fill="black"/>
<path d="M35.9379 16.2423C35.6523 16.8463 35.2221 17.3894 34.8984 17.9821C32.4768 22.4175 32.8278 26.2311 33.7659 31.0228C34.4623 34.5799 36.2316 39.6461 34.6566 43.0676C33.6556 45.2423 31.0448 46.8813 28.6665 47.0166C27.7534 47.0685 27.4336 46.8506 26.8698 46.1753C26.8012 46.0933 26.3503 45.5632 26.5946 45.5029C28.2751 46.1894 29.8997 46.1397 31.557 45.4147C35.3527 43.7541 34.6937 40.0252 34.0119 36.6732C33.5292 34.3002 32.8144 31.9739 32.4665 29.5706C31.7867 24.8755 32.3873 19.6699 35.9379 16.2423Z" fill="black"/>
<path d="M36.3972 16.1671C36.4472 16.1089 36.4514 16.0491 36.5561 16.0738L36.5558 16.0741C36.6536 18.0456 37.4755 19.858 38.6913 21.3794C41.3074 24.6528 45.7736 28.1088 43.8266 32.8639C42.9214 35.0749 40.0138 36.8366 37.6231 36.4583C37.6448 36.346 37.7416 36.3662 37.8197 36.3468C38.1471 36.2649 38.5197 36.2402 38.8589 36.1509C40.9797 35.5929 42.7051 33.9955 43.0064 31.763C43.766 26.1351 37.3185 22.6847 36.1063 17.6463C36.0788 17.6252 35.9926 17.7319 35.9701 17.7619C35.1317 18.8876 34.5044 21.1688 34.3665 22.5601C33.7129 29.1657 39.9281 39.738 34.056 44.8812C33.9782 44.9494 33.4674 45.3844 33.4121 45.3316L34.5361 43.8448C36.1414 41.3112 35.9735 38.6746 35.4717 35.8308C34.6841 31.3659 32.8216 26.7121 33.7763 22.1381C34.1265 20.4612 35.2814 17.4621 36.3972 16.1671Z" fill="black"/>
<path d="M33.5798 18.4325C33.6645 18.5333 32.9059 19.5009 32.7927 19.6385C30.2482 22.7322 25.7626 24.7031 24.6246 28.8217C23.5536 32.698 26.5875 36.6535 30.7185 35.8715C31.382 35.7457 31.945 35.4284 32.5692 35.224C32.4768 36.0984 32.2283 36.5443 31.3054 36.6268C25.3271 37.1617 20.7915 31.6366 24.5841 26.3103C26.7004 23.3382 30.5259 21.5383 33.1325 18.8551C33.2782 18.7051 33.3467 18.4965 33.5798 18.4325Z" fill="black"/>
<path d="M151.102 95.0177L152.378 95.0315L153.681 98.8866V95.0177C154.036 95.0623 154.51 94.8842 154.772 95.1665V102.458L153.695 102.444L152.193 98.093V102.458H151.102V95.0177Z" fill="black"/>
<path d="M67.3381 95.0176C69.4948 95.2557 69.72 97.6818 68.4194 99.0309L69.1729 102.457C68.8763 102.407 67.9914 102.572 67.8322 102.361C67.5921 102.043 67.4681 100.018 67.2677 99.4535C67.1943 99.2472 67.0747 99.272 66.8917 99.2839V102.458H65.5029V95.0181C66.0906 95.0648 66.7613 94.9546 67.3376 95.0181L67.3381 95.0176ZM66.8917 98.1922C68.2111 98.4228 68.2111 95.8782 66.8917 96.1089V98.1922Z" fill="black"/>
<path d="M59.4261 94.9418C60.9792 94.6541 61.5178 95.8624 61.7222 97.1625C61.9221 98.4368 62.0183 102.279 60.2897 102.55C58.446 102.84 57.9822 101.234 57.8671 99.7284C57.7689 98.4457 57.762 95.2498 59.4261 94.9418ZM59.5754 96.1333C59.4807 96.2344 59.3706 96.7831 59.3547 96.9532C59.2714 97.8411 59.257 99.7487 59.3532 100.623C59.4058 101.099 59.8512 101.96 60.1731 101.244C60.4296 100.674 60.4097 97.8867 60.3438 97.1521C60.313 96.8098 60.0695 95.605 59.5754 96.1333Z" fill="black"/>
<path d="M145.025 94.9417C147.841 94.4199 147.614 99.2809 147.185 100.97C146.884 102.154 146.219 102.799 144.926 102.534C143.101 102.161 143.325 97.6589 143.732 96.3271C143.923 95.7051 144.331 95.0702 145.024 94.9417H145.025ZM145.174 96.1332C145.079 96.2344 144.969 96.783 144.953 96.9531C144.87 97.841 144.856 99.7487 144.952 100.623C145.004 101.099 145.45 101.959 145.772 101.244C146.028 100.674 146.008 97.8866 145.942 97.152C145.912 96.8097 145.668 95.6049 145.174 96.1332Z" fill="black"/>
<path d="M106.738 94.9418C107.849 94.7116 108.563 95.2974 108.893 96.3123C109.299 97.5632 109.343 100.825 108.55 101.912C107.963 102.718 106.632 102.862 105.97 102.113C104.991 101.005 104.995 96.7383 105.873 95.5643C106.05 95.3282 106.448 95.0018 106.738 94.9418ZM107.125 96.0241C106.981 96.0514 106.872 96.289 106.831 96.4229C106.583 97.2294 106.564 100.274 106.809 101.075C106.904 101.384 107.206 101.622 107.464 101.322C107.722 101.021 107.772 98.7661 107.761 98.2383C107.572 97.8117 107.877 95.8827 107.125 96.0246V96.0241Z" fill="black"/>
<path d="M39.0699 95.0176C40.6389 95.2027 41.0178 96.408 40.7822 97.8212C40.685 98.404 40.311 98.5672 40.1612 98.8886C39.9459 99.3509 40.996 102.267 40.8065 102.457L39.5303 102.445L38.9192 99.2844L38.5253 99.2829V102.457H37.2357V95.0171C37.8205 95.0662 38.499 94.9497 39.0704 95.0171L39.0699 95.0176ZM38.5243 98.1922C39.8849 98.459 39.8993 95.8763 38.5243 96.1089V98.1922Z" fill="black"/>
<path d="M128.884 102.457L127.609 102.444L127.353 100.865C127.255 100.72 126.303 100.677 126.22 100.934L126.108 102.458L124.917 102.457L126.018 95.0286C126.374 95.0732 127.877 94.8609 127.977 95.1808L128.884 102.457V102.457ZM127.198 99.7799L126.988 97.1624L126.802 96.3078L126.404 99.7794H127.198L127.198 99.7799Z" fill="black"/>
<path d="M88.1175 102.457L86.8392 102.447L86.5848 100.867L85.5535 100.785L85.3412 102.458H84.2495L85.247 95.0231L87.182 95.1109L88.1179 102.457H88.1175ZM86.0362 96.3078L85.6458 99.6182C85.7152 99.8652 86.4687 99.8474 86.5059 99.6351L86.2217 97.0637L86.0366 96.3078H86.0362Z" fill="black"/>
<path d="M53.1043 97.2006C53.2244 95.2523 51.2368 96.0385 52.3583 97.5002C53.0582 98.4124 54.2496 98.7477 54.4689 100.15C54.9614 103.303 50.5092 103.482 50.9218 100.275L52.02 100.319C52.2075 100.452 51.965 101.387 52.5642 101.469C53.1028 101.544 53.3727 101.018 53.2844 100.549C53.0969 99.5533 51.1391 98.9541 50.8678 97.4045C50.3167 94.2587 54.4982 93.9894 54.2526 97.1084L53.1043 97.2016V97.2006Z" fill="black"/>
<path d="M115.196 97.6967C115.286 97.3355 114.958 95.3976 114.396 96.1778C114.008 96.716 113.982 100.741 114.32 101.301C114.476 101.561 114.819 101.539 114.989 101.308C115.311 100.869 115.094 100.176 115.304 99.6882L116.387 99.7789C116.385 101.242 116.154 102.717 114.348 102.562C113.143 102.458 112.8 100.929 112.719 99.9268C112.616 98.6654 112.618 95.3321 114.198 94.9616C116.01 94.5365 116.425 96.285 116.388 97.6967H115.196Z" fill="black"/>
<path d="M101.608 97.2007L100.51 97.157C100.348 97.0424 100.528 95.7696 99.7531 96.0816C99.1465 96.3257 99.4366 97.2026 99.7779 97.591C100.818 98.775 101.991 98.8678 101.809 100.924C101.584 103.468 97.8444 102.982 98.2769 100.368L99.4242 100.276L99.6157 101.3C99.7238 101.471 100.142 101.516 100.315 101.416C100.643 101.21 100.664 100.894 100.609 100.53C100.445 99.4432 98.4203 98.9809 98.2343 97.3495C97.8598 94.0663 101.904 94.0916 101.607 97.2007H101.608Z" fill="black"/>
<path d="M93.5727 97.2012C93.7339 95.2459 91.785 96.0281 92.7786 97.4492C93.6223 98.656 95.1778 98.836 94.9501 100.91C94.6659 103.496 90.8967 102.967 91.3902 100.275L92.4884 100.318C92.6749 100.452 92.4735 101.392 93.0325 101.468C93.5915 101.545 93.8455 101.045 93.7527 100.549C93.5648 99.5463 91.534 98.9095 91.3178 97.3232C90.8952 94.2201 94.968 94.0445 94.7205 97.1074L93.5722 97.2007L93.5727 97.2012Z" fill="black"/>
<path d="M47.5504 95.0177V96.2081H45.914L45.7652 96.3569V97.9442C45.9111 98.2581 47.0296 97.9724 47.0564 98.15L47.0554 99.2839C46.9666 99.3727 45.9294 99.1217 45.7652 99.4322V101.218L45.914 101.367H47.5504V102.458H44.4756V95.0177H47.5504Z" fill="black"/>
<path d="M75.9178 95.0177L75.9183 96.2086L74.7278 96.2081V102.458H73.4382V96.2081L72.2473 96.2086L72.2477 95.0177H75.9178Z" fill="black"/>
<path d="M135.133 95.0177L135.133 96.2086L133.942 96.2081V102.458H132.653V96.2081L131.462 96.2086L131.463 95.0177H135.133Z" fill="black"/>
<path d="M139.794 95.0177V102.458H138.405V95.1665C138.749 94.8624 139.354 95.0797 139.794 95.0177Z" fill="black"/>
<path d="M121.445 95.0177H120.155V102.458H121.445V95.0177Z" fill="black"/>
<path d="M37.1436 85.2481C37.112 82.81 37.2688 77.7277 40.8347 77.9528C43.453 78.1182 43.6566 80.852 43.6964 82.9166L41.5689 83.0102C41.5016 82.9609 41.4815 81.6247 41.4452 81.3591C41.3661 80.7832 41.211 79.7881 40.3864 80.0492C40.0313 80.1618 39.8612 81.0274 39.8068 81.3597C39.5168 83.1401 39.5431 85.7999 39.6813 87.6128C39.733 88.2921 39.837 90.1635 40.9632 89.6044C41.6788 89.2494 41.6097 87.2167 41.6888 86.5202L43.697 86.6384C43.7463 88.6903 43.4226 91.5549 40.835 91.7215C37.3377 91.9466 37.1761 87.7599 37.1436 85.2481Z" fill="black"/>
<path fill-rule="evenodd" clip-rule="evenodd" d="M147.867 78.197C149.871 78.2883 152.915 77.6932 154.002 79.888C154.73 81.3565 154.577 84.2638 153.015 85.1782L154.423 91.4882H152.001L150.868 85.8581L150.783 85.766L150.288 85.7583V91.4882H147.867V78.197ZM152.004 81.8267C151.966 80.6831 151.525 80.012 150.288 80.1464V83.868C151.639 84.0257 152.042 82.9872 152.004 81.8267Z" fill="black"/>
<path fill-rule="evenodd" clip-rule="evenodd" d="M78.7648 78.1974L80.4214 91.4853H78.1474L77.7638 88.5314L75.789 88.5308L75.3713 91.4853H73.4521L75.3684 78.1906L78.7648 78.1974ZM76.0507 86.5823H77.5275L76.789 80.261L76.0507 86.5823Z" fill="black"/>
<path d="M96.3603 84.9838L97.6295 78.1906H100.642L100.73 78.2792V91.3932L100.642 91.4818H98.5451V81.794L96.8908 91.4811L95.5673 91.4853L93.879 81.794V91.4818H92.1071V78.1906H95.2967L96.3603 84.9838Z" fill="black"/>
<path fill-rule="evenodd" clip-rule="evenodd" d="M115.576 78.1922C118.673 78.4341 119.635 81.8428 117.701 83.9798L116.492 84.5713C119.702 85.1169 119.668 90.0086 116.926 91.1797C116.662 91.2926 116.022 91.4836 115.753 91.4836H112.416V78.1922H115.576ZM116.494 88.1484C116.584 86.8429 116.454 85.6219 114.838 85.6943V89.534C115.867 89.5626 116.422 89.2028 116.494 88.1484ZM116.376 81.6449C116.331 80.5243 116.033 80.0727 114.838 80.1415V83.6268C116.165 83.7411 116.421 82.7584 116.376 81.6449Z" fill="black"/>
<path d="M57.8088 83.4793L57.8974 83.5679H59.2558L59.3444 83.4793V78.1924H61.6774L61.7661 78.281V91.4836H59.3444V85.8717H57.8088V91.4836H55.3872V78.1924H57.8088V83.4793Z" fill="black"/>
<path d="M136.063 80.2599H133.08L132.992 80.3485V83.627H135.207L135.295 83.7156V85.8127H133.08L132.992 85.9013V89.3274L133.08 89.416H136.181V91.4836H130.629V78.1924H136.063V80.2599Z" fill="black"/>
</svg>
