<svg width="200" height="128" viewBox="0 0 200 128" fill="none" xmlns="http://www.w3.org/2000/svg">
<path d="M76.8176 53.8184C81.6247 58.9145 80.1009 68.3481 73.5571 71.1644C64.5035 75.0617 55.9181 67.3674 58.6086 57.9178C60.8108 50.182 71.3977 48.0734 76.8176 53.8184ZM67.8576 54.5302C59.7766 55.4962 60.566 68.799 69.241 68.3106C78.0405 67.8156 77.2979 53.4023 67.8576 54.5302Z" fill="black"/>
<path d="M54.0598 50.816V71.7141L52.7245 71.2271L39.9662 59.5633V70.3776C39.9662 72.1476 37 71.6874 35.8347 71.7141V50.816L49.4426 63.09L49.9283 62.8451V51.9091C49.9283 50.9097 53.2878 50.6126 54.0598 50.816Z" fill="black"/>
<path d="M164.385 54.7002C163.179 54.917 162.958 56.2522 161.593 56.1893C160.651 56.1465 160.065 54.7631 158.864 54.517C157.942 54.3283 156.01 54.2561 155.425 55.0976C153.32 58.1293 158.97 59.3629 160.82 60.3369C162.775 61.3657 164.676 62.899 164.885 65.2617C165.631 73.7374 152.572 74.231 149.789 67.48C152.921 64.5553 152.628 66.4859 155.08 67.777C157.402 68.9998 161.49 68.6439 160.448 65.0811C160.163 64.1084 155.099 62.238 153.864 61.4594C152.49 60.5924 151.125 59.3816 150.836 57.6838C149.49 49.7741 161.62 48.1217 164.385 54.6989V54.7002Z" fill="black"/>
<path d="M182.35 54.6774C181.441 54.9436 180.796 56.1839 179.817 56.1852C178.866 56.1852 177.932 54.7403 176.845 54.5168C176.222 54.3884 174.893 54.3723 174.281 54.5128C173.099 54.7844 172.544 56.7244 173.312 57.6315C174.378 58.8891 179.094 60.1775 180.897 61.6439C184.193 64.3264 183.202 69.6392 179.452 71.3491C175.211 73.2823 169.864 71.6488 167.772 67.4772C171.199 64.3745 170.69 66.7239 173.213 67.8692C175.027 68.692 178.8 68.7174 178.713 66.0295C178.642 63.8487 173.752 62.6446 171.993 61.5556C166.454 58.1252 168.327 51.4557 174.532 50.6369C177.41 50.2569 181.357 51.7848 182.348 54.6774H182.35Z" fill="black"/>
<path d="M103.877 50.8162L113.636 60.4892L114.195 60.5454L124.047 50.8162V71.7143C122.913 71.729 119.916 72.0648 119.916 70.3777V60.5361C118.02 61.7455 116.202 64.7465 114.461 65.8944C114.227 66.0496 114.042 66.1928 113.737 66.1379L103.877 56.2829V50.8162Z" fill="black"/>
<path d="M31.6979 54.6963C30.4884 55.1432 30.1472 56.3058 28.6635 56.1868C28.3946 56.1654 27.3363 54.8074 26.3636 54.5759C24.4196 54.1157 21.1966 54.7284 22.5024 57.225C23.8965 59.8901 31.4825 59.7817 32.1688 65.0531C33.2659 73.4819 19.844 74.3756 17.1053 67.4801C18.0164 67.0145 19.0011 65.5307 20.1263 65.9147C20.4139 66.0124 20.4768 66.4338 20.7136 66.6118C22.4382 67.9149 23.6651 68.6601 25.9783 68.2962C27.7591 68.0166 28.6782 66.0017 27.4607 64.6571C26.5295 63.6282 22.6523 62.3947 21.1765 61.4648C15.6362 57.9755 17.9267 51.2338 24.0731 50.601C26.9041 50.3093 30.657 51.8787 31.6979 54.6963Z" fill="black"/>
<path d="M83.708 50.8161C83.8378 50.6863 86.5176 50.8763 86.9177 51.069C87.0796 51.1466 87.8395 52.3146 87.8395 52.3962V62.2378L93.7932 56.4099L103.878 66.4897V71.7142L103.01 71.4881L94.0193 62.2204L83.708 71.7142V50.8161Z" fill="black"/>
<path d="M137.895 50.8178L148.347 71.9581C146.939 71.2798 145.019 72.3033 143.816 71.146L138.518 60.527L137.417 59.0794L131.516 71.1634C130.396 71.9394 129.103 71.7039 127.808 71.7106C127.501 71.7119 126.632 72.1976 126.826 71.4631C129.334 67.1323 131.34 62.5352 133.636 58.096C134.521 56.3875 136.233 52.4996 137.208 51.2192C137.416 50.9462 137.464 50.7215 137.896 50.8191L137.895 50.8178Z" fill="black"/>
<path d="M133.844 92.5364C129.581 88.7621 134.539 81.5522 139.832 84.9705C145.241 88.4638 138.772 96.9006 133.844 92.5364ZM139.278 91.0781C140.442 89.6786 139.956 86.3191 137.971 85.8616C133.441 84.8167 133.275 91.161 135.895 91.8246C136.958 92.0935 138.536 91.9718 139.279 91.0781H139.278Z" fill="black"/>
<path d="M73.4448 84.169C80.5331 83.294 80.5491 94.4629 73.3993 93.5638C68.0704 92.8935 67.9781 84.8433 73.4448 84.169ZM72.1176 86.3712C70.6459 87.673 70.9683 91.557 73.3672 91.8941C78.1288 92.5631 77.7729 86.3057 74.8242 85.824C74.0174 85.6929 72.7464 85.8146 72.1176 86.3712Z" fill="black"/>
<path d="M92.6426 84.1691C99.9436 83.27 99.6238 94.7667 92.391 93.5264C87.2481 92.6447 87.3605 84.8193 92.6426 84.1691ZM92.3843 85.8615C89.8744 86.4382 89.9119 91.1369 91.9575 91.7764C97.5099 93.5104 97.5554 84.6735 92.3843 85.8615Z" fill="black"/>
<path d="M121.86 93.5851V84.3508H126.599C127.312 84.3508 128.979 85.8078 129.358 86.4527C130.354 88.1532 130.045 91.0323 128.547 92.3743C128.196 92.6873 126.251 93.5851 125.87 93.5851H121.86ZM123.56 85.8092V91.7628C123.742 92.0104 123.772 92.0264 124.057 92.0278C126.307 92.0331 128.198 91.51 128.18 88.8449C128.163 86.1798 125.832 85.5175 123.562 85.8105L123.56 85.8092Z" fill="black"/>
<path d="M105.699 84.3508C108.201 84.7963 108.396 89.198 105.575 89.8215L107.765 93.5837L105.616 93.5462L103.842 89.978L102.662 89.9406V93.5864H100.962V84.3521C102.393 84.5287 104.345 84.1113 105.701 84.3521L105.699 84.3508ZM105.52 86.1101C105.017 85.6057 103.375 85.8733 102.661 85.8078V88.4836C103.435 88.3752 104.879 88.7378 105.48 88.2628C105.987 87.8615 105.925 86.5169 105.521 86.1101H105.52Z" fill="black"/>
<path d="M118.945 93.585L117.232 93.4753L116.358 91.6758C114.401 91.7574 112.227 90.7861 112.371 93.5756L110.438 93.585L113.629 84.3855L115.908 84.5915L118.942 93.585H118.945ZM116.027 90.4248C116.171 90.2884 115.095 87.25 114.927 86.7844C114.843 86.5516 114.904 86.2251 114.572 86.296L113.368 90.0489C113.438 90.5399 115.582 90.3967 116.027 90.4248Z" fill="black"/>
<path d="M66.9385 87.0227C64.846 87.5686 64.6092 85.7504 62.6866 85.7905C58.6314 85.8761 59.0649 92.8787 63.6084 91.8325C64.6266 91.5984 65.2273 90.0424 66.9385 90.6712C65.9284 94.8201 59.3445 94.3665 58.3036 90.4344C56.7275 84.478 64.5423 81.4878 66.9372 87.0227H66.9385Z" fill="black"/>
<path d="M82.9788 84.3508V92.1281H87.3524V93.5851H81.0348V84.3508H82.9788Z" fill="black"/>
</svg>
