<svg width="200" height="129" viewBox="0 0 200 129" fill="none" xmlns="http://www.w3.org/2000/svg">
<path fill-rule="evenodd" clip-rule="evenodd" d="M90.0389 66.3216C100.19 65.2897 100.193 80.6935 91.4165 81.3924C81.6755 82.1681 81.6811 67.1705 90.0389 66.3216ZM94.0512 77.5337C94.9478 74.6465 94.8636 66.4608 90.2072 67.1962H90.209C86.8552 67.725 86.9632 74.8495 87.6621 77.2482C88.8624 81.3704 92.7138 81.8425 94.0512 77.5337Z" fill="black"/>
<path d="M54.1649 69.0861C55.4473 65.5939 60.5652 65.7598 63.2697 67.36L62.4843 69.6314C62.2556 69.6716 62.3489 69.5983 62.3013 69.5068C62.1055 69.1245 62.0085 68.7769 61.7304 68.411C60.2008 66.3984 56.2361 66.6014 56.5106 69.6807C56.6953 71.7555 60.0544 72.2094 61.6096 73.0089C62.9489 73.6969 64.0943 74.7635 64.2389 76.3498C64.6944 81.3685 58.9074 82.2376 55.2609 80.7612C55.0468 80.6752 54.1595 80.3056 54.1795 80.075L55.0211 77.7989L55.6852 78.9333C57.0977 81.2953 61.9994 81.1874 61.5969 77.7642C61.3518 75.6876 57.9231 75.2044 56.366 74.392C54.304 73.3162 53.3251 71.3695 54.1649 69.0861Z" fill="black"/>
<path d="M169.076 70.8224C168.888 65.8916 175.204 65.3592 178.473 67.3572L178.475 67.3554C178.133 68.0799 177.996 69.0075 177.511 69.6314C177.052 67.7432 175 66.6766 173.158 67.2566C171.488 67.7835 171.158 70.0303 172.475 71.108C174.62 72.8626 179.119 72.5717 179.445 76.4304C179.849 81.2149 174.411 82.148 170.84 80.9075C170.576 80.8159 169.331 80.3221 169.358 80.0495L170.265 77.7953C171.05 79.7109 172.519 80.7557 174.646 80.5069C176.94 80.2379 177.604 77.5172 175.747 76.1779C173.438 74.5111 169.228 74.7983 169.076 70.8224Z" fill="black"/>
<path d="M158.634 66.4313C160.453 66.0452 162.879 66.338 164.421 67.412C164.454 67.5222 163.838 69.1884 163.732 69.4209C163.691 69.5069 163.673 69.6258 163.552 69.635L163.55 69.6314C163.042 67.7853 161.104 66.6949 159.264 67.2346C157.46 67.7634 157.112 70.0924 158.605 71.1975C160.87 72.8753 165.102 72.621 165.472 76.4468C165.942 81.3064 160.138 82.1791 156.616 80.8233C156.32 80.7099 155.376 80.3367 155.42 79.9909C155.452 79.7274 155.988 78.3645 156.131 78.0606C156.177 77.9618 156.217 77.8666 156.307 77.7989C157.092 79.7383 158.535 80.7739 160.687 80.5105C162.22 80.3238 163.17 78.9223 162.736 77.4294C161.977 74.8239 156.157 75.4167 155.237 71.761C154.594 69.2142 156.122 66.9637 158.634 66.4313Z" fill="black"/>
<path fill-rule="evenodd" clip-rule="evenodd" d="M143.305 66.4679C143.695 66.4222 146.882 66.4185 147.043 66.5154L152.527 79.5554C152.834 80.1482 153.323 80.8361 154.066 80.7831V81.1326H149.984L147.746 76.0845L142.473 76.0809L140.625 80.9934C140.426 81.2679 139.811 81.0814 139.491 81.1326L144.303 68.3378C144.396 67.681 143.746 66.8358 143.059 66.8247C142.877 66.5905 143.075 66.4954 143.305 66.4679ZM142.83 75.2502H147.395L145.067 69.6314L142.83 75.2502Z" fill="black"/>
<path d="M79.8239 66.4677C80.0416 66.4494 80.3507 66.424 80.4861 66.6032V81.1307C80.0982 81.0721 79.5768 81.2696 79.2493 81.0061L69.8615 69.6312V81.1307L68.8643 81.1178L68.7197 80.9111V67.9188C68.6978 67.6516 68.5294 67.2564 68.3263 67.0826C68.0097 66.8137 67.3328 66.9343 67.6639 66.5117L71.4917 66.5519L79.4323 76.2144V66.6032L79.5786 66.4861C79.6591 66.4605 79.7434 66.475 79.8239 66.4677Z" fill="black"/>
<path d="M98.7479 66.5136C98.9016 66.4075 102.118 66.4185 102.486 66.4679C102.608 66.4844 102.715 66.4862 102.795 66.5978L106.214 75.864L106.409 75.7534L109.364 67.756L110.017 67.6992L113.411 76.392L116.966 66.5594C117.09 66.4094 118.029 66.4167 118.065 66.6069L112.802 81.0922L112.018 81.1215L108.804 72.6155L105.761 80.9861C105.598 81.2569 105.143 81.0886 104.863 81.138L99.8457 67.7907C99.7231 67.5473 99.4579 67.145 99.2329 66.9986C98.9346 66.8046 98.4406 66.9125 98.7479 66.5136Z" fill="black"/>
<path d="M136.157 66.6033V81.1307L136.155 81.1324H133.257V69.3698C133.074 69.4503 133.001 69.6973 132.918 69.8656C131.277 73.2102 129.733 76.606 128.068 79.9396C127.98 80.1482 127.269 80.1298 127.19 80.0255L122.019 69.8967V81.1324H120.965V67.7449C120.965 67.6533 120.698 67.2254 120.605 67.1394C120.299 66.8539 119.568 66.9491 119.955 66.5594H124.171L128.56 76.0387L133.303 66.4715H136.025L136.157 66.6033Z" fill="black"/>
<path fill-rule="evenodd" clip-rule="evenodd" d="M34.3718 51.4319C37.3633 57.2538 47.2011 59.5427 46.5901 67.2162C46.3193 70.6248 43.5218 73.3803 40.2009 73.9091C39.0574 74.0902 37.9651 73.986 36.8454 74.4178C35.0377 75.1149 34.6223 76.703 34.454 78.4796H34.4559L32.8093 79.6396C32.5531 77.702 32.7086 75.2429 30.524 74.4178C29.3823 73.986 28.1711 74.0975 26.9928 73.9091C22.9054 73.2596 19.9706 69.5582 20.6257 65.3994C21.7545 58.2382 32.0335 56.4432 33.51 49.3551L34.3718 51.4319ZM33.5593 54.5368C32.7287 55.468 31.9109 56.3957 30.9632 57.2117C27.7997 59.9379 21.1378 63.2588 23.3078 68.4623C25.1082 72.7839 29.5818 70.7384 32.5714 72.8077C32.9575 73.0748 33.2977 73.3548 33.5538 73.7554C35.9616 70.656 40.0785 72.6687 42.7735 70.0706C43.2383 69.6223 43.7449 68.7952 43.9608 68.1859C45.7996 62.9806 38.891 59.6836 35.7916 56.8622L33.5593 54.5386V54.5368Z" fill="black"/>
<path d="M63.271 67.3608C63.2706 67.3605 63.2701 67.3603 63.2697 67.36L63.271 67.357V67.3608Z" fill="black"/>
<path d="M76.4939 47.5073C77.1746 47.5256 80.1369 48.0653 80.4461 48.6526C80.5722 48.8924 79.7343 50.5242 79.694 50.9341L78.9768 49.6771C77.6009 47.7377 73.5611 47.8805 73.7239 50.8006C73.8484 53.0291 77.2623 53.4591 78.9054 54.3116C80.5484 55.1643 81.5968 56.3792 81.5419 58.3553C81.4174 62.8122 75.8188 63.3538 72.5584 62.0603C72.2675 61.945 71.4167 61.6175 71.4533 61.2698C71.5155 60.6935 72.1833 59.7476 72.2309 59.0962C72.4358 59.0523 72.3718 59.1255 72.4267 59.2097C72.6755 59.5921 72.8109 60.0459 73.1237 60.4429C75.0193 62.847 79.6994 61.9889 78.7737 58.745C78.0052 56.0517 72.2931 56.692 71.3069 53.1297C70.3208 49.5674 73.2408 47.4231 76.4939 47.5073Z" fill="black"/>
<path d="M126.409 57.4312V47.7742L127.406 47.7871L127.55 47.9938L127.406 62.4225C127.009 62.4134 126.498 62.5761 126.229 62.2193L116.926 50.8482V62.3035C116.646 62.567 116.148 62.3839 115.784 62.4352V49.0476C115.784 48.8921 115.488 48.4568 115.347 48.3433C115.054 48.1054 114.399 48.1237 114.774 47.7742H118.462L126.409 57.4312Z" fill="black"/>
<path fill-rule="evenodd" clip-rule="evenodd" d="M85.4026 47.7744C87.9641 47.9464 90.9007 47.4488 93.3944 47.9922C96.0858 48.5777 97.6794 50.5226 97.2458 53.3366C96.6676 57.0782 92.829 57.4843 89.7058 57.3434V62.4354H86.6321L86.5441 49.2235C86.4709 48.5685 86.0739 48.1441 85.4079 48.1203L85.4026 47.7744ZM89.7058 56.5531H90.9793C94.3293 56.5531 95.1197 51.0329 92.7741 49.3167C92.5763 49.1721 91.7074 48.7405 91.5062 48.7405H89.7058V56.5531Z" fill="black"/>
<path fill-rule="evenodd" clip-rule="evenodd" d="M61.5641 47.7742C61.6848 47.8767 61.7306 48.0194 61.8001 48.153C63.8164 52.0611 65.0385 56.9025 67.0639 60.7978C67.3603 61.3668 67.9385 62.0785 68.6282 62.0876L68.6338 62.4334H64.5499L62.3124 57.3854H57.041L55.1565 62.3474L53.9691 62.4334L58.8707 49.5508C58.856 48.8537 58.3347 48.0964 57.5755 48.1201L57.5699 47.7742H61.5641ZM57.3943 56.465H61.9593L59.502 50.8482L57.3943 56.465Z" fill="black"/>
<path d="M110.251 47.7742C110.293 47.8017 110.652 48.4511 110.866 48.5207V48.6506H104.456V54.8825H109.197V55.6728H104.456V61.5552H110.251L110.866 62.4334H101.295V47.7742H110.251Z" fill="black"/>
</svg>
