<svg width="200" height="129" viewBox="0 0 200 129" fill="none" xmlns="http://www.w3.org/2000/svg">
<path d="M69.4305 91.3619C70.9844 91.3619 72.5383 91.7504 73.7037 92.5273L74.8692 93.6927C75.2576 94.8581 75.6461 95.2466 76.0345 96.8005L71.3729 97.5774C70.9845 96.0236 70.2075 95.6351 69.4305 95.6351C68.2651 95.6351 67.8767 97.189 67.8767 100.297C67.8767 102.628 68.2651 103.793 69.4305 103.793C70.2075 103.793 70.5959 103.016 70.9844 101.851H69.0421V98.3544H76.0345V107.289H72.9268L72.1498 106.124L71.3729 106.901C70.596 107.289 69.819 107.678 68.6536 107.678C64.7689 107.678 62.0496 104.57 62.0496 99.5198C62.0496 94.4697 64.7689 91.362 69.4305 91.3619Z" fill="black"/>
<path d="M131.707 91.2592C133.261 91.2592 134.815 91.6477 135.98 92.0362L137.534 93.59L134.815 96.3094C133.261 95.5324 132.484 95.1439 131.707 95.1439C130.93 95.1439 130.542 95.5324 130.541 95.9208C130.153 96.3093 130.541 96.6978 130.93 96.6978H133.261C134.038 96.6978 135.203 97.4748 135.98 97.8632C137.145 99.0286 137.534 100.194 137.534 101.748C137.534 105.244 134.815 107.575 130.541 107.575C129.376 107.575 128.211 107.575 127.045 107.186C125.914 106.81 125.149 106.433 124.04 105.346V107.134H112.386V91.5949H123.652V95.8681H117.825V97.422H122.486V101.307H117.825V102.861H124.04V105.142L127.045 102.136C127.822 102.913 128.211 102.913 128.988 103.302C129.765 103.69 130.153 103.69 130.93 103.69C131.707 103.69 132.095 103.302 132.095 102.913C132.095 102.525 131.707 102.136 130.541 102.136C127.045 101.748 124.714 99.8055 124.714 97.0863C124.714 93.59 127.434 91.2593 131.707 91.2592Z" fill="black"/>
<path fill-rule="evenodd" clip-rule="evenodd" d="M92.4808 107.289H87.0422L86.2653 104.57H82.3806L81.6037 107.289H76.942L81.2152 91.7504H87.0422L92.4808 107.289ZM83.1576 100.685H85.0999L83.9345 97.189L83.1576 100.685Z" fill="black"/>
<path d="M101.729 97.9659L103.672 91.7504H110.276V107.289H105.226V98.7429L102.895 107.289H99.7871L97.4563 98.7429V107.289H93.5716V91.7504H100.176L101.729 97.9659Z" fill="black"/>
<path d="M99.1345 63.5474H98.7461C98.3576 62.382 97.5807 61.2167 97.1922 60.4397C97.9691 60.0513 98.7461 60.0512 99.1345 60.0512V63.5474Z" fill="black"/>
<path d="M100.3 59.6628C101.077 59.6628 101.854 60.0512 102.242 60.0512C102.242 61.2166 101.465 62.382 101.077 63.159H100.3V59.6628Z" fill="black"/>
<path d="M96.4152 60.8282C96.8037 61.6051 97.1922 62.3821 97.5806 62.7705C96.4152 62.382 95.6383 61.9936 94.8613 61.6051C95.2498 61.2166 95.6383 60.8282 96.4152 60.8282Z" fill="black"/>
<path d="M103.796 60.8282C104.185 60.8282 104.573 61.2166 104.962 61.6051L102.631 62.7705C103.019 61.9936 103.408 61.6051 103.796 60.8282Z" fill="black"/>
<path d="M94.8613 56.1665C95.2498 57.3319 95.2498 58.4973 95.6383 59.6628C94.8614 60.0512 94.4729 60.4397 94.0844 60.4397C92.919 59.2743 92.5305 57.7204 92.1421 56.1665H94.8613Z" fill="black"/>
<path d="M107.681 56.1665C107.681 57.7204 106.904 59.2743 105.739 60.4397C105.35 60.4397 104.573 60.0512 104.185 59.6628C104.573 58.4973 104.573 57.3319 104.962 56.1665H107.681Z" fill="black"/>
<path d="M103.796 56.555C103.796 57.7204 103.408 58.4973 103.019 59.6628C102.242 58.8858 101.077 58.8858 100.3 58.8858V56.555H103.796Z" fill="black"/>
<path d="M99.1345 58.4974C98.3576 58.4974 97.5807 58.8858 96.8037 59.2743C96.4153 58.1089 96.4152 57.3319 96.0268 56.1665H99.1345V58.4974Z" fill="black"/>
<path d="M94.4729 50.728C94.8613 51.1164 95.6383 51.5049 96.0268 51.5049C95.6383 52.6703 95.2498 53.8358 95.2498 55.0012H92.5305C92.5305 53.4473 93.3075 51.8934 94.4729 50.728Z" fill="black"/>
<path d="M96.8037 51.8934C97.5807 52.2819 98.7461 52.6703 99.1345 52.6703V55.0012H96.0268C96.0268 53.8358 96.4153 53.0588 96.8037 51.8934Z" fill="black"/>
<path d="M102.631 51.8934C103.408 53.0588 103.408 54.2242 103.796 55.0012H100.3V52.6703C101.077 52.6703 101.854 52.2819 102.631 51.8934Z" fill="black"/>
<path d="M105.739 50.728C106.904 51.8934 107.292 53.4473 107.292 55.0012H104.962C104.962 53.8358 104.573 52.6703 104.185 51.5049C104.573 51.1165 105.35 51.1164 105.739 50.728Z" fill="black"/>
<path d="M99.1345 51.5049C98.3576 51.5049 97.5807 51.1164 97.1922 51.1164C97.5807 50.3395 97.9691 49.1741 98.7461 48.3972L99.1345 48.0087V51.5049Z" fill="black"/>
<path d="M100.688 48.0087C101.465 48.7856 101.854 49.951 102.242 50.728C101.854 51.1164 101.077 51.5049 100.3 51.5049V48.0087H100.688Z" fill="black"/>
<path d="M97.1922 48.7856C96.8037 49.1741 96.4152 49.951 96.0268 50.3395C95.6383 50.3395 95.2498 49.951 94.8613 49.951C95.6383 49.1741 96.4152 48.7856 97.1922 48.7856Z" fill="black"/>
<path d="M104.962 49.5625C104.573 49.951 104.185 50.3395 103.796 50.3395C103.408 49.951 103.019 49.1741 102.631 48.3972L104.962 49.5625Z" fill="black"/>
<path fill-rule="evenodd" clip-rule="evenodd" d="M99.9332 45.1651C105.76 45.1651 110.422 49.8267 110.422 55.6537C110.422 61.4808 105.76 66.1424 99.9332 66.1424C94.1062 66.1424 89.4445 61.4808 89.4445 55.6537C89.4445 49.8267 94.1062 45.1651 99.9332 45.1651ZM99.9114 46.8433C94.8613 46.8433 90.9766 50.728 90.9766 55.7781C90.9766 60.8282 94.8613 64.7129 99.9114 64.7129C104.962 64.7129 108.846 60.8282 108.846 55.7781C108.846 50.728 104.962 46.8433 99.9114 46.8433Z" fill="black"/>
<path fill-rule="evenodd" clip-rule="evenodd" d="M100.346 38.7476L118.061 21.0334L137.64 40.6122L122.722 55.5294C125.83 58.9479 137.64 70.4466 137.95 70.1358L118.372 89.7146L100.346 71.6897L82.3215 89.7146L62.7427 70.1358L77.6599 55.2186L62.7427 40.3015L82.3215 20.7227L100.346 38.7476ZM105.941 41.8554V45.2738C104.076 44.3415 101.9 43.7199 99.725 43.7199C97.2388 43.7199 95.3741 44.3415 93.5095 45.2738V41.8554L81.7 30.0459L70.8228 40.923L85.7401 55.8403L70.8228 70.7574L81.7 81.6346L93.5095 69.8251V66.4065C95.3742 67.3388 97.5496 67.9604 99.725 67.9604C102.211 67.9604 104.076 67.3388 105.941 66.4065V69.8251L117.75 81.6346L128.627 70.7574L113.71 55.8403L128.627 40.923L117.75 30.0459L105.941 41.8554Z" fill="black"/>
</svg>
