<svg width="200" height="129" viewBox="0 0 200 129" fill="none" xmlns="http://www.w3.org/2000/svg">
<path d="M39.9634 67.6965H42.772V73.063H32.7826V67.6965H35.5784V64.5522H26.698V67.6965H29.5236V83.5029H26.698V86.6323H35.5784V83.5029H32.7805V76.1691H42.7699V83.5029H39.9634V86.6323H48.8651V83.5029H46.031V67.6965H48.8673V64.5522H39.9656M147.086 83.5029H138.333V76.1372H145.862V73.0205H138.33V67.6965H147.151V70.7176H150.253V64.5522H132.11V67.6965H135.069V83.5029H132.11V86.6323H150.296V79.2751H147.088M71.2065 79.2751H67.9985V83.5029H59.2455V76.1372H66.7769V73.0205H59.2455V67.6965H68.0686V70.7176H71.1704V64.5522H53.0271V67.6965H55.9865V83.5029H53.0249V86.6323H71.2065M139.176 63.4624H145.539L143.912 61.5227H137.389M167.991 74.0063C165.771 73.3732 164.203 73.5177 161.944 72.7635C159.905 72.0794 159.501 70.8259 159.501 69.9952C159.501 69.1603 160.402 66.9954 163.606 66.9954C166.814 66.9954 168.913 69.1157 169.032 70.9831L169.044 70.9746V70.9831H172.125V64.5459H169.144V65.948L169.238 66.3857C169.217 66.322 169.132 66.1456 168.817 65.8333C168.813 65.8269 168.813 65.8227 168.813 65.8163C167.868 64.9665 166.066 64.0402 163.357 64.0402C160.075 64.0402 156.208 66.0755 156.208 70.0101C156.208 73.8448 158.979 75.1833 161.328 75.8036C163.682 76.4282 164.883 76.4282 166.846 76.9594C168.804 77.4905 170.075 78.6717 170.075 80.4223C170.075 82.0794 169.055 84.2528 164.908 84.2528C160.755 84.2528 159.115 82.0136 158.634 78.8098L158.6 78.8247H155.669V86.6386H158.732V85.177L158.724 85.1664L158.613 84.7797C158.613 84.7797 158.724 85.041 159.072 85.2832L159.102 85.3257C160.653 86.5154 162.688 87.3057 165.297 87.3057C168.207 87.3057 173.302 85.8122 173.302 80.5222C173.294 76.7363 171.284 74.9517 167.991 74.0042V74.0063ZM118.966 83.5029V86.6323H127.973V83.5029H125.02V67.6965H127.973V64.5522H119.922L114.589 77.4565L114.479 78.0896L114.372 77.4459L109.04 64.5501H100.996V67.6944H103.943V83.5007H100.992V86.6302H109.994V83.5029H107.179V68.967L107.2 68.0067L107.461 68.7715L113.601 83.4625H115.347L121.509 68.7673L121.734 67.9939L121.768 68.865V83.5029M57.4354 55.2554V55.9777H60.4735C60.1729 55.7513 59.8836 55.5102 59.6067 55.2554H57.4354ZM139.263 55.2681H137.682C137.243 55.3531 136.918 55.7249 136.882 55.9777H139.261V55.266L139.263 55.2681ZM57.4354 58.0852H139.25V56.5556H86.6305C85.2856 57.1972 83.5797 57.1674 82.2497 56.5556H66.2734C64.765 57.2184 63.0271 57.2142 61.5145 56.5619L57.4354 56.5513V58.081V58.0852ZM80.4736 55.2554H68.1175C68.075 55.3404 67.5098 55.829 67.2804 55.9777H81.2597C80.9699 55.769 80.706 55.5265 80.4736 55.2554Z" fill="black"/>
<path d="M58.8376 49.5788C58.6862 50.0625 58.6053 50.5655 58.5976 51.0723C58.6363 52.4466 59.2093 53.7516 60.195 54.7101C61.1806 55.6685 62.5011 56.2049 63.8759 56.2052C65.2507 56.2054 66.5715 55.6696 67.5575 54.7116C68.5435 53.7535 69.1171 52.4487 69.1564 51.0745C69.1564 50.4499 69.0289 49.8571 68.8292 49.3005C69.4368 49.1943 70.0317 49.0668 70.618 48.9032C70.8942 48.8289 70.8836 48.7035 70.6669 48.6376C69.8851 48.3976 69.0523 48.2127 68.2025 48.0555C67.7174 47.3581 67.071 46.7883 66.3182 46.3947C65.5654 46.0011 64.7286 45.7954 63.8791 45.7951C63.1992 45.7951 62.5576 45.9331 61.967 46.1668C61.9585 46.1626 61.95 46.1498 61.9458 46.1456C61.8255 45.9287 61.7572 45.687 61.7461 45.4393C61.7351 45.1915 61.7816 44.9446 61.882 44.7179C62.4195 43.8426 63.6114 43.5006 64.5908 43.4177C64.9201 43.4007 65.7104 43.439 65.7954 43.5324C65.9866 43.6854 66.3159 43.7407 66.6664 43.6174C67.0021 43.7449 67.0871 43.8448 67.4695 43.9637C70.8347 45.111 74.5611 45.7164 78.3258 45.026C78.9142 45.5826 79.2393 46.5599 79.6515 47.2355C79.7619 47.4054 79.8958 47.108 81.7505 47.0443C82.4048 47.0188 83.2079 47.023 83.9068 47.04C82.4622 47.2057 81.2193 48.0173 80.4821 49.19C79.3222 49.5597 78.4277 49.9124 78.0921 50.1163C77.6799 50.3649 77.6034 50.503 78.0921 50.6304C78.6827 50.7855 79.2563 50.8854 79.8278 50.9555C79.7895 51.1892 79.7556 51.4293 79.7556 51.6736C79.7556 52.9163 80.2492 54.1081 81.1279 54.9868C82.0067 55.8655 83.1985 56.3592 84.4412 56.3592C85.6839 56.3592 86.8757 55.8655 87.7544 54.9868C88.6331 54.1081 89.1268 52.9163 89.1268 51.6736C89.1268 50.8663 88.9037 50.1163 88.5447 49.4535C89.1353 49.241 89.7556 49.0073 90.4142 48.7524C90.9241 48.9372 91.2704 49.241 91.6358 49.6659C91.9333 50.0016 92.6067 49.8699 93.0061 49.7721C93.6541 49.6022 93.754 49.0859 93.7497 48.4974C93.7497 48.2297 93.7625 47.9663 93.8899 47.7539C94.6484 46.0266 97.6801 45.7993 99.2352 45.4169C99.2352 45.4169 98.4215 46.3942 97.8458 46.6109C97.7289 49.1327 96.7623 51.3273 96.6454 53.7322C97.3784 53.762 97.3465 54.582 97.5228 55.0494C97.3189 55.4913 96.9662 55.0494 96.6454 55.1981C95.5322 54.582 96.9089 53.5878 95.9996 52.8251C96.467 50.8068 97.2318 48.8416 97.168 46.7022C96.877 46.732 96.7644 47.0549 96.6433 47.2886C96.4372 49.3132 95.853 51.1594 95.3261 53.0333C95.5598 53.1501 95.9698 53.267 95.9422 53.6196C95.2369 54.0594 95.9698 54.7669 95.6766 55.2682H88.4427L87.6396 55.9906H98.7338L98.84 55.5827C97.2042 53.8831 97.8203 51.3337 98.5787 49.4003L100.482 46.8212C102.065 46.2051 103.032 44.2718 104.702 43.6557C104.702 44.4779 103.675 44.8305 103.119 45.2979C102.537 46.6746 100.688 46.8212 100.425 48.3466C101.126 49.1667 102.178 49.6935 103.059 50.4562C103.969 51.015 103.641 52.1856 104.377 52.7719C104.495 52.9483 104.377 53.2117 104.168 53.3583C103.397 53.5431 103.42 54.0637 103.886 54.4971C104.183 54.7732 104.523 55.1344 104.485 55.2704H99.3648C99.3648 55.5041 99.573 55.5933 99.7982 55.9927H128.075C128.288 55.5933 127.827 55.1217 127.629 54.7286C125.632 53.9744 125.643 52.0857 125.526 50.0037C125.547 49.9187 125.411 49.7211 125.433 49.292C125.135 49.0116 123.822 45.6697 124.419 43.0544L124.855 42.194C125.265 41.6055 124.829 41.2911 125.12 40.6771L131.079 39.5256C131.186 39.4704 131.158 39.2282 131.046 39.1177L129.235 39.4534C127.797 38.8479 125.687 37.5095 124.298 35.693C124.729 32.7484 124.515 30.3605 124.224 28.7671C125.095 28.0448 125.804 27.3607 125.804 27.3607C126.406 27.7218 126.535 27.5519 126.618 27.3564C126.522 27.2459 125.63 26.8678 125.777 26.4811C126.34 26.6298 126.465 26.4556 126.552 26.1412L126.157 26.001H126.144L126.208 25.7885C126.323 25.5548 126.854 25.7758 127.058 25.7163C127.413 25.4996 127.015 25.1745 127.134 24.8814C126.306 24.1803 124.81 24.159 123.905 23.5068C123.625 22.9842 123.51 22.7632 123.217 22.5508C122.915 22.3383 121.602 22.2172 121.358 22.2958C121.118 22.3808 120.657 22.8121 120.657 22.8121C119.715 23.0097 119.148 22.7059 118.5 22.3128C118.5 22.3128 118.638 23.0564 119.38 23.3708C118.725 23.6385 118.437 24.1909 118.33 24.8835C117.43 25.0662 117.396 25.9627 117.512 26.3706C116.775 26.8104 116.847 27.3947 117.109 27.9853C116.45 28.4272 116.55 29.0645 116.737 29.551C116.185 29.891 116.737 30.8342 116.822 31.3866C118.409 31.0594 120.391 34.5628 123.238 34.994C123.773 32.4935 123.102 31.2676 122.486 30.0333C122.949 29.7635 123.452 29.3917 123.941 29.0008C124.226 30.5836 124.43 32.8759 124.111 35.4954C124.09 35.4742 124.069 35.4572 124.056 35.4359C123.877 35.4359 123.699 35.317 123.554 35.2596C123.584 35.3446 123.911 35.8651 123.846 35.9607C123.846 35.9607 122.923 36.5704 121.094 35.8014C120.606 36.9443 114.326 39.7529 114.326 39.7529C114.559 41.4865 115.384 42.638 116.233 43.5771C117.582 44.5756 119.023 45.0897 120.725 45.4424C121.082 46.3644 122.233 49.4322 122.339 49.9251C122.454 50.418 122.728 50.418 122.728 50.418C122.892 50.6389 123.429 51.6162 123.489 52.0857L123.622 53.7428C123.68 54.121 124.175 53.8363 124.268 54.1593L124.039 55.2725L105.226 55.2767C105.49 53.9595 104.818 52.8081 105.167 51.6353C104.411 50.3181 102.358 49.4088 102.707 47.6795C103.705 46.3028 106.807 44.9601 106.106 43.2966C108.925 41.8668 110.412 44.2527 113.083 44.0763C114.013 44.0253 115.05 43.9234 115.902 43.6727C114.848 42.7591 113.841 41.4164 113.31 40.2161C107.714 42.4681 102.271 44.3228 96.2035 45.5529L95.7361 45.4041C95.2751 45.4743 88.5914 46.9763 86.8196 47.6667C86.3544 47.387 85.8439 47.1907 85.3112 47.0868H85.4662C86.0335 47.0868 86.9003 46.7851 87.5143 46.5705C90.1104 45.623 91.0665 41.9263 92.2307 39.5766C93.2505 43.2308 95.6171 43.5282 96.9896 43.0736L97.1171 44.2208C97.1171 44.2208 98.3153 44.1783 99.2161 43.8171C99.1247 43.6004 99.0036 43.0204 98.9186 42.2577C99.4646 41.9752 99.7599 41.7691 100.009 41.6246C100.083 42.4914 100.136 43.3094 99.8768 43.7491L102.966 42.9248C103.561 40.2543 105.175 36.5428 108.029 33.8319C104.198 32.3087 101.328 34.0486 100.599 34.7455C96.9938 35.897 96.8494 40.8726 96.9577 42.5849C96.3331 42.7081 93.7115 43.6174 92.4708 39.0795C93.1931 37.3374 94.5634 35.3998 96.1037 33.8893C96.2375 33.7767 96.0824 33.5982 95.7744 33.7788C92.679 35.9033 91.5466 39.6425 89.8831 42.7995C88.5786 44.7604 86.8174 45.8227 84.1767 45.7101C80.8794 45.6591 79.2839 42.2195 77.7734 39.9866C75.4577 34.9154 69.4665 36.7361 65.0136 35.6526C64.765 35.5252 64.27 34.0593 63.5604 34.1145C63.0569 34.1527 63.5307 34.6711 63.2417 34.8453C62.683 34.6116 62.2135 34.2016 61.5124 34.3184C61.0726 34.4077 60.9536 34.8751 60.9855 35.2872C61.336 36.8976 63.0633 37.6029 64.3529 38.1893C64.8479 38.9286 64.663 41.4823 64.2509 42.3597C63.7197 43.337 61.6314 42.9886 61.2128 45.2278C61.1321 45.6825 61.2341 46.0776 61.421 46.4494C60.61 46.8759 59.9234 47.5054 59.4282 48.2765C58.5423 48.4889 57.6776 48.7269 56.8703 49.0158C56.6579 49.0923 56.6579 49.2155 56.9341 49.2793C57.5565 49.4067 58.196 49.5129 58.8419 49.5937L58.8376 49.5788ZM124.812 37.0399C125.577 37.8749 127.404 39.1432 128.573 39.5575L125.188 40.1842C125.571 38.7502 124.268 38.1999 124.812 37.0399ZM125.178 25.4337C125.305 25.3806 125.662 25.5187 125.809 25.557C125.898 25.5782 125.864 25.7694 125.819 25.9394C125.598 25.9861 125.254 25.865 125.207 25.7482C125.144 25.6207 125.052 25.489 125.178 25.4337ZM125.205 26.3048C125.248 26.5534 125.35 26.8359 125.496 27.0484C125.492 27.1631 124.865 27.7431 124.143 28.3549C123.965 27.469 123.782 26.8593 123.739 26.6171C124.026 26.4131 124.802 26.1922 125.205 26.3048ZM121.965 23.1966C122.093 23.1541 122.352 23.2391 122.422 23.2901C122.492 23.3432 122.435 23.5578 122.431 23.63C122.431 23.7023 122.108 23.8552 122.108 23.8552C122.108 23.8552 121.802 23.6215 121.806 23.5493L121.791 23.5429C121.841 23.4236 121.899 23.3079 121.965 23.1966ZM122.363 29.7465C121.963 28.9392 121.64 28.0851 121.725 26.8359C122.112 26.8295 122.673 27.0824 123.414 26.7467C123.414 26.7467 123.644 27.4393 123.871 28.5738C123.319 29.0348 122.745 29.4831 122.363 29.7465ZM117.296 43.7895C116.085 43.1819 116.839 43.6918 117.189 43.4283C119.108 44.3121 120.075 44.1082 121.511 43.934C121.717 44.1974 121.999 44.4439 121.999 44.7944C120.242 45.2937 118.876 44.6457 117.294 43.7916L117.296 43.7895ZM124.207 53.2436C124.094 52.3131 124.041 51.6545 123.612 51.2104C123.272 50.2841 122.286 47.7092 121.585 45.3893C122.01 44.9686 122.339 45.1874 122.622 46.3411C122.892 47.2716 123.217 48.0407 123.463 48.8182C123.79 49.6001 124.037 50.6411 124.287 51.1892C124.287 51.1892 124.508 51.2274 124.632 51.5227C125.248 53.2436 125.409 53.5198 125.305 54.3398C125.454 54.9836 126.359 54.4588 126.276 55.2534H124.355L125.201 55.247C124.619 54.6309 125.031 53.7131 124.207 53.2436ZM86.7473 54.7839C86.2162 55.1811 85.5788 55.434 84.8841 55.5147C84.8161 55.4934 84.7567 55.3554 84.7524 55.2704L84.6419 52.876C84.6377 52.8506 84.6802 52.8229 84.7057 52.8123C84.7652 52.7911 84.9287 52.7273 84.9946 52.6891C85.0201 52.6742 85.086 52.6678 85.1072 52.6891L86.6793 54.5119C86.7346 54.5799 86.7856 54.7286 86.7431 54.7881L86.7473 54.7839ZM84.3169 55.5487C83.6795 55.5274 83.0847 55.3469 82.5599 55.0558C82.5174 54.9963 82.5323 54.8391 82.5812 54.769L83.8941 52.7677C83.9069 52.7465 83.9578 52.7465 83.9876 52.755C84.0428 52.7719 84.1724 52.8081 84.2468 52.8187C84.2765 52.8187 84.3318 52.8612 84.3318 52.8888L84.4486 55.2895C84.4529 55.3745 84.3849 55.5232 84.3148 55.5444L84.3169 55.5487ZM81.0026 50.5625C80.9177 50.537 80.7902 50.4222 80.7944 50.35C80.9155 50.0186 81.0706 49.7063 81.2725 49.4237C81.5911 49.3324 81.9204 49.2453 82.2497 49.1603L83.312 50.4987L83.2631 50.5051C82.5748 50.5901 81.9311 50.6326 81.3213 50.6411L81.0026 50.5561V50.5625ZM83.9918 47.8218C84.0556 47.8473 84.1193 47.9833 84.1193 48.0662L84.1299 48.2531C83.4926 48.3763 82.868 48.5144 82.2689 48.6674C82.2306 48.5888 82.2115 48.4974 82.2434 48.4549C82.7532 48.1086 83.3481 47.8962 83.9855 47.824L83.9918 47.8218ZM83.6562 50.435L82.5769 49.0838C83.0995 48.9563 83.6264 48.8395 84.1533 48.7354L84.2255 50.3181C84.0131 50.3691 83.8367 50.4031 83.6562 50.435ZM83.5542 50.8599C83.5499 50.8748 83.5542 50.8896 83.5457 50.9024C83.4947 50.975 83.4485 51.051 83.4076 51.1297C83.3948 51.1573 83.3439 51.1977 83.312 51.1934L82.5365 50.981C82.868 50.947 83.2058 50.9172 83.5563 50.8578L83.5542 50.8599ZM84.984 50.571C84.9712 50.5922 84.9202 50.5922 84.8905 50.5816H84.8799L84.9925 50.5561L84.9861 50.5688L84.984 50.571ZM84.5315 50.2417L84.4571 48.6759C85.1072 48.5527 85.7467 48.4507 86.3564 48.3785C86.3492 48.4436 86.3305 48.5068 86.3012 48.5654L85.3388 50.0271C85.0541 50.1121 84.7906 50.1779 84.5315 50.2417ZM86.5561 48.7333C86.5986 48.6631 86.7346 48.5845 86.8068 48.5994C87.083 48.8161 87.3379 49.0668 87.5504 49.3494C86.9768 49.5406 86.3819 49.7233 85.7913 49.9017L86.5561 48.7333ZM84.4316 48.1958L84.4274 48.047C84.4231 47.9578 84.4911 47.8006 84.5591 47.7857C84.9627 47.7963 85.3451 47.8749 85.7063 47.9982C85.2814 48.0534 84.8608 48.1171 84.4316 48.1936V48.1958ZM84.3785 47.7815C84.3997 47.7815 84.4167 47.7751 84.4359 47.7751L84.4868 47.7793H84.3764L84.3785 47.7815ZM78.8165 50.4244C78.6083 50.3606 78.6572 50.2969 78.7825 50.2438C79.2011 50.0781 79.6706 49.9145 80.1635 49.7551C80.0424 50.0271 79.951 50.3118 79.8788 50.6049C79.52 50.5777 79.1645 50.5158 78.8165 50.4244ZM80.6117 51.0298C80.9262 51.0468 81.2491 51.0426 81.5741 51.0362L83.2228 51.4887C83.244 51.4951 83.261 51.544 83.261 51.5737C83.261 51.6375 83.2716 51.8074 83.2907 51.8818C83.2907 51.9115 83.2695 51.9349 83.244 51.9455L81.0451 52.9164C80.9644 52.9483 80.8051 52.9462 80.7562 52.8909C80.6192 52.4986 80.546 52.0869 80.5395 51.6715C80.5395 51.4505 80.5692 51.2402 80.6032 51.0341L80.6117 51.0298ZM80.8561 53.1905L80.8497 53.1756C80.8497 53.182 80.8539 53.1862 80.8561 53.1905ZM80.975 53.4114C80.975 53.3392 81.0919 53.2287 81.1662 53.1947L83.3757 52.2727C83.397 52.2599 83.4395 52.2939 83.4565 52.3152C83.4947 52.3619 83.5521 52.432 83.6052 52.4851C83.6307 52.5064 83.6519 52.5701 83.6392 52.5914L82.322 54.6012C82.2752 54.6734 82.1308 54.7499 82.0628 54.7286C81.6077 54.376 81.2375 53.9259 80.9793 53.4114H80.975ZM82.2858 54.905C82.2646 54.8901 82.2497 54.8773 82.2306 54.8667L82.288 54.9028L82.2858 54.905ZM87.1935 54.4142C87.1297 54.4524 86.9704 54.3717 86.9109 54.308L85.3451 52.4873C85.3239 52.4703 85.3409 52.4235 85.3579 52.3959C85.3999 52.3334 85.4375 52.2681 85.4705 52.2005C85.4854 52.1728 85.5342 52.1325 85.5661 52.1367L87.8818 52.7783C87.954 52.7996 88.073 52.8782 88.0985 52.9483C87.9009 53.5007 87.5993 54.0063 87.1935 54.4142ZM88.2515 52.4172C88.2132 52.4809 88.039 52.5021 87.954 52.4809L85.6489 51.8435C85.6213 51.8372 85.6065 51.7883 85.6065 51.7586C85.6067 51.6698 85.601 51.581 85.5895 51.493C85.5831 51.4632 85.6001 51.3995 85.6256 51.3868L87.8648 50.537C87.9434 50.5072 88.0985 50.5221 88.1516 50.5752C88.2515 50.9236 88.3216 51.2827 88.3216 51.6651C88.3216 51.92 88.294 52.175 88.2472 52.4193L88.2515 52.4172ZM87.954 50.0271C87.954 50.1014 87.8372 50.2183 87.7586 50.2502L87.9073 50.1992L85.5215 51.0957C85.496 51.1063 85.4577 51.0745 85.4407 51.0532C85.388 50.9814 85.3313 50.9126 85.2708 50.8471C85.2432 50.8259 85.224 50.7664 85.2347 50.7409L85.4407 50.4286C86.1673 50.2374 86.9491 49.991 87.7777 49.7063C87.8414 49.8125 87.9052 49.9187 87.9562 50.0292L87.954 50.0271ZM94.1789 46.6066C93.1421 47.3544 93.6307 48.2361 92.9891 48.4125C92.7554 48.3785 91.451 48.6164 91.247 48.7099C90.8073 48.2999 90.359 47.9536 89.6834 47.7751C90.9687 47.2482 93.0061 46.7256 94.1789 46.6066ZM89.9617 48.4656C89.7386 48.5718 89.1438 48.8012 88.3428 49.0817C88.1434 48.782 87.9095 48.5068 87.646 48.2616C88.6488 48.2085 89.4667 48.2616 89.9617 48.4656ZM101.154 35.3403C99.5857 36.9167 99.7876 39.2707 99.9703 41.1233C99.6091 41.3867 99.163 41.6076 98.874 41.7691C98.7041 39.4959 98.9463 36.1052 101.154 35.3403ZM61.9139 36.1391C61.6505 35.7865 61.2638 35.2469 61.5634 34.8793C61.7843 34.6074 62.2347 34.8198 62.4982 34.9388C62.7212 35.0556 64.4782 36.0011 64.9562 36.1328C68.5041 37.0166 72.9869 35.7142 75.7997 38.2637C75.9378 38.3911 76.0377 38.5122 76.0079 38.6886C71.88 35.8757 65.6637 40.0355 61.9139 36.1391ZM65.2536 40.6814C65.5468 40.8577 65.6637 41.3251 65.9866 41.5885C66.5135 42.4681 67.5099 42.7612 68.0368 43.5218C67.8588 43.5358 67.6797 43.5229 67.5056 43.4836C67.1615 43.4156 67.0255 43.3136 66.7366 43.1862C66.5836 42.9376 66.1991 42.8547 65.8974 43.0162C65.6573 43.0587 64.9923 43.0268 64.5504 42.91C64.6354 42.2046 65.3153 41.529 65.2515 40.6792L65.2536 40.6814ZM61.1236 48.2659L62.2028 49.4662C61.421 49.4598 60.6668 49.4237 59.9509 49.3749C59.8956 49.2984 59.8659 49.2261 59.8808 49.1836C60.0188 48.8947 60.1867 48.627 60.38 48.3763C60.6201 48.3338 60.8729 48.302 61.1236 48.2701V48.2659ZM67.5226 48.5633C67.6543 48.7545 67.7606 48.9585 67.8625 49.1688C67.3314 49.2474 66.7663 49.3069 66.1714 49.3536L67.0149 48.6313C67.2273 48.4613 67.4695 48.4974 67.5226 48.5633ZM66.779 48.3763L65.5808 49.3961C65.2749 49.4173 64.9647 49.4258 64.6524 49.4386L65.141 48.0492C65.7487 48.0704 66.3393 48.1129 66.8895 48.1681C66.864 48.2425 66.8428 48.3168 66.7833 48.3763H66.779ZM66.4859 54.633C66.061 54.9432 65.5808 55.1726 65.0624 55.3192C64.969 55.3065 64.7905 55.162 64.7395 54.9496L64.2721 52.415C64.2636 52.3832 64.2764 52.3428 64.3082 52.33C64.3978 52.301 64.4834 52.261 64.5632 52.2111C64.5908 52.1898 64.6269 52.2047 64.6482 52.2281L66.3796 54.1316C66.5496 54.3313 66.5432 54.5608 66.4859 54.6309V54.633ZM62.819 50.1503C62.8402 50.1715 62.8487 50.2183 62.8296 50.2438C62.7765 50.3075 62.7573 50.3288 62.7149 50.4074C62.7 50.4371 62.6639 50.4414 62.6299 50.4286L60.7008 49.7403C61.2957 49.7743 61.8948 49.7891 62.4918 49.7891L62.819 50.1503ZM64.731 50.0547C64.6729 50.0013 64.6088 49.955 64.5398 49.9166C64.5058 49.8996 64.4973 49.8741 64.5101 49.838L64.5462 49.7403L65.2175 49.7063L64.8139 50.0462C64.7926 50.0674 64.7565 50.0759 64.731 50.0547ZM64.2742 49.4492C64.1043 49.4535 63.9428 49.4641 63.7771 49.4662H63.7686L63.503 48.0428C63.588 48.0385 63.6624 48.0279 63.7452 48.0215C64.0958 48.0215 64.4378 48.0343 64.782 48.0428L64.2721 49.4513L64.2742 49.4492ZM63.1525 48.064L63.4117 49.4662C63.1674 49.4705 62.9231 49.4705 62.6745 49.4662L61.5272 48.2127C62.0541 48.149 62.5938 48.1001 63.1525 48.064ZM63.4393 49.7849C63.4329 49.7934 63.4393 49.8104 63.4266 49.8146C63.3374 49.8465 63.252 49.8878 63.1716 49.9379C63.1419 49.9591 63.1079 49.9442 63.0866 49.9209L62.9677 49.7891C63.1249 49.7849 63.2863 49.7891 63.4414 49.7828L63.4393 49.7849ZM59.7852 49.36C59.7915 49.343 59.8064 49.3239 59.8128 49.3026C59.8053 49.3232 59.796 49.3431 59.7852 49.3621V49.36ZM59.5876 50.0016C59.6364 49.923 59.8638 49.8253 60.0805 49.8954L62.5088 50.7622C62.5364 50.7707 62.5619 50.8047 62.5555 50.8365C62.5416 50.9151 62.5345 50.9947 62.5343 51.0745C62.5343 51.1085 62.5066 51.1276 62.4769 51.1382L59.9402 51.6098C59.6895 51.646 59.5153 51.5249 59.4792 51.4399C59.4686 51.3124 59.4431 51.1934 59.4431 51.066C59.4431 50.6984 59.4983 50.3458 59.5876 50.0016ZM59.6301 52.2833C59.6386 52.1877 59.7852 51.9965 60.004 51.9476L62.5321 51.4845C62.5479 51.481 62.5644 51.4834 62.5785 51.4912C62.5926 51.499 62.6033 51.5118 62.6086 51.527C62.6341 51.5992 62.6426 51.6332 62.6894 51.7097C62.7042 51.7394 62.6957 51.7692 62.6681 51.7947L60.6562 53.4135C60.4395 53.5771 60.2101 53.541 60.1569 53.4773C59.9258 53.1062 59.7484 52.7042 59.6301 52.2833ZM60.2355 53.592C60.2143 53.5644 60.1931 53.5389 60.1761 53.507C60.1888 53.5325 60.2164 53.5644 60.2355 53.592ZM60.7093 54.1699C60.6626 54.0976 60.6966 53.83 60.875 53.6812L62.8848 52.0772C62.9061 52.0475 62.9422 52.0411 62.9698 52.0666C63.0272 52.1197 63.1185 52.1877 63.195 52.2302C63.2269 52.2472 63.2375 52.2727 63.2205 52.3109L62.3494 54.7371C62.256 54.9814 62.0605 55.077 61.9734 55.06C61.5046 54.8373 61.0777 54.5354 60.7114 54.1678L60.7093 54.1699ZM62.1816 55.1641C62.1545 55.155 62.1282 55.1436 62.103 55.1302L62.1816 55.1641ZM62.7892 55.3554C62.7085 55.3065 62.598 55.0877 62.666 54.871L63.5455 52.4363C63.554 52.4044 63.5838 52.3832 63.6156 52.3895C63.6943 52.4044 63.7644 52.4108 63.8557 52.4108C63.8918 52.4108 63.9131 52.4405 63.9195 52.4745L64.3932 55.0133C64.4315 55.2576 64.3189 55.417 64.2339 55.468C64.1149 55.4765 63.9959 55.5041 63.8727 55.5041C63.4967 55.5041 63.1398 55.4467 62.7935 55.3554H62.7892ZM66.9745 54.2294C66.9957 54.2081 67.017 54.1869 67.0297 54.1656C67.0085 54.1869 66.9936 54.2081 66.9745 54.2294ZM67.1296 54.0488C67.051 54.0976 66.8003 54.0806 66.641 53.9171L64.9222 51.9965C64.901 51.9753 64.8925 51.9328 64.9158 51.9051C64.9594 51.8547 64.9965 51.799 65.0263 51.7394C65.0412 51.7076 65.0773 51.7012 65.1071 51.7182L67.5715 52.5935C67.8264 52.6933 67.8902 52.8952 67.8689 52.9759C67.6777 53.366 67.4324 53.7272 67.1402 54.0488H67.1296ZM67.8732 52.9398C67.9093 52.876 67.9496 52.7741 67.99 52.6721C67.9541 52.7619 67.9152 52.8505 67.8732 52.9377V52.9398ZM68.1557 52.1388C68.1217 52.2196 67.9008 52.3385 67.6735 52.2663L65.2218 51.3868C65.1942 51.3783 65.1687 51.3443 65.1729 51.3124C65.1857 51.2317 65.1942 51.1934 65.1942 51.1063C65.1942 51.0723 65.2239 51.0532 65.2536 51.0426L67.8392 50.6389C68.0941 50.6071 68.2556 50.7282 68.2811 50.8153C68.2853 50.9003 68.3023 50.9852 68.3023 51.0702C68.3023 51.4378 68.2471 51.7925 68.16 52.1367L68.1557 52.1388ZM68.1451 49.9676C68.1451 50.0696 67.9964 50.2523 67.7754 50.2948L65.2048 50.6984C65.1891 50.7011 65.173 50.6983 65.1591 50.6906C65.1452 50.6829 65.1343 50.6706 65.1283 50.6559C65.1017 50.5676 65.0661 50.4821 65.0221 50.401C65.0008 50.3734 65.0093 50.3436 65.0327 50.316L65.7975 49.6617C66.5283 49.6064 67.2528 49.5236 67.9709 49.4173C68.041 49.5979 68.092 49.7785 68.1409 49.9697L68.1451 49.9676ZM69.4687 48.6376C69.6344 48.6908 69.6917 48.8012 69.4814 48.8586C69.2605 48.9181 68.9928 48.9648 68.7378 49.0179C68.6422 48.7927 68.5148 48.5867 68.3915 48.3806C68.791 48.4571 69.1564 48.5399 69.4665 48.6355L69.4687 48.6376ZM65.2685 47.6965L65.3747 47.3927C65.4682 47.1505 65.6722 47.0676 65.7657 47.0825C66.1778 47.2801 66.5581 47.5372 66.8916 47.8473C66.352 47.7774 65.8098 47.7278 65.2664 47.6986L65.2685 47.6965ZM64.9328 46.7829C65.0114 46.8403 65.1156 47.0698 65.0497 47.2822L64.9052 47.6859C64.5122 47.6689 64.1234 47.6476 63.7304 47.6519C63.6284 47.6519 63.5328 47.6731 63.4287 47.6731L63.3288 47.1292C63.2906 46.8786 63.4074 46.7171 63.4945 46.6767C63.622 46.6661 63.741 46.6385 63.8663 46.6385C64.236 46.6385 64.5887 46.698 64.9328 46.7829ZM62.6596 46.8254C62.7552 46.8361 62.9401 46.9827 62.9889 47.1994L63.0526 47.5456C62.8348 47.3449 62.6344 47.126 62.4535 46.8913L62.6617 46.8276L62.6596 46.8254ZM62.5109 47.7454C62.0987 47.7836 61.6887 47.8303 61.2829 47.8941C61.198 47.7284 61.1937 47.5754 61.2404 47.5202C61.4423 47.3714 61.6611 47.2397 61.8905 47.125C62.0733 47.3332 62.2815 47.5414 62.5109 47.7454ZM58.0452 48.9393C58.3766 48.8204 58.7803 48.7099 59.2264 48.6037C59.1087 48.8217 59.0058 49.0474 58.9184 49.2793C58.6145 49.2431 58.3022 49.2091 58.0473 49.1603C57.8306 49.122 57.8816 48.9988 58.0452 48.9393ZM136.025 36.3558C135.936 36.4302 135.906 36.5322 135.979 36.5471C136.115 36.5725 136.191 36.6193 136.348 36.7638C136.433 36.8062 136.412 36.6745 136.391 36.6023C136.306 36.3983 136.127 36.2751 136.03 36.3558H136.025Z" fill="black"/>
<path d="M132.839 55.2681H128.662C128.609 55.5506 128.938 55.7567 129.129 55.9755H133.69L134.965 55.3552C135.19 54.8028 134.736 54.3141 134.753 53.868C134.829 52.5381 134.088 51.2124 133.697 49.995C133.952 49.7252 134.27 49.1027 134.689 49.2684C135.666 50.7896 135.847 52.7314 135.681 54.6647C135.581 55.1427 134.768 55.5782 134.793 56.0286C134.808 56.1858 135.877 56.1179 136.319 55.7418C136.397 55.4316 136.971 55.0492 137.156 55.0046C137.36 54.4204 137.041 54.4395 137.092 54.0868C137.194 53.8425 137.058 51.2081 136.875 50.9256C136.807 50.8831 136.784 50.8831 136.78 50.8894C136.576 50.3668 137.073 49.5659 137.272 49.0709L138.73 48.9391C138.556 47.6432 138.092 46.2962 137.799 44.9663C137.978 44.6561 138.301 44.4139 138.596 44.2376C140.132 43.2242 138.779 41.5905 138.728 40.3285C138.466 39.6741 137.566 39.1643 137.483 38.4419C137.67 38.5864 137.812 38.5269 137.852 38.5375C138.292 38.2358 138.271 37.8003 138.052 37.2543C138.719 36.4598 139.127 36.0943 139.25 35.8415C139.208 35.1766 138.139 34.1844 137.512 34.1844C137.143 34.3884 136.896 34.8005 136.217 35.3274C136.195 35.355 135.401 35.0512 135.161 35.3061C134.927 35.4974 135.008 36.1135 135.437 36.447C135.384 36.6106 135.335 36.6743 135.246 36.8719C135.199 36.9696 135.178 37.0737 135.239 37.1311C135.379 37.2586 135.43 37.4562 135.331 37.76C135.224 38.0829 135.586 38.3208 135.713 38.3676C135.734 38.3739 135.777 38.4186 135.819 38.4738C135.866 38.8307 134.655 39.4723 134.655 39.7485C134.559 40.5834 134.039 40.5006 133.533 43.2433C133.597 43.9083 133.589 44.4968 133.542 45.0215C132.921 46.6617 132.416 47.6071 131.995 48.7925C131.647 49.7698 133.601 52.5997 133.631 54.5287C133.206 55.1661 132.866 55.0747 132.839 55.2659V55.2681ZM136.01 52.3299C135.911 52.0685 135.828 51.6989 135.879 51.4248C136.049 51.2612 136.367 51.3823 136.529 51.3568C136.726 52.2704 136.775 52.3978 136.013 52.3341L136.01 52.3299ZM136.025 38.8243C136.081 38.7818 136.132 38.6459 136.163 38.597C136.807 38.1849 136.363 38.4823 135.724 38.1445C135.515 38.0383 135.511 37.8386 135.537 37.556C135.575 37.2055 135.43 37.1375 135.375 37.0249C135.354 36.9781 135.454 36.8061 135.537 36.685C135.685 36.4598 135.819 35.9924 135.889 35.8776C136.956 35.9201 136.718 36.3918 136.746 36.4768C136.831 36.7062 137.277 37.1991 137.495 37.3542C137.432 38 136.926 37.6197 137.151 38.2082C137.092 39.3257 135.764 39.1855 135.197 40.1033C135.139 39.194 135.94 39.1961 136.025 38.8222V38.8243ZM134.814 43.6342C135.103 43.8955 135.409 44.2248 135.63 44.2801C135.783 44.6625 135.311 44.7156 135.142 44.8962C134.744 44.9557 134.596 44.535 134.364 44.7262C134.311 44.7687 134.073 44.7199 134.077 44.6731C134.205 44.3332 134.559 43.8446 134.812 43.6321L134.814 43.6342ZM132.297 49.3279C132.148 48.5546 133.176 47.3521 133.86 44.9939C134.141 44.8962 134.29 45.5399 134.689 45.2914C135.305 45.3062 135.042 46.9102 135.615 45.8905C135.603 45.4401 135.59 44.9344 135.947 44.6944C136.333 44.6051 136.584 44.8218 136.61 45.1618L136.015 46.088C137.141 46.1305 135.654 47.9406 137.141 47.6092C137.092 48.289 136.726 50.1947 136.465 50.0991C136.261 49.0432 136.095 49.483 136.095 49.7932C136.138 50.2032 136.129 50.5368 136.372 50.8682C136.291 50.9532 135.989 50.9447 135.904 50.9638C135.063 49.7634 135.097 48.117 134.555 46.8125C134.464 46.8083 134.349 46.9187 134.353 47.0143C134.29 47.8004 133.984 48.9349 133.338 49.3088C132.934 49.5467 134.226 49.4023 133.168 49.8994C133.572 50.1671 133.2 50.5304 132.756 50.5304C132.535 50.0588 132.365 49.6678 132.299 49.3258L132.297 49.3279ZM133.412 51.9326C133.259 51.7541 133.023 51.2379 132.928 51.0148L133.544 50.7598C133.735 50.9723 133.926 51.3675 133.954 51.7159C133.816 51.7902 133.625 51.9177 133.412 51.9326ZM113.58 39.2705C113.489 38.017 114.005 36.9548 113.421 35.6163C113.427 35.064 113.814 34.6391 113.709 34.1292L112.76 34.3586C112.615 35.4124 112.441 35.7608 112.583 36.7529C112.834 37.8896 112.962 38.9242 113.578 39.2726L113.58 39.2705ZM103.769 42.7759C107.402 41.7562 109.909 40.8851 112.919 39.621C111.666 36.9441 111.942 36.1708 112.048 34.4585C112.048 34.4585 110.518 34.4797 108.74 34.0081C106.633 35.3678 104.173 40.235 103.769 42.7759ZM116.236 43.5514C116.04 43.3602 116.329 43.6661 116.236 43.5514V43.5514ZM120.601 35.4357C119.072 34.382 117.886 31.9303 116.219 32.096C116.057 30.2902 115.269 27.2245 117.763 23.991C118.086 23.8423 118.613 23.7849 118.817 23.5491C117.797 23.4429 116.454 24.0739 115.481 23.5215C115.481 23.5215 115.932 24.3076 116.454 24.4265C116.11 24.8939 115.443 25.2275 115.849 26.0412C115.016 26.5362 115.33 27.2776 115.588 27.677C115.171 28.1062 114.918 28.8774 115.471 29.3469C114.791 30.0756 115.634 30.6938 115.832 30.9403C115.488 31.669 115.819 32.232 115.819 32.232C115.806 32.7567 114.872 33.5067 114.534 33.7489C114.13 34.9811 114.285 37.4604 114.347 39.1026C116.62 38.0149 118.851 36.9803 120.601 35.4357ZM94.4699 78.9925C94.4699 77.6965 93.6052 76.1669 92.4176 75.4488C92.1273 75.2726 91.8 75.1664 91.4616 75.1386C91.7505 75.1556 92.1414 75.1344 92.509 74.9814C92.5212 74.9765 92.5341 74.9737 92.5472 74.9729C93.7497 74.4375 95.2071 72.8803 95.2071 70.2565C95.2071 68.3168 94.3722 66.751 92.9551 65.7206C91.6294 64.7604 90.0573 64.5437 88.4873 64.5437H76.1226V67.6879H78.9057V83.5262H76.1226V86.6577H84.9032V83.5241H82.1562V76.5472H88.2259C90.3186 76.5727 91.128 77.9493 91.1705 79.1327L91.3235 86.6535H97.3911V83.5262H94.5549L94.4699 78.9925ZM88.8824 73.5112H82.1583V67.6901H88.5212C89.1798 67.6901 89.9999 67.6688 90.6394 67.9939C91.4212 68.3912 92.1542 69.2473 92.1542 70.6453C92.1542 72.2599 90.6755 73.5112 88.8824 73.5112ZM75.0242 94.4334H70.8326V107.068H72.7021V101.599H74.7757C77.7925 101.599 79.1628 100.049 79.1628 98.0642C79.1628 96.0629 77.8668 94.4334 75.0242 94.4334ZM74.9477 99.972H72.7064V96.0629H75.0263C76.726 96.0629 77.2358 97.0614 77.2358 97.9835C77.2358 99.2476 76.3414 99.972 74.9477 99.972ZM86.4307 94.3591L80.839 107.064H82.8573L84.3869 103.339H89.9213L91.5041 107.064H93.5648L87.7437 94.3591H86.4265H86.4307ZM85.1135 101.71L87.0596 96.7173L89.1565 101.71H85.1135ZM112.715 94.4334H114.585V107.068H112.715V94.4334ZM122.358 97.3971C122.358 96.5048 123.268 95.8951 124.534 95.8951C125.469 95.8951 126.601 96.1925 127.767 97.2123V95.1515C126.845 94.5784 125.783 94.2718 124.697 94.2656C122.174 94.2656 120.519 95.5764 120.519 97.6351C120.519 101.098 126.474 101.395 126.474 104.009C126.474 104.71 125.768 105.598 124.232 105.598C122.877 105.598 121.611 104.948 120.599 103.771V106.065C121.751 106.862 122.957 107.234 124.453 107.234C126.673 107.234 128.307 105.785 128.307 103.807C128.315 99.7851 122.358 99.8254 122.358 97.3971ZM106.106 104.565C105.092 102.993 104.355 101.825 103.153 101.064C104.57 100.529 105.366 99.4324 105.366 97.9729C105.366 95.7889 103.692 94.4355 101.011 94.4355H97.663V107.07H99.5687V101.582H100.368C101.341 101.582 102.137 101.88 103.888 104.472L105.56 107.068H107.797L106.813 105.598C106.567 105.261 106.331 104.916 106.106 104.565ZM100.795 99.955H99.573V95.9886H100.797C102.645 95.9886 103.384 96.7109 103.406 97.8964C103.42 98.9586 102.84 99.9529 100.797 99.9529L100.795 99.955Z" fill="black"/>
</svg>
