<svg width="200" height="129" viewBox="0 0 200 129" fill="none" xmlns="http://www.w3.org/2000/svg">
<path d="M121.938 50.1275C121.939 52.9138 121.936 55.7038 121.938 58.4901C121.94 61.5496 121.734 65.0203 121.936 68.0271C122.084 70.2388 123.412 71.9847 125.719 72.1735C128.608 72.4093 130.55 70.9545 130.767 68.024C130.898 66.266 130.762 64.2113 130.768 62.4178C130.781 58.3223 130.758 54.223 130.768 50.1275H137.311L137.31 50.1281C137.284 55.1528 137.345 60.1813 137.31 65.2059C137.289 68.275 137.438 70.9589 135.836 73.7141C134.091 76.7164 130.771 78.1229 127.401 78.3199C126.773 78.3567 125.933 78.3567 125.305 78.3199C119.425 77.976 115.713 74.3782 115.396 68.4676C115.175 64.3435 115.389 59.8069 115.395 55.639C115.398 53.8029 115.393 51.9636 115.395 50.1275H121.938Z" fill="black"/>
<path d="M153.292 50.1955C157.224 49.1017 161.476 50.2051 163.763 53.6803C163.89 53.8722 164.542 54.9353 164.472 55.0683L159.315 58.4837C159.193 58.5174 159.243 58.4615 159.213 58.4088C158.778 57.6531 158.47 56.8847 157.766 56.3032C155.549 54.4722 153.02 57.1046 155.35 59.1555C157.436 60.9916 160.905 61.6533 163.229 63.7156C166.948 67.0148 166.494 73.3601 162.657 76.3554C161.126 77.5496 159.114 78.1967 157.193 78.3193C156.654 78.3536 155.889 78.3555 155.351 78.3193C151.626 78.0676 148.292 75.9398 146.784 72.5135C146.617 72.1335 146.153 70.9654 146.153 70.6082C146.154 70.5001 146.209 70.4938 146.271 70.4359C146.522 70.1989 147.155 69.9091 147.474 69.7031C148.675 68.929 149.873 68.1283 151.1 67.3961C151.186 67.3446 151.618 67.0618 151.666 67.1056C152.179 69.1839 153.366 71.8043 155.716 72.2212C158.814 72.7709 159.816 69.747 157.671 67.8645C155.674 66.1117 152.556 65.4208 150.396 63.5275C145.802 59.5019 147.301 51.8619 153.292 50.1955Z" fill="black"/>
<path d="M104.055 50.1269C104.062 50.1271 104.15 50.2152 104.15 50.2222V78.0034H97.2578L88.0468 61.4683C87.9864 65.4557 88.0201 69.4514 88.0157 73.4414C88.0138 74.961 88.0169 76.4832 88.0157 78.0028H81.6633C81.6678 71.0772 81.6576 64.1484 81.6633 57.2228V56.9063C81.6652 54.6475 81.662 52.3862 81.6633 50.1275H88.4923L90.1759 53.1686L97.7351 66.7262V50.1275H104.056L104.055 50.1269Z" fill="black"/>
<path d="M41.3249 50.1263C41.3268 51.0332 41.3224 51.9439 41.3249 52.8509C41.344 59.2273 41.3116 65.6076 41.3249 71.9841C43.3142 71.986 45.3073 71.9816 47.2965 71.9841C49.1377 71.9867 50.9821 71.9822 52.8233 71.9841V78.0028H34.2105V50.1904L41.3249 50.1263Z" fill="black"/>
<path d="M69.6571 50.1275C69.6584 54.1594 69.6552 58.1952 69.6571 62.2277C69.6597 67.485 69.6552 72.7455 69.6571 78.0027H62.5421C62.5408 73.7808 62.544 69.555 62.5421 65.3324C62.5402 60.3376 62.5466 55.3416 62.539 50.3462C62.525 50.2813 62.5847 50.1275 62.6375 50.1275H69.6571Z" fill="black"/>
</svg>
