<svg width="200" height="129" viewBox="0 0 200 129" fill="none" xmlns="http://www.w3.org/2000/svg">
<path d="M60.6332 108.245V95.1565C60.4663 93.2546 59.8686 90.9762 58.1491 89.9088C56.2666 88.7405 54.4851 89.509 52.49 89.6177C45.7557 89.9748 37.9657 87.8633 32.8888 83.3259C25.8829 77.0652 24.1945 66.0653 27.9439 57.5999C31.6468 49.2354 38.5208 45.944 45.1347 40.4285C51.7836 34.8742 57.3068 28.0701 61.5221 20.4974L61.7511 20.4004C65.6946 27.647 70.9306 34.1911 77.1603 39.5862C82.6292 44.3216 89.2431 47.7566 93.2915 53.9048C95.9619 57.9609 97.6231 62.9058 97.2195 67.8119C97.0332 67.711 96.9516 67.4199 96.7925 67.2646C95.3603 65.8479 92.2901 65.9643 90.8462 67.3461L90.7996 66.5077H87.9118V74.7985H90.8928V70.0942C90.8928 69.9894 91.2848 69.2597 91.3896 69.1471C91.9407 68.5649 93.5554 68.4368 94.1725 68.9259C94.3123 69.0384 94.615 69.6595 94.615 69.8147V74.7985H95.9192C92.7015 85.2472 81.0029 90.1766 70.7365 89.6099C68.8463 89.5051 67.2239 88.7987 65.3918 89.7613C63.6103 90.6967 62.8806 92.8936 62.6826 94.7839V108.245H60.6332ZM53.5613 74.8023C52.7578 72.8733 53.4526 70.5367 53.1654 68.5377C52.7966 65.9954 48.7367 65.9799 46.8154 66.2322C45.0183 66.4689 43.6442 67.2801 43.4152 69.2131H46.3962C46.4078 68.8211 46.7183 68.3242 47.0871 68.1806C47.5257 68.0099 49.2995 68.0448 49.7458 68.235C50.4445 68.53 50.4057 69.3451 49.5983 69.4848C47.3821 69.8613 42.6933 69.0423 42.9534 72.6132C43.163 75.5282 47.4364 75.4389 49.4392 74.6354C49.7303 74.519 50.0602 74.2356 50.2621 74.1541C50.4911 74.061 50.4134 74.7169 50.6347 74.8062H53.569L53.5613 74.8023ZM63.6141 69.2131C63.6763 67.2763 62.0732 66.4728 60.3926 66.2438C58.4169 65.9721 54.5821 66.0691 54.3181 68.7124C53.9999 71.8719 57.8386 71.3906 59.8957 71.868C60.1791 71.934 60.5789 71.9805 60.7147 72.2639C60.9825 73.1527 59.1738 73.1838 58.6343 73.1294C57.9783 73.0635 57.2486 72.784 57.2836 72.0116H54.027C54.225 75.1128 57.7299 75.2487 60.1286 75.0896C61.8636 74.9731 63.9674 74.3482 63.9674 72.2445C63.9674 69.3412 60.1053 69.7681 58.1957 69.3761C57.6445 69.2636 57.2797 69.283 57.4 68.627C57.4854 68.1651 58.4247 68.1457 58.8206 68.1496C59.527 68.1535 60.4818 68.3281 60.4508 69.2131H63.6141ZM86.9803 71.5419C87.1006 68.7046 85.8236 66.6669 82.9203 66.2438C80.2848 65.8596 76.811 66.5272 76.2055 69.5663C75.565 72.7995 77.5717 74.8489 80.6963 75.0818C83.1648 75.2642 85.9983 74.7247 86.8871 72.1009H83.7703C83.7082 72.1009 83.2735 72.7374 82.8194 72.9198C81.5773 73.4244 79.4775 73.0712 79.2563 71.5419H86.9842H86.9803ZM67.8954 74.2434C71.4197 76.5567 76.3413 74.0455 75.3942 69.5818C74.6878 66.2593 70.2747 65.2618 67.8022 67.2569V66.5116H64.9144V77.7833H67.8954V74.2434Z" fill="black"/>
<path d="M173.093 71.3557H165.272C165.625 73.4595 168.564 73.9252 169.93 72.5202C170.008 72.4387 170.007 72.2873 170.019 72.2873H172.907C171.902 74.9887 168.125 75.2915 165.719 74.6821C161.379 73.5837 161.457 67.5481 165.905 66.5389C169.569 65.7083 173.365 67.0318 173.093 71.3557ZM170.396 69.7721C169.852 67.3191 165.897 67.3967 165.276 69.7721H170.396Z" fill="black"/>
<path d="M124.312 69.0268H121.424C121.447 67.777 118.73 67.777 118.191 68.3088C117.954 68.5417 117.907 69.0113 118.171 69.2559C118.606 69.6634 121.657 69.776 122.542 70.005C124.048 70.3931 125.018 71.2742 124.545 72.9432C123.939 75.0741 120.353 75.0314 118.583 74.8994C116.988 74.783 115.105 74.0572 115.093 72.1941H117.981C118.14 73.4594 120.042 73.4478 120.981 73.1955C121.921 72.9432 122.204 72.0854 121.148 71.771C119.778 71.3673 116.724 71.5071 115.78 70.4824C115.14 69.7876 115.183 68.464 115.672 67.6878C116.778 65.9334 121.385 66.0731 123.015 66.9231C123.807 67.3345 124.308 68.1264 124.312 69.023V69.0268Z" fill="black"/>
<path d="M147.864 66.6047V71.6816C147.864 72.0542 148.369 72.6442 148.726 72.7762C149.898 73.1993 151.408 72.8072 151.804 71.5264C151.831 71.4332 151.959 70.8898 151.959 70.8432V66.6047H154.568V74.616H152.052L152.006 73.5913C150.558 75.2564 146.778 75.5126 145.567 73.5098C145.504 73.4089 145.256 72.8538 145.256 72.7995V66.6047H147.864Z" fill="black"/>
<path d="M113.793 74.6161H111.185V69.6324C111.185 69.3529 110.676 68.7707 110.412 68.6349C109.822 68.3321 108.65 68.4098 108.08 68.763C107.595 69.0657 107.086 69.9041 107.086 70.4708V74.6161H104.478V66.6049H106.993L107.04 67.7227C107.917 66.9348 109 66.4535 110.199 66.4147C111.398 66.3759 112.963 66.8145 113.525 67.9401C113.568 68.0255 113.789 68.5728 113.789 68.6077V74.6161H113.793Z" fill="black"/>
<path d="M159.966 64.1831V66.6051H162.109V68.375H159.966V72.5204C159.966 72.6135 160.292 72.9396 160.386 72.9396H162.109V74.7095C160.696 74.7056 157.89 75.3461 157.401 73.5063C157.378 73.417 157.269 72.8464 157.269 72.7999V68.375H155.592V66.7448L155.732 66.6051H157.269V64.1831H159.97H159.966Z" fill="black"/>
<path d="M141.813 64.1831V66.6051H143.956V68.375H141.813V72.2409C141.813 72.3768 142.104 72.9396 142.232 72.9396H144.049V74.7095C142.749 74.7095 139.997 75.284 139.372 73.7508C139.341 73.6809 139.205 73.2035 139.205 73.1725V68.375H137.528V66.6051H139.205V64.1831H141.813Z" fill="black"/>
<path d="M129.431 64.1831V66.6051H131.574V68.375H129.431V72.5204C129.431 72.6135 129.757 72.9396 129.85 72.9396H131.574V74.7095C130.444 74.725 128.201 75.1093 127.3 74.2826C127.18 74.17 126.827 73.58 126.827 73.4519V68.375H125.15V66.6051H126.827V64.1831H129.435H129.431Z" fill="black"/>
<path d="M102.809 74.616H100.107V66.6047H102.669L102.809 66.7445V74.616Z" fill="black"/>
<path d="M136.045 66.6047H133.437V74.616H136.045V66.6047Z" fill="black"/>
<path d="M102.809 63.8103V65.5337L102.669 65.6734H100.107V63.8103H102.809Z" fill="black"/>
<path d="M136.045 63.8103H133.437V65.6734H136.045V63.8103Z" fill="black"/>
<path d="M69.5489 68.5843C71.4625 68.3048 73.0732 69.6983 72.2232 71.6351C71.4353 73.4283 68.0235 73.1449 67.8023 71.1227C67.6625 69.8457 68.2021 68.7822 69.5489 68.5843Z" fill="black"/>
<path d="M83.8169 69.5859H79.2562C79.7957 67.6569 83.3394 67.6491 83.8169 69.5859Z" fill="black"/>
<path d="M50.3008 70.9832C50.6617 72.854 47.7895 73.7467 46.5125 72.9588C46.1011 72.7065 45.9536 72.0467 46.3029 71.6857C46.8347 71.1306 49.4973 71.4489 50.3008 70.9832Z" fill="black"/>
</svg>
