<svg width="200" height="128" viewBox="0 0 200 128" fill="none" xmlns="http://www.w3.org/2000/svg">
<path d="M71.0976 65.6753C71.2475 65.7002 71.192 66.118 71.1851 66.2316C70.673 74.5331 63.2288 83.3387 54.3822 82.2702C47.8339 81.4799 44.0482 77.4582 36.6245 79.0876C34.5545 79.5418 32.6798 80.4774 30.7529 81.3029C33.2941 78.8718 36.6347 77.1379 40.1672 76.7564C42.9514 76.4555 45.6299 77.0562 48.2847 77.8102C52.2009 78.9218 55.4848 80.5739 59.6271 79.0228C65.2829 76.904 69.4171 71.33 71.0976 65.6742V65.6753Z" fill="black"/>
<path fill-rule="evenodd" clip-rule="evenodd" d="M66.6296 50.428C66.7499 50.6051 66.8328 50.3655 66.8873 50.2633C67.656 48.8111 68.1442 47.0193 68.8937 45.5432C68.9266 45.4796 69.0686 45.1822 69.1378 45.2343C71.2441 50.6119 74.0397 55.7261 77.4472 60.3839L77.4541 60.3827C80.638 64.7339 84.3726 68.6911 88.8566 71.7183L88.8293 71.9465L87.0137 74.7795C86.9114 74.8487 85.8532 74.0937 85.6682 73.9654C80.1236 70.107 75.2354 64.1196 71.6643 58.4252C70.8047 57.0569 70.0474 55.6285 69.1878 54.2602L67.019 59.1133L61.5279 48.6407L51.0111 73.2C54.0871 73.9994 57.2119 73.9381 60.0108 72.3291C65.1012 69.4019 68.393 63.6257 69.3172 57.9222C69.4444 57.9608 69.4763 58.3616 69.4853 58.4763C69.9713 64.8145 66.139 71.9033 60.6059 74.968C53.8611 78.7026 47.4252 73.8711 40.5044 74.5286C37.1002 74.8522 34.0265 76.4203 31.2253 78.2734C31.189 78.1678 31.3308 78.0111 31.3933 77.9316C32.3778 76.6928 34.3501 75.1418 35.7218 74.3424C36.8788 73.6679 38.1131 73.2421 39.0976 72.2701C39.1328 72.1907 37.6036 71.673 37.5181 71.5503C37.3978 71.3788 37.785 70.5544 37.9053 70.4772C38.0098 70.4102 38.0654 70.4511 38.163 70.4761C38.6956 70.6101 39.6913 71.3321 40.1705 71.3776C40.5713 71.4162 40.7633 70.9496 41.1402 70.8655C41.2163 70.752 38.9832 69.7767 38.7615 69.755C38.6525 69.6267 39.0861 68.7855 39.1804 68.6026L42.2894 69.9253L45.5641 67.5874C45.5686 67.4069 43.8768 67.2207 43.694 66.9856C43.6406 66.7926 44.5706 65.5583 44.7137 65.2869C44.1085 65.1927 43.4669 65.3403 42.8651 65.438L41.0472 68.3062C40.9791 68.355 40.0766 67.835 40.048 67.7861C39.8504 67.4523 41.3787 65.7275 41.2243 65.5867L39.7777 65.757L39.6914 64.4796C40.1047 64.4864 40.5146 64.4285 40.9268 64.3944C41.0176 64.3865 41.2118 64.4444 41.138 64.2684C40.9859 63.9062 39.68 63.0069 39.4734 62.606C39.3849 62.4334 40.116 61.7137 40.3125 61.7646C40.6327 61.8486 42.2258 63.8073 42.672 64.0958C43.0342 64.2604 44.1299 64.0266 44.5421 63.9278L43.1819 62.5652L44.7954 61.6284L41.1073 60.0672C40.2852 60.5872 39.4336 61.5353 38.6116 61.9986C38.5173 62.052 38.448 62.1235 38.3288 62.0599C38.2005 61.9918 37.6714 61.2536 37.7702 61.0742C37.851 60.9265 39.8728 59.5802 39.7754 59.4574C39.4836 59.4563 38.9863 59.0679 38.7297 59.1292C38.4344 59.1996 37.3228 60.3045 36.9651 60.5214C36.6563 60.8029 36.0149 59.8175 36.042 59.6799C36.0772 59.5039 37.3909 58.692 37.3909 58.5614L35.6411 57.753C35.6684 57.4747 35.8841 56.6051 36.2236 56.6573C36.453 56.6925 37.7951 57.4396 37.903 57.326C37.9904 57.0013 37.6283 55.7376 37.7452 55.5502C37.8077 55.4503 38.7227 55.4151 38.9215 55.3708C39.0578 55.49 39.076 57.5077 39.2816 57.8643C39.419 58.1004 40.0184 58.2492 40.2864 58.348L39.9458 55.6239L41.2232 55.5377L41.6854 58.9498L45.3075 60.3918L44.7976 58.5183H46.8404L45.8196 57.1126C45.4664 57.0967 45.1065 57.0035 44.7579 56.982C44.2015 56.9479 42.7799 57.1047 42.3825 56.9741C42.06 56.8685 42.3553 55.993 42.3292 55.7091L44.7965 55.7931C44.8544 55.75 43.9711 54.778 43.9574 54.6293C43.9439 54.4794 44.567 54.0003 44.7079 53.9536C45.1201 53.8185 45.5108 54.811 45.8162 55.0267L46.4657 52.5514L47.6057 52.8125L46.8313 56.2633C46.8462 56.4281 47.6204 57.4998 47.7737 57.6259C47.8328 57.6747 47.9248 57.7155 47.9453 57.6224L48.3722 55.708C48.5255 55.6013 49.9719 56.673 50.2434 56.8151L49.7779 52.8114L46.6769 51.3943C46.7258 51.1626 46.9664 50.3486 47.2196 50.3428C47.441 50.3383 48.9183 51.1172 49.3055 51.241C49.3929 51.2683 49.4691 51.2966 49.5633 51.2796C49.5701 51.0423 49.5735 50.3667 49.393 50.2156C49.1307 50.0374 47.2559 49.4106 47.1912 49.3107C47.0334 49.0666 47.5182 48.4285 47.5251 48.131C47.6602 48.0356 49.2363 48.8917 49.3089 48.8099L49.1386 46.7661L50.3309 46.6809L50.5012 48.6396C50.6295 48.7781 51.8091 47.6622 52.0647 47.6246L52.7949 48.5159L50.9213 49.9556C50.5739 50.2736 50.8294 50.7914 50.8407 51.1944L53.0151 49.6581C53.1627 49.6343 53.123 49.7217 53.165 49.766C53.2649 49.8705 53.7475 50.5359 53.7395 50.6358L51.0054 52.6172L51.4356 56.5596C51.5685 56.7163 52.6756 55.3061 52.9152 55.2867C53.0912 55.3174 53.6238 56.5369 53.7986 56.7901C53.8497 56.8651 53.785 56.949 53.9871 56.9013C54.0791 56.4256 54.6298 55.7125 54.5833 55.2492C54.5242 54.6622 53.4398 53.2236 53.2036 52.5355C53.1673 52.4265 53.0844 52.2437 53.1479 52.1437C53.1797 52.0938 54.1677 51.6646 54.237 51.7134C54.539 52.3004 54.808 53.0986 55.1589 53.6414C55.2122 53.7231 55.1499 53.7935 55.3486 53.7504L61.1372 39.8704L66.6296 50.428ZM43.1364 70.869C43.0036 71.3232 43.1603 71.7865 43.2159 72.2361L47.2503 72.5573L48.1995 70.1877L46.2431 70.6974C46.1796 69.9832 46.443 69.2793 46.2852 68.5696L43.1364 70.869ZM41.9873 72.4007C42.1076 71.4889 41.591 71.9181 41.1584 72.2905C41.0971 72.3428 40.9972 72.2883 41.0505 72.4858L41.9873 72.4019V72.4007ZM50.0311 65.8456C49.6394 66.2305 47.6852 67.3501 47.6068 67.7623C47.5342 68.1494 47.6772 68.6604 47.5206 69.0794L48.9217 68.6514C49.2612 67.7066 49.8006 66.8221 50.0311 65.8456ZM46.3862 65.0087C46.1841 65.0678 45.7049 66.0328 45.5618 66.2691L46.9483 66.5962C47.7358 65.946 48.6469 65.426 49.3903 64.7386L46.3862 65.0087ZM45.2212 62.7798C45.1406 62.8911 46.0216 63.7641 46.2022 63.7994C47.1061 63.6802 48.1178 63.6893 49.0058 63.5417C49.1057 63.5247 49.2067 63.4906 49.2214 63.3759L46.4486 62.2688L45.2212 62.7798ZM46.4986 59.7117C46.4021 59.8093 46.7735 60.9437 46.8609 61.139C47.8396 61.4388 48.731 62.0088 49.7313 62.2257C49.4486 61.9248 48.0884 59.8799 47.8896 59.8117C47.6171 59.7186 46.8472 59.8071 46.4986 59.7129V59.7117ZM50.4364 58.4548C50.357 58.2799 49.2306 57.5907 49.1375 57.669C49.1409 58.1039 48.7912 58.7215 48.9172 59.1201C49.5371 59.8752 50.047 60.7462 50.7532 61.4161L50.4364 58.4548ZM52.6677 57.3284C52.553 57.3011 51.7253 58.1413 51.6923 58.3094C51.7979 59.1814 51.807 60.1739 51.9489 61.0289C51.966 61.1288 52 61.2298 52.1147 61.2446L52.1158 61.2458L53.2207 58.5523C53.2434 58.1958 52.8641 57.6372 52.6677 57.3284Z" fill="black"/>
<path fill-rule="evenodd" clip-rule="evenodd" d="M57.3754 25.5883C84.9165 24.195 105.404 50.5825 95.9534 76.8734C85.5376 105.844 46.6428 111.157 28.591 86.1878C11.0239 61.8908 27.5702 27.095 57.3754 25.5883ZM91.3388 82.3919C106.176 57.308 86.9195 26.0686 58.0567 27.3766C29.5448 28.6688 13.2654 61.2549 29.8309 84.7764C45.1235 106.491 77.8185 105.247 91.3376 82.3919H91.3388Z" fill="black"/>
<path d="M126.667 81.9081C123.092 79.4134 124.238 72.9333 129.235 74.0574C130.658 74.3776 131.87 75.8061 131.87 77.2981V79.0444H129.401V77.1278C129.401 76.3465 127.785 76.1535 127.321 76.6645C127.02 76.996 126.986 77.7954 127.029 78.2247C127.21 80.013 129.011 80.2583 130.169 81.2144C133.242 83.7511 132.342 90.5252 127.253 89.4114C125.964 89.1298 124.636 87.7763 124.636 86.4103V83.8123H127.019V86.0697C127.019 86.1345 127.228 86.6635 127.286 86.7395C127.656 87.2267 128.941 87.196 129.267 86.6158C129.461 86.2695 129.455 84.7354 129.382 84.3017C129.162 82.9902 127.603 82.561 126.667 81.9081Z" fill="black"/>
<path d="M153.32 77.3004C153.542 74.6616 155.806 73.4352 158.252 74.1517L158.253 74.1539C159.462 74.5082 160.554 75.9446 160.554 77.2152V79.0455H158.171V77.5559C158.171 77.5105 158.051 77.0221 158.021 76.9404C157.811 76.3556 157.046 76.3284 156.518 76.4124C155.785 76.5283 155.74 77.2811 155.699 77.8931C155.554 80.0505 155.538 83.5046 155.699 85.6506C155.723 85.9583 155.803 86.5716 156.006 86.7919C156.363 87.1802 157.567 87.1767 157.904 86.7419C157.999 86.6181 158.171 86.0335 158.171 85.9017V83.8146H160.554V86.3263C160.554 86.6169 160.227 87.5185 160.076 87.8069C158.671 90.4867 153.961 89.9201 153.428 86.8134C153.418 83.7851 153.068 80.3049 153.32 77.3004Z" fill="black"/>
<path d="M123.273 89.3478H120.89V74.1891H123.273V89.3478Z" fill="black"/>
<path d="M139.785 76.5737H137.402V89.3478H135.062C135.052 89.3478 134.935 89.2299 134.934 89.2206V76.5737H132.55V74.104H139.785V76.5737Z" fill="black"/>
<path d="M151.787 89.3478H149.404V74.2323L149.405 74.2312C149.405 74.2232 149.523 74.104 149.532 74.104H151.787V89.3478Z" fill="black"/>
<path d="M168.555 76.5737H166.172V89.3478H163.703V76.5737H161.32V74.104H168.555V76.5737Z" fill="black"/>
<path fill-rule="evenodd" clip-rule="evenodd" d="M144.679 74.1051C146.553 74.1051 147.906 75.6947 148.045 77.4661C148.175 79.1375 148.188 80.9622 147.067 82.2839L147.065 82.2828C146.924 82.4497 146.641 82.4645 146.67 82.7461L147.955 89.3477H145.615C145.17 88.6629 144.526 83.4285 144.287 83.2252C144.213 83.1617 143.457 83.2524 143.275 83.2161V89.2206C143.274 89.2291 143.156 89.3477 143.147 89.3477H140.807V74.2323C140.807 74.2243 140.925 74.1051 140.934 74.1051H144.679ZM143.189 80.8328H144.849C145.216 80.8328 145.522 80.3808 145.6 80.0504C145.733 79.4951 145.756 77.3015 145.406 76.8699C145.329 76.7746 145.03 76.5748 144.935 76.5748H143.189V80.8328Z" fill="black"/>
<path fill-rule="evenodd" clip-rule="evenodd" d="M116.081 74.104C117.774 74.104 119.312 75.7027 119.361 77.3798L119.362 77.3787C119.186 80.2287 119.586 83.3365 119.362 86.1559C119.239 87.7115 117.915 89.3466 116.252 89.3466H112.124V74.2312C112.124 74.2232 112.242 74.104 112.251 74.104H116.081ZM114.591 86.8781H116.336C116.647 86.8781 117.005 86.1117 116.973 85.8131H116.974C116.842 83.2514 117.153 80.5138 116.979 77.9748C116.957 77.6671 116.905 77.1947 116.74 76.9369C116.666 76.8234 116.34 76.5737 116.251 76.5737H114.591V86.8781Z" fill="black"/>
<path d="M128.424 65.6742L130.296 55.7092H132.636L129.604 70.8735C128.949 70.7781 128.015 70.9859 127.401 70.869L127.402 70.8679C127.302 70.8497 127.229 70.8394 127.205 70.7236L124.21 55.7092H126.678L128.424 65.6742Z" fill="black"/>
<path fill-rule="evenodd" clip-rule="evenodd" d="M116.591 55.7103C117.449 55.7103 118.691 56.8491 119.033 57.6099C119.588 58.8442 119.532 62.0463 118.83 63.2294C118.564 63.6779 118.141 63.9062 117.989 64.3524L119.273 70.869H116.804L115.622 64.8713L114.591 64.8225V70.869H112.123V55.7103H116.591ZM114.591 62.3529H116.166C116.192 62.3529 116.586 62.1757 116.632 62.1371C117.116 61.7248 117.078 59.1201 116.794 58.574C116.713 58.4207 116.324 58.0948 116.166 58.0948H114.591V62.3529Z" fill="black"/>
<path d="M123.188 70.7407H123.187C123.186 70.7489 123.069 70.8679 123.06 70.8679H120.719V55.7092H123.188V70.7407Z" fill="black"/>
<path d="M140.041 58.0937H136.211V61.8408H138.85V64.3105H136.211V68.4834H140.041V70.8679H133.742V55.7092H140.041V58.0937Z" fill="black"/>
<path fill-rule="evenodd" clip-rule="evenodd" d="M145.872 55.7092C145.966 55.7092 146.742 55.9931 146.883 56.06C148.109 56.6471 148.643 57.945 148.727 59.2394H148.728C148.841 60.9699 148.839 63.0875 147.292 64.19L148.64 70.8679H146.171L144.966 64.877C144.881 64.6295 143.873 64.7011 143.873 64.8635V70.8679H141.49V55.7092H145.872ZM143.871 62.3529H145.616C145.641 62.3527 145.991 62.1428 146.037 62.0928C146.466 61.6262 146.444 59.1213 146.159 58.574C146.078 58.4207 145.689 58.0949 145.531 58.0948H143.871V62.3529Z" fill="black"/>
<path fill-rule="evenodd" clip-rule="evenodd" d="M123.424 37.0839C125.567 36.8386 127.406 37.9173 127.613 40.1701C127.882 43.0928 127.413 46.404 127.617 49.3687H127.616C127.354 53.5926 120.858 53.7198 120.465 49.4493C120.181 46.3676 120.584 42.709 120.574 39.5978C120.906 38.2069 122 37.2474 123.424 37.0839ZM125.231 40.4233C125.133 39.5456 124.482 39.3276 123.676 39.465C123.129 39.5581 122.906 39.8897 122.847 40.4233C122.543 43.144 123.075 46.4153 122.847 49.1949C122.87 50.4985 125.101 50.5541 125.224 49.2721L125.223 49.2732C125.007 46.4709 125.537 43.1655 125.231 40.4233Z" fill="black"/>
<path d="M111.955 40.3381C112.376 35.602 119.188 36.2754 119.188 40.337V42.1674H116.847C116.838 42.1671 116.72 42.0493 116.72 42.0402V40.1666C116.72 39.4025 114.851 39.0584 114.48 40.0542C114.406 40.2495 114.35 40.6276 114.333 40.8445C114.164 43.0121 114.194 46.4993 114.333 48.6862C114.349 48.9382 114.396 49.4219 114.487 49.6399C114.839 50.4847 116.72 50.2452 116.72 49.4492V46.9795C116.72 46.9715 116.838 46.8526 116.847 46.8523H119.188V49.28L119.186 49.3732C119.08 53.3431 112.296 54.0646 111.949 49.112C111.75 46.2733 112.104 43.2018 111.955 40.3381Z" fill="black"/>
<path fill-rule="evenodd" clip-rule="evenodd" d="M139.34 37.0839C141.889 36.7762 143.437 38.1751 143.614 40.6799C143.779 42.9975 143.766 46.5311 143.619 48.8577C143.453 51.4636 141.918 52.875 139.254 52.5366C137.624 52.33 136.523 50.9617 136.382 49.3642L136.381 49.3653C136.128 46.4834 136.569 43.254 136.376 40.3359C136.55 38.6304 137.576 37.2974 139.34 37.0839ZM141.15 40.3371C141.056 39.5525 140.374 39.3628 139.681 39.4673C139.045 39.5627 138.826 39.9873 138.766 40.5948C138.502 43.2246 138.962 46.2688 138.761 48.9429C138.586 50.394 140.943 50.6449 141.142 49.3607L141.15 40.3371Z" fill="black"/>
<path fill-rule="evenodd" clip-rule="evenodd" d="M174.238 37.0828C176.202 36.8466 177.842 37.6482 178.388 39.6114L178.394 39.8981C178.457 42.8844 178.738 46.2481 178.516 49.1972C178.323 51.7679 176.26 53.0067 173.814 52.4469C172.209 52.0801 171.399 50.6665 171.279 49.1074C171.098 46.7661 171.111 42.9407 171.274 40.5891C171.397 38.8178 172.371 37.3087 174.238 37.0828ZM175.849 39.725C175.247 39.063 173.528 39.4729 173.672 40.6039C173.829 43.2904 173.426 46.2869 173.663 48.9371C173.753 49.9409 174.218 50.302 175.229 50.1658C175.842 50.084 175.995 49.7467 176.123 49.187C175.948 46.4209 176.382 43.3165 176.134 40.5902C176.113 40.3563 176.002 39.8942 175.849 39.725Z" fill="black"/>
<path fill-rule="evenodd" clip-rule="evenodd" d="M149.362 37.2304C150.427 37.2304 151.702 38.4169 152.059 39.3855C152.509 40.6106 152.45 43.6027 151.77 44.7495C151.505 45.198 151.081 45.4262 150.929 45.8724L152.213 52.389H149.745L148.562 46.3914L147.531 46.3426V52.389H145.063V37.2304H149.362ZM147.447 43.8309C147.448 43.8391 147.566 43.9581 147.575 43.9581H148.936C149.131 43.9581 149.58 43.7105 149.699 43.5288L149.7 43.5311C149.99 43.0905 149.992 41.0047 149.878 40.463C149.815 40.161 149.43 39.616 149.107 39.616H147.447V43.8309Z" fill="black"/>
<path d="M131.529 50.0034H135.444V52.3879H129.146V37.2293H131.529V50.0034Z" fill="black"/>
<path fill-rule="evenodd" clip-rule="evenodd" d="M161.576 52.3879H159.108L158.767 50.0034L156.038 50.0408L155.618 52.3879H153.15L156.129 37.2304L158.548 37.2247L161.576 52.3879ZM156.469 47.62H158.341L157.362 42.4241L156.469 47.62Z" fill="black"/>
<path fill-rule="evenodd" clip-rule="evenodd" d="M166.979 37.2293C168.567 37.2293 169.816 39.0347 169.92 40.504C170.131 43.5175 169.843 46.9126 169.805 49.9352C169.66 51.031 168.143 52.3879 167.064 52.3879H162.766V37.2293H166.979ZM166.639 39.6149C166.192 39.549 165.614 39.6626 165.15 39.6149V50.0045H166.725C167.055 50.0045 167.59 49.4935 167.533 49.1098V49.1109C167.343 46.4005 167.786 43.346 167.536 40.6765C167.484 40.1167 167.235 39.7023 166.639 39.6149Z" fill="black"/>
</svg>
